<?xml version="1.0" standalone="no"?>
<!DOCTYPE svg PUBLIC "-//W3C//DTD SVG 1.1//EN" "http://www.w3.org/Graphics/SVG/1.1/DTD/svg11.dtd" >
<svg xmlns="http://www.w3.org/2000/svg">
<metadata></metadata>
<defs>
<font id="gessoregular" horiz-adv-x="160" >
<font-face units-per-em="2048" ascent="1638" descent="-410" />
<missing-glyph horiz-adv-x="424" />
<glyph horiz-adv-x="0" />
<glyph unicode="&#xd;" horiz-adv-x="424" />
<glyph unicode=" "  horiz-adv-x="424" />
<glyph unicode="&#x09;" horiz-adv-x="424" />
<glyph unicode="&#xa0;" horiz-adv-x="424" />
<glyph unicode="!" horiz-adv-x="424" d="M80 40v112l16 16h8l16 -16v-48l8 -96l-8 -8h-32v8l8 8v8zM80 184v72l16 16h48l8 -8l8 8h32l8 -8l8 8h16l16 -16q-20 -80 -32 -80h-72l-8 8l-24 -8zM80 808v168h8l24 -16q42 0 48 24v24l-40 8l-24 -16h-16v200l16 16h24l-8 -64l8 -24h24l-8 40l16 48h24l16 -16v-64 q0 -24 -72 -32l-8 -32h16l40 8q48 -44 48 -96q16 0 24 64q46 32 72 32l-8 8v8l8 8h16l16 -16v-16l-8 -8v-8l-8 8h-32v-16q40 0 40 -16l-216 -224l-32 -8zM80 1248v344l80 -24h24v32q-18 34 -104 80v32l16 16h112q18 0 16 -24l-8 -120q10 -168 48 -168l24 72l-8 8q0 72 48 72 l16 -24v-216q0 -24 -72 -24v-8q72 0 72 -16v-24l-128 -16v-8l96 -8l24 8v-8l-16 -40l24 -24q-40 -4 -40 -24h-48l-40 -8l-16 80l8 24h-112zM88 608l8 8h16l8 -8l8 8h8l24 -8l-8 56h-8v-32h-40l-16 16v40q62 88 88 88q56 0 56 -16l40 16l8 -24l16 16v8q0 12 -72 32 q0 64 112 160l8 -8v-208q0 -24 -88 -24l-16 16q0 -18 -40 -48q-12 -48 -24 -48q26 -88 48 -88l-8 -8l16 -112l-8 -8h-112q-14 0 -16 24zM136 16v24q48 32 48 64l-48 56l8 8h24l8 -8l8 8h24q16 0 16 -64h8v48h16v-16l-8 -8q26 -70 64 -120l-8 -8h-144zM240 184v8l16 16v-24 h-16zM264 224v8q16 36 32 40h32l16 -16v-8l-16 -16l-8 8h-8q0 -18 -40 -24zM280 1720l8 8h48v-8l-16 -24q24 0 24 -16v-80h-8q-48 0 -48 64zM288 448v40h16q24 0 24 -32l-8 -24h-16z" />
<glyph unicode="&#x22;" horiz-adv-x="704" d="M80 2000h144v-8q0 -20 -80 -24l8 -8l-8 -40v-64l-16 -16h-40zM96 1784l8 8h32q128 0 128 24h-8l-136 -16v16l176 24l8 -8v-24q0 -24 -88 -24v-16h8l24 8v-8l8 8h24l16 -16q0 -160 -24 -160h-144q-18 0 -32 184zM160 1856l8 8h24v-8l-16 -16zM160 1888v32l8 8l-8 8v8 q0 14 24 16l136 8v-8q0 -104 -40 -104l-64 -8l-8 32l-8 -8h-24zM256 1984v16h56v-16h-56zM384 1992l8 8h136v-8q0 -16 -48 -24l-16 16q-8 -70 -24 -88q16 0 16 -72h8v32h8l32 -32v-16h-40l-32 -8q-48 0 -48 192zM408 1784l8 8h72l40 8l8 -8v-24l-112 -120h-8zM456 1600v8 q0 16 72 16v8h-48v8l88 96q32 -16 32 -40q0 -96 -56 -96h-88zM464 1760h32v8h-32v-8zM472 1912v32q0 24 152 24v-48l-16 -48q-136 18 -136 40zM560 1984v16h64v-16h-64z" />
<glyph unicode="#" horiz-adv-x="1560" d="M80 408v8q0 124 18 198q16 66 38 66h96q16 0 16 -24h16q0 24 16 24h96q4 104 24 104h8q0 -24 16 -24v16l-8 8v8l8 32l-24 40q14 56 32 56h24l8 -8l8 8h8q88 -8 88 -32v-8h-16v-8q46 0 72 -48v-8l-24 -8l-80 8h-24v-8l160 -32l-16 -96h48l16 -16q-14 0 -24 -40l-128 -24 v-16q0 -24 88 -24h48l8 -8l24 8l-16 64l8 8l40 -8h40l-40 48l8 8h88l16 16q88 -14 88 -32l-72 -56l-8 8l-8 -8h-8l-56 16q0 -72 -48 -72h-32l16 -48q-32 -92 -168 -104v-8l16 -24v-8l-48 -48l-48 32l-24 -24q0 -24 40 -24v-8q-16 -32 -40 -32l-8 -8l-8 8v40h-8l-8 -48l8 -8 v-8l-144 -128h-16l48 304h-248zM176 1024v8q24 0 56 32h8q48 -34 48 -56h8l8 56v16l-8 40l40 32h8l48 -56v-16h-32v-8q96 -6 96 -64l-24 -16h-136l-32 24l-48 -16q0 22 -40 24zM208 1232v8q8 24 48 24l8 -8v-24l-48 -8zM264 8v24h16v-24h-16zM272 648l16 -56l-8 -8l48 -8v8 l8 8v8q-10 64 -32 64h-16zM408 1176q0 16 32 16v8h-24v24q62 0 72 -32zM464 400l16 -16v8l-16 16v-8zM464 936v8l24 24h8l32 -32v-8h-8zM472 1280l136 120h8l16 -80l-48 -16v-56h8l48 32l8 -24l-8 -24h8l24 -24v-8q-46 -56 -88 -56l-8 8v8l8 72q-30 -24 -56 -24zM504 1480 q6 64 24 64q32 -36 32 -56l-32 -24h-8zM536 1288h16q0 16 24 16v16h-8l-32 -16v-16zM536 1688l8 8h40q56 -26 56 -120h-8q-96 96 -96 112zM552 1264h8l16 16h-24v-16zM608 1696l8 8h8l16 -16v16h24l16 -16l-32 -24h-8zM648 1104q0 14 56 48l40 -64v-72l-16 -16v48h-8v-16h-8 q-46 34 -64 72zM744 8q0 88 88 88h24v8h-48v8l72 64h112v16l-8 -8l-40 8h-32v8l144 128l8 -8q-48 -304 -64 -320h-240l-8 8h-8zM744 496l40 24h8v-40h-8l-8 8h-8v-16h-16zM752 1056v8l24 8l8 -8v24h8q16 0 16 -24l16 16q0 24 32 24l24 24q136 -140 136 -184h-8l-104 24v24 h-80q-44 0 -72 64zM752 1080v32h8l16 -16v-16h-24zM792 544v16h24l-16 -16h-8zM808 1024h56v8h-56v-8zM864 88l16 -16h32l8 40l-8 8h-32l-16 -16v-16zM864 720v32h16l48 -48l-8 -8h-8q-48 8 -48 24zM880 832q8 88 32 88l-8 8v16q104 0 104 -40h8q0 24 16 24h16 q20 -10 64 -88h8q0 24 16 24h8v-24l-152 -136q-76 68 -112 128zM928 1240v8l16 16h8l16 -16l-8 -8h-32zM936 352l24 24h8l-24 -24h-8zM944 1208l8 8h40l40 -40v-32l-16 -16zM960 1280v8h8l32 -24v8l-40 40q44 304 72 304l24 24l-32 8v8h40v8q-40 0 -40 16v16l16 32h240l8 -8 h8l-40 -224l-88 16l-8 -8l-32 8l-96 -8v-8q0 -24 128 -24h32l56 8v-8q0 -160 -56 -160h-24q0 -24 48 -24v-24h264q-10 -132 -32 -200l-8 8h-16l-88 -72l-8 8v24l24 32l-16 32l16 88q-32 0 -32 32q-48 32 -144 40l-24 -8l-24 8l-16 -16l-24 24l8 8v8l-8 8h-24q-8 -48 -24 -48 q-80 12 -80 40zM1000 408l24 24h8l-24 -24h-8zM1032 1192v16h48v-16l-40 -8zM1040 440l32 32h8l-32 -32h-8zM1120 512l24 24h8l-24 -24h-8zM1160 544l24 24h8l-24 -24h-8zM1168 408v8l24 24h64l40 8v8l-16 16h-40v8l128 112l8 -8q-26 -176 -40 -176h-168zM1208 584l40 40h8 l-40 -40h-8zM1264 632l40 40h8l-40 -40h-8z" />
<glyph unicode="$" horiz-adv-x="1024" d="M80 464l64 32h32q18 0 24 -40h-8l-40 16h-8v-8q24 0 24 -16l-32 -8v-16q32 -4 32 -24l-16 -16q-64 0 -64 40zM104 1352q0 92 80 248l40 -8h24q0 16 -40 16l-8 8v8q102 104 200 128v16h24v-48l32 32v8l-56 24l16 16v-8q32 12 32 24v8l-24 8l-16 -16h-8v32l16 16h32l8 -8 l8 8h16l8 -8l8 8h16l8 -8l8 8h16l16 -16l-96 -96h24q96 60 96 72l-16 32l8 8h8l40 -8v-96q0 -18 56 -24l64 -40l-8 -8v-8q90 0 144 -144h-48l-8 -8l-8 8h-48q-112 -62 -112 -88h-8q-54 72 -120 72h-32q-28 0 -64 -32l-24 8l-48 -8l-64 8q0 -18 -88 -24l16 -24v-8h-40v-8h32 v-24h-16v-8l16 -40l-24 -16h-72l-8 8h-8zM112 1296v16l136 8l16 -16v-8l-8 -8v-8l48 -32l56 40l-8 40l24 24l24 -128q-94 -80 -128 -80h-120q-18 0 -32 64l8 8h16l8 -8h8l8 8v8l8 -8h8l72 8q0 58 -144 72zM128 272l64 40q44 0 80 -48l-8 -40l8 -32h24l24 16h40 q0 -28 120 -64q104 -96 192 -96l16 -24l-64 -16v-120h-16l-8 8l-48 -16h-136l-16 16v104l-112 56q0 20 -120 128zM152 1496h32v8h-32v-8zM168 1096l8 8h8v-8l8 8h32l16 -16l-48 -32q-18 0 -24 40zM192 248h16l8 -8l16 16v8l-8 8h-16l-16 -16v-8zM248 984q140 120 168 120h56 l184 -176q6 -56 32 -56h16l8 8h8q224 -234 224 -440q0 -168 -40 -168q-72 18 -72 40v8h40v8q-96 0 -96 56q-18 18 -88 24q-24 110 -80 224v8q28 40 64 40l-32 40v8q0 12 32 24l-16 80l16 16l-40 40v8l8 8v8l-72 48q-144 -22 -144 -64h-8q-14 0 -24 72l-32 16l-40 -32 q0 -68 72 -104v-8l-8 -8h-8q-128 126 -128 152zM344 1680l80 -8h32v8l-88 8h-24v-8zM480 1600l72 -8v16h-56l-8 8h-8v-16zM496 1688l8 8h8l8 -8h8v16l-8 8v8l-24 -8v-24zM656 1416q168 54 168 88v24h8l8 -8l8 8h32q30 0 56 -160l-8 -8h-24q-16 0 -16 32l-112 40l-64 -64 l56 -16h56v-16h-8l-144 -16v16q0 20 32 24v8q-48 6 -48 48zM664 1688l80 -32h8v8l-72 32h-16v-8zM672 1608l8 -24h56l16 16v16l-48 16zM888 240v16h8l16 -16l-8 -8h-8z" />
<glyph unicode="%" horiz-adv-x="1360" d="M80 1064v176q0 16 24 16v16q-24 0 -24 16v16l16 16h56l56 8l8 -8v-224q0 -48 48 -72h32q58 0 80 88l32 16q0 16 -32 16l-8 8v160q0 16 48 16v8q-48 0 -48 24v32h24l8 -8h8l16 16l16 -16h8l56 8l8 -8v-288l-16 -96h-8l-48 40h-24v-8l32 -96q-36 -32 -56 -32l-48 16h-24 q-32 -16 -32 -40q-136 26 -136 64q-50 0 -72 120zM80 1352v8l32 32l-32 48h16l8 -8l72 24v16l-24 8l-72 -16v40q0 24 72 24v8q-72 0 -72 24v32q0 112 96 176l56 -80q-56 -28 -56 -72l40 -24v-232q0 -16 -48 -24v8l-8 -8h-64zM120 1104l40 -8h16q-8 48 -24 48h-24v-8l8 -8v-8 zM160 -16q152 336 185 336t39 48l-8 40l16 16l-8 32l24 16h16v-16h56v8h-24v16h16l56 -56q-118 -288 -152 -288l-24 -8l-8 8h-8q-56 -20 -56 -56q18 -44 56 -64q-16 -48 -32 -48h-128zM224 1784q0 16 64 24q224 -32 224 -224v-64l-16 -16l-56 16l-72 -8v56l-16 88 q32 16 32 48q-40 -22 -40 -48q-88 0 -88 64q0 28 -32 64zM368 1440l8 8h72l56 8l8 -8v-24l-56 -8v8l-8 -8q-80 8 -80 24zM368 1480v16h24l72 8l24 -8v-16h-120zM528 744l136 288l64 -16q16 36 32 40h24l40 -32q-18 -48 -32 -48l-72 24l-24 -8q0 -34 72 -56v-8 q0 -40 -120 -256h-8l8 -8v-8l-24 -24q-96 96 -96 112zM704 1088v24l16 16h8v-48zM744 1192q18 64 64 64h8v8l-32 8q48 144 104 144l128 24q0 -42 -24 -48h-56v-16h48q0 -50 -120 -248q-32 16 -32 40l-40 -8l-8 24l-24 -16q-16 0 -16 24zM840 200l8 8h8l8 -24h8v8l-32 64l8 8 l-8 40v56l16 16h112l16 -16v-32l-8 -88l8 -32h-8l8 -8v-8l-16 -16l-8 48h-8q0 -64 -40 -64q0 -24 -48 -48q-24 44 -24 88zM840 416v216q6 24 64 24h64l16 -16v-8l-8 -8l8 -8v-32l-8 -8l8 -8v-8l-8 -32l8 -32v-8q0 -16 -56 -16v-8q56 -6 56 -24l-8 -8h-8l8 -8v-8l-16 -16h-40 l-8 8l-8 -8h-48zM840 680v32q50 208 200 208l8 -8l8 8l8 -8v-8l-8 -8v-8h16l8 32q54 -6 112 -48l-8 -8v-16l8 8h16q72 -54 72 -184v-144l-16 -16q0 14 -56 48h-8v-8l48 -64v-8h-56l-56 -8l-8 200v56q-40 42 -40 72h-8q0 -32 -72 -32q-24 -26 -24 -72l-80 -16v8l-8 -8h-56z M872 96v16q72 26 104 56h16q0 -24 24 -24l8 -8v-8l-24 -120h-8q-52 0 -120 88zM880 296l16 -16h16l56 8v16h-32zM880 1336h40v8h-40v-8zM920 1528v16q0 44 32 56l40 -64v-16h-16zM1000 1696v8q0 46 48 96h120q16 0 16 -24l-64 -128q-40 0 -40 72v24h-8v-72h-48zM1048 0 q20 144 40 144l8 -8v-8h-16l8 -24q-6 -112 -24 -112l-8 8h-8zM1120 832h24v48h-16zM1128 256v184q0 16 72 24v-8l24 8l8 -8h8l8 8h8l24 -8l-8 -24l8 -40v-168q0 -88 -24 -88l-88 168l-8 8h-8l-8 -56h-16zM1160 688q24 0 24 -24h16l32 24l-8 48h-8l-8 -8l-8 8h-24l-16 -16 v-32z" />
<glyph unicode="&#x26;" horiz-adv-x="1184" d="M80 408v24q0 16 24 16v8h-24q20 176 80 176q0 14 40 24v-16h-16l8 -8v-8l-16 -16h-48v-16l8 8h8l64 -16l128 8v8l-88 8l16 32l112 -48q-48 -100 -48 -192v-56l-56 -16l-24 8q-8 -24 -48 -24v16q0 144 -24 144l-32 -168v-72l16 -16l40 72l8 -8h8q0 16 120 48h8 q0 -60 104 -96v-32h16q0 48 80 48l80 88q0 26 40 48q80 -40 184 -40l32 8q72 0 104 -48l-32 -8v-8h16v-8q-62 -46 -176 -72q8 -32 48 -32l128 16l8 -8h8l112 40l8 -8v-184q0 -16 -24 -16q-116 0 -296 136l-56 -56q-58 208 -112 208v-8l-8 -8q8 -100 56 -240 q-104 -56 -184 -56h-32q-270 0 -360 312zM128 1392q0 340 328 416l144 -8l48 -48l-40 -104v-8l88 80q184 -92 184 -272v-8q0 -184 -216 -416l-56 8h-232l-48 8l-8 -8h-8l-32 8l-8 -8h-8q-54 0 -104 192l8 24q-24 0 -24 16h8q-24 44 -24 128zM144 1472l56 -8l40 8v8h-96v-8z M168 1496h40v8h-40v-8zM184 200h32l16 16h-32zM216 680q0 26 24 56l-24 64l64 104v8l-32 96v8h72l72 -8l8 8l56 -8h192v-8q-58 -94 -80 -104l96 -200h-40l-8 8l-232 -32v-8q170 -6 184 -32l-8 -8h-8l-8 8l-40 -8h-64q-16 0 -16 24h-8q-16 0 -16 -24l-8 -8h-8l-8 8l-8 -8h-24 q-34 30 -128 64zM296 1680q6 -20 128 -112q-48 -78 -48 -152v-16q0 -62 72 -256q184 200 184 312q-22 152 -128 152l-64 -24q-28 0 -112 112l-8 -8h-8l-8 8h-8v-16zM328 736h32l24 24v16l-24 24l-32 -32v-32zM432 1744h40l80 8v16l-8 -8h-56l-56 -8v-8zM456 600l24 -16h8 l24 16h32q16 0 16 -24h8l48 32l-8 8v8q0 14 48 24l24 -8l24 8l56 -80h8q0 28 40 56h-16v16l16 16h56l56 8v-8l96 16q0 24 -192 24l-8 8l48 168q232 -52 232 -64v-8q-70 -304 -128 -304l-8 -8h-40l-80 8l-16 -16h-16l-24 16h-72v-8h16v-8l-8 -8v-8l200 -16l40 8l16 -16 q-16 -36 -32 -40l-136 8l-8 8l-8 -8h-32l-96 -8l8 56q-56 -52 -56 -88h-16q-144 188 -144 232zM496 1168q16 -80 32 -80h32l16 16v24q0 68 -48 96q-10 -56 -32 -56zM560 544l112 -72v-8h16v16zM600 1312l8 -32h24l40 -8q-14 40 -72 40zM648 1584l8 -8v-8l56 8v8h-64z M664 1496h32l104 32v16h-24l-112 -32v-16zM712 536h40v8h-40v-8zM744 1464l48 -8l8 8v8h-56v-8zM776 552h16l16 24h-8q0 -16 -24 -16v-8zM832 1400h32l-8 8v8l-24 -8v-8zM888 104h24v16l-24 -8v-8z" />
<glyph unicode="'" horiz-adv-x="392" d="M80 1928v72h144l40 -40l-8 -24l8 -8v-8l-8 -8l8 -88h8l8 40l-8 8v16q24 0 24 16t-24 16v16l16 16l24 -56l-24 -280l-32 -16l-40 8l-72 -8h-16q-22 0 -40 296l160 -8v8q-168 18 -168 32zM120 1784l136 -16l-24 24l-8 -8l-40 8h-64v-8zM240 1616l8 -8h8l8 56v40 q-18 0 -24 -88z" />
<glyph unicode="(" horiz-adv-x="680" d="M80 896v88q0 436 344 976h16q152 -66 152 -80q-264 -586 -264 -936l24 -200h-8l56 -240h-8q-280 110 -280 144l-24 152h8q16 0 16 -24h8v24zM128 576v24h8l64 -24v-16h-56zM136 536l16 16h72l184 -72v-16l-24 8h-16v-8q44 0 56 -32l-224 -72q-24 30 -24 72q26 16 80 16v8 h-24v16h24v8l-32 8l-72 -16v32l8 8v8q-24 0 -24 16zM208 320l224 72l32 -96q0 -32 -88 -48l-8 8l-24 -8q0 -24 -32 -24v-16l80 8l8 -8q0 40 72 40q22 -8 112 -256l16 -24q-122 -72 -152 -72h-24q-32 16 -32 48l64 32l32 -40v16h8l-8 8v24l24 32q-50 0 -72 48l-16 16v-8 l24 -64q-42 -32 -72 -32q-128 216 -128 264h56v8l-56 8q-30 22 -40 64zM264 1600h48v8h-48v-8zM320 488l24 -8h8v8l-24 8h-8v-8zM336 64h16q44 0 64 32v8q-80 -14 -80 -32v-8z" />
<glyph unicode=")" horiz-adv-x="680" d="M80 -24l40 80q56 -28 56 -40q-24 -48 -48 -48q0 -22 88 -56l-56 48v8q18 48 32 48l24 -8l-96 64q80 190 168 480l240 64h24q-28 -198 -200 -544l-144 72h-8v-8q124 -50 144 -88q-86 -168 -104 -168q-160 72 -160 96zM80 1872v8q140 80 168 80q352 -558 352 -1016l-8 -32 v-8q0 -254 -72 -256q-104 -4 -160 -48l-64 -8v8l48 280l-8 8v8l8 8l-8 8v8l8 24l-8 48l8 8q-72 508 -264 872zM304 280h8q30 24 104 24v8h-16v8l-8 -8h-8l-8 8q-72 -24 -72 -40zM392 488h16l40 16v8h-16l-40 -16v-8zM408 768h8l32 8v8h-16l-24 -8v-8zM408 1000l56 -8l48 8 l-16 16h-48l-40 -8v-8zM512 736h8l16 40v8h-8l-16 -40v-8z" />
<glyph unicode="*" horiz-adv-x="832" d="M80 1416v8l24 24v8h8l32 -16v-32l-16 -16q-48 8 -48 24zM96 1472q16 72 32 72q40 -24 40 -56h-8l-40 8l-8 -24h-16zM216 1168v48l8 8v8l88 -24v8l-96 88l32 24v-16h8q128 0 128 40q-14 14 -96 24l-24 -8v8q0 42 24 72l40 -16q92 48 128 48q128 -14 128 -56l-8 -24l24 16 l8 -8h8q0 40 16 40h16l8 -8l80 16l16 -24l-24 -8l-24 8v-8q0 -44 -176 -64l-8 -8l-8 -24h-8l8 -8l-8 -40q64 -90 64 -112h-8q-110 0 -144 88l-8 8q-22 -54 -48 -72l-8 8l-16 -16l-8 8h-8q0 -16 -24 -16l-8 8h-8l-48 -16h-16zM536 1304q106 0 152 -80l-56 -48h-16 q-2 38 -80 128z" />
<glyph unicode="+" horiz-adv-x="1056" d="M80 768v56q0 16 72 24l8 -8h8l24 8l8 -8v-8l-72 -72l-8 8l-16 -16h-8zM80 928v8l16 16l8 -8v-16h-24zM184 928v24h88l16 -16v-8q0 -26 -32 -24q-72 2 -72 24zM232 768l8 8h8l40 -8l8 8v8l88 -16v-16h-16l-8 8l-8 -8h-24l-8 8l-8 -8h-16l-8 8l-8 -8h-8l-8 8l-8 -8h-8z M408 752v8l120 128l56 -8h48l8 -8h8v8l-56 64l24 24h8v-16h168l56 -16v16h40l88 -88v-48l-8 -8l8 -8v-24l-24 -24h-16l-8 8l-8 -8h-40l-8 8l-8 -8h-8l-8 8h-8l-48 -8v32h-24q0 -32 -24 -32v8l-8 -8h-16l-8 8h-8l16 112l-16 64l-24 -24v-112q0 -42 -24 -48v8l-32 -8v-296 l-112 32l-72 -8v-16l-16 16v272h-16zM424 1144v112l8 40h72l8 -8l8 8h24l56 -56l-144 -144h-8q-24 8 -24 48zM432 408v16h8l128 16v-16l-56 -16h-80zM576 408v16l32 8l8 -8v-16h-40zM760 800l56 -8l8 8v8h-64v-8z" />
<glyph unicode="," horiz-adv-x="424" d="M80 164v16l8 8l-8 8v16h72l16 -16l8 8l104 -16l24 8v8l-40 8v16h24v8h-32v16h72l16 -16v-248l-16 -16q-10 22 -72 56v96l-8 56h-8q0 -40 -16 -40h-64l-16 16v40l-32 8q-10 -40 -24 -40h-8zM136 60v48q0 12 32 24l8 -8l40 8h16v-16q0 -18 -40 -24l-8 8q0 -24 -32 -40h-16z M136 -196l64 208l40 8q0 -40 16 -40v16h16q30 -24 56 -24q-36 -120 -88 -184h-88zM264 68h56v8h-56v-8z" />
<glyph unicode="-" horiz-adv-x="936" d="M80 812v96q16 32 48 32v8h-8l-32 -16l-8 8v32l16 16h136v-16h-16v-24l8 -8l24 -8v-8q88 8 152 40v-112l8 -40l8 8l8 24h8l-8 8v8l8 8l-8 8v56q0 40 16 40l24 -8v8l16 16h360l16 -16v-240l-16 -16h-120l-8 8h-8l8 40v24l-16 136h-8l-8 -80l8 -120l-8 -8h-496q-16 0 -24 56 l8 8q-88 0 -88 32zM328 836h32v8h-32v-8zM680 932h8q56 0 88 -16l64 8v8l-88 24l-72 -8v-16zM720 756q12 -32 24 -32l16 72l-8 24q-24 -4 -24 -64h-8z" />
<glyph unicode="." horiz-adv-x="424" d="M80 4v72l16 16h120v-16h48l16 -16h-8l8 -8v-8q-4 -24 -56 -24v-8q56 -2 56 -16l8 8h48v-16h-240zM80 116l8 8v8l8 -8h136v-16l-136 -8zM80 156v24l16 16l8 -8l8 8h112l16 -16v-24l-16 -24l-8 8h-120zM80 220v16l16 16h24l24 -16l16 16h64l16 -16v-16l-16 -16v8l-8 -8h-24 l-8 8l-8 -8h-16l-8 8l-8 -8h-48zM248 124l8 8l-8 40v8l16 24l-16 16q12 32 24 32h56l16 -16v-48l-8 -8l8 -8v-56q0 -16 -24 -16q-72 2 -72 24zM288 44l8 8h32l16 -16l-8 -8h-32z" />
<glyph unicode="/" horiz-adv-x="1088" d="M80 -60q0 44 32 56h152v-8l-48 -48h-136zM128 60l56 160q88 -10 88 -24l8 8h96l8 -8h8q-56 -160 -80 -160l-32 8l-32 -8l-16 16h-88l-8 8h-8zM192 228v32h16l32 -32h-48zM264 428q504 1344 536 1400h24l8 -8l8 8h48l8 -8l8 8h56l8 -8l8 8h16l16 -16l-592 -1544h-8 q-144 144 -144 160z" />
<glyph unicode="0" horiz-adv-x="984" d="M80 364v32l128 64q0 18 80 32q0 24 -120 24l-40 16l-32 -8l-16 16v96l16 16l16 -16h56l144 16l24 -32v-48h-16l-8 8l-72 -24v-24h40l56 16v-56l-16 -24q18 -18 24 -120l-8 -8q76 -88 128 -88h64q0 -104 80 -152h24l8 40q0 74 -96 88l-16 32l64 32l8 -8h8l-8 8v16 q32 36 32 112v32h8l176 -96v-8q0 -18 -72 -24q-54 -24 -72 -48v-16h16l32 8l24 -8q0 18 120 56h8l24 -16q-116 -320 -384 -320h-40q-248 0 -376 288zM80 708v216q0 16 24 16v8q-24 0 -24 16v80l16 16l16 -16q60 30 64 48v16l-16 16h-16q-26 0 -56 -24h-8v264q26 200 88 200 q0 62 144 144l8 8h8l8 -8v-16l-16 -16l-16 16v-8q0 -40 80 -136h16q0 86 -48 136q16 64 120 64h72l40 -40l32 24q40 -10 40 -24l-8 -8v-8q80 0 80 -24v-48l8 -56l8 8h8l24 -16q32 0 32 32h16q80 -128 80 -224l-24 -32q-68 0 -168 128l-56 56q48 56 48 96h-16l-64 -56h-8 l-160 160l-80 -8l208 -216v-16l-16 -16q-40 24 -80 24h-8q-136 -20 -136 -136l-8 -8h-96v-24l16 -16h40l40 8v-536l-16 -16l-8 8l-64 -24q0 -20 80 -24l8 -8v-8l-8 -8v-8l-80 24h-80l-80 -8zM144 1300l8 -48q26 20 56 152l-8 8v48h-8q-34 -6 -48 -120l8 -8v-24zM176 1236 l16 -16h56l16 16l-8 8h-40zM328 172h8v40h-8v-40zM368 116h8v48h-8v-48zM592 1436v16l16 16q144 -112 144 -208q24 -78 64 -120v-8h-24l-40 -8l-8 8q0 -24 -32 -24v-8q52 -32 112 -32l80 16v-72h-8l-24 24l-8 -8h-8l-64 24v-72l-40 8l16 -72l-8 -8h-64l-56 -8l-8 8v432 q0 52 -40 96zM632 492v72l8 8l-8 8v72l16 24l-16 48v64q0 16 24 16v8q-24 0 -24 16v16q0 24 80 32v-8l8 8l40 -8l24 8l8 -8q0 16 24 16l-8 8q8 64 24 64l72 -48v-384l-8 -8v-8q-40 16 -120 16l-80 -16v-8l56 -16h152v-120l-24 -24q-220 120 -248 152zM664 940h40v8h-40v-8z M752 692l72 8q0 20 -32 24l-40 -8v-24zM832 1132l16 64h8l40 -40l-24 -24h-40z" />
<glyph unicode="1" horiz-adv-x="648" d="M80 1404v88q6 18 112 48l40 24l8 -8v-32q0 -18 -40 -24v8l-8 -8h-48v-16q32 0 32 -16l-72 -72zM264 1572v8l24 24l16 -16l-16 -16h-24zM296 12l24 24l48 -24v-16h-56zM296 100v88l16 16l192 -200l-8 -8h-48l-104 48v16l16 16l-8 8v48h-8l-40 -32h-8zM296 244v480l16 16 q256 -254 256 -280l-8 -8l8 -40v-16l-16 -16l-144 32q-62 -56 -80 -56v-8l120 -104q0 -72 16 -72v16h8l-8 8v24l8 8v8l96 -64v-160l-16 -16h-8zM296 868v96q0 16 32 16v8q-32 0 -32 16v120l16 16q144 0 144 24q-26 16 -104 16v8l-8 -8h-32l-16 16v40l16 16h8l24 -8l32 8 q120 -4 120 -16l8 8h48l16 -16v-96l-8 -48l8 -40v-32q-6 -18 -128 -88l-56 -48v-32q42 40 112 40l-16 24l80 48l8 -8v-16l-8 -8l8 -8v-40l-8 -8l8 -8v-72l-8 -32l8 -8v-8l-8 -8l8 -56v-80l-16 -16l-64 72v8q24 0 24 16v8h-56q-128 106 -128 160q-32 0 -32 24zM400 1588 q56 56 88 56h16v-56h16v-8l-8 -8l8 -24l-8 -32q10 -32 56 -80v-8l-8 -8l8 -40v-32q0 -16 -64 -24l-8 8h-8l-24 -8l-8 8v8l24 72l-16 16v16l8 8v8q-16 0 -16 40l-8 8h-8l8 40v8q-34 0 -48 32zM472 1708v16h64v-16l-8 8h-8l-24 -24q0 16 -24 16zM520 1620v8l16 16l16 -16 l-24 -16zM552 500v56l8 -8h8l-8 -48h-8z" />
<glyph unicode="2" horiz-adv-x="1000" d="M80 12v24h16l32 -32v-8h-32zM88 1220v8l8 8v8l24 -8l64 8v8q-32 0 -32 16t32 16v8q-24 0 -24 16h-48l-24 16q0 186 208 352l40 8q34 0 216 -200v-8h-64q-84 0 -128 -128h-16q0 32 -24 32q-48 -16 -48 -32q12 -32 64 -32v-16q-110 -72 -144 -72q0 -28 -32 -40h-16z M120 292v16l80 112h16v-8l-8 -8l16 -88h24l8 56h16q0 -42 56 -88v-56l-16 -16l-24 48h-8v-8l8 -48v-8l-16 -16l-128 120l-8 -8h-16zM216 1412l16 -16h40l-8 8v8l24 40l-24 16h-8l8 -8v-8q-32 -10 -48 -40zM240 1188v16l40 8h48l16 -16l-8 -8h-96zM248 492l8 8h16l8 -8l8 8 h56l8 -8h8l16 16h40l16 -16l-8 -8l48 -8l40 24h8l24 -16q-56 -98 -72 -104h-8l-8 8h-8l-8 -56h-8q-52 58 -120 88l-48 -16q-16 32 -16 88zM312 580q32 62 64 80l96 -104v-16h-8zM408 436h16l8 32h-16zM440 756v8l48 64h8l8 -8h8l8 24l8 -8h8l32 8l8 -24q96 20 96 80 q-28 32 -56 32l-64 -16l48 120h56v24h72l32 -8q104 16 104 32v16h-40v16h40l-24 40v8h16l-8 8v8l16 16h32q24 0 24 -32q0 -78 -56 -136l8 -8q0 -76 -88 -128v-8h16q-36 -136 -128 -136h-8v-8l32 -8l8 8l8 -8q-46 -84 -88 -120h-40l-104 104v8h32v8q-72 0 -72 24zM544 244v16 h176v-16q-24 0 -24 -16q46 -72 80 -72l64 40l72 -80v-104l-16 -16h-32q-54 62 -64 104q-24 0 -40 24q-72 0 -152 80zM664 1356l8 8h8l96 -104l-96 -32l-8 8v8l8 40z" />
<glyph unicode="3" horiz-adv-x="992" d="M80 356v72l16 16h48l16 -16v-216h-16q0 74 -56 112zM208 100l8 8h8l32 -16v8l-8 56l128 128h8q48 -32 144 -40v-8l-8 -8v-8l-128 24q-32 -10 -48 -40v-8l24 -32v-8h-24l-24 8v-8l-16 -32l8 -8v-32h-16v-16l16 -24l-8 -8v-8q-84 40 -96 72zM216 1516v96l48 48l96 -80v-8 q-112 -14 -112 -40v-16q0 -14 48 -24q40 0 112 56l56 -48q-36 -40 -56 -40l-40 16l-8 -8v-8q0 -16 40 -16v-24l-16 -24l-40 16h-8v-8q32 0 48 -32v-24l-48 -48h-88l-8 -8h-8l-8 8zM248 220v128q28 22 40 88h-16l-8 -8h-8l-8 8v8l80 16l32 -152l-104 -96zM288 1484l16 -16h40 v16h-56zM312 52v16q0 16 80 32v-8l-56 -56q0 16 -24 16zM384 28v16q0 56 96 56q0 -16 40 -16l8 -8v-80l-16 -16h-16v8l8 8q0 38 -64 64l-24 -8v-8l48 -56v-8h-8q-58 0 -72 48zM384 796v112q0 16 48 16v8q-48 0 -48 16v40q0 48 92 64q116 20 140 40q16 0 16 -24 q0 -26 -32 -72v-32l16 -24v-8l-32 -40v-8l24 16l16 -16l-8 -8l24 -40l-16 -16h8l8 8h8l8 -8v-8q0 -32 -64 -96l-40 32v184l-8 56h-8l-8 -48l8 -8v-8l-8 -8l8 -8v-112l-8 -8l8 -8v-8l-8 -8v-8q-144 20 -144 40zM408 1724v16l72 8l8 -8v-8l-40 -16zM416 116v8l8 40h32v-8z M464 860l16 -16h32v16h-48zM464 1636l8 40l-8 32h8l16 -16v-24l-8 -8v-8l120 -40v-16q-34 0 -64 -24zM552 -4v64l8 8v8l40 -24l8 8l32 -48q0 -24 -80 -24zM608 1508v16h40l8 -8h8l16 32l-24 40v8l40 -8q52 0 96 48q120 -124 120 -288l-8 -8v-8l8 -48l-8 -8h-8q0 16 -24 16 l-8 8v8l24 8v8l-8 8v8l8 8l-72 24q0 -18 56 -24v-16h-16q-72 8 -72 72l-40 -8l-88 80h8l112 -32h8q-34 48 -64 56l-40 -8zM656 20v8l136 128l24 -24v-8q-82 -90 -152 -112zM656 372l8 8v56h16l16 -40l-32 -32zM664 1236l16 24l-8 8v48l16 16l48 -48v-8l-40 -8l16 -48v-8h-24 zM696 436l8 8l24 -8v-8l-16 -16zM816 172v8l80 80v-8q-32 -104 -64 -104z" />
<glyph unicode="4" horiz-adv-x="920" d="M80 388v32l8 8l-8 8v16q56 72 80 72l48 -56q-36 -16 -40 -32v-40l56 -8h24v-16h-152zM192 540v8q60 -10 64 -32v-32h-8zM240 1012q122 314 176 320q0 14 120 120h8q0 -16 88 -104q0 -16 -40 -16q0 -44 -192 -216l-24 16h-8q0 -74 -104 -152q-20 0 -24 32zM264 372v8 l16 16l8 -8v-8l-8 -8h-16zM272 580l24 16l104 -32q0 -48 -40 -48v-8h16v-24l-32 -16h-8v8l8 8v8q-46 26 -64 56h16zM280 652v8l88 88h8l-40 -112h72l8 -8h8q-18 -48 -32 -48zM416 1396v8q56 184 80 184h32l8 -40v-40l-24 -24h-8v16h-24l-8 -32l8 -24l-56 -48h-8zM496 1620 q0 48 64 48l8 8v8q0 16 -24 16l-8 8v8l8 8h200v-8l-136 -136h-8l-56 48l-8 -32h-16zM544 764v64l8 8v8l56 -8h64v-48l8 -40h-8l8 -24l-8 -8v-8l8 -32l-16 -16zM544 876v48l96 96h16l16 -16v-136l-16 -16h-88zM552 372h8l8 -8h8q12 136 48 136h8l48 -32v-40q0 -80 -112 -80z M560 12l48 48q36 -14 64 -56l-8 -8h-88zM616 564v8h8l24 -8v-16h-16zM632 1548q152 168 168 168h8v-184h-16q-6 48 -48 48v-8q0 -32 -24 -32q0 16 -24 16t-24 -40h-8zM640 508v8h24l16 -16l-16 -16zM648 1444v8h16l8 -48h-16zM704 28v16q16 32 40 32v24q-40 6 -40 24v40 l24 24l24 -16q0 78 48 96l8 -8v-248l-16 -16h-56zM704 636v104l16 24l-16 16v32l8 24l-8 40v96h56l40 32l8 -8v-352q-32 -48 -64 -48zM704 1076q12 38 96 104l8 -8v-120l-16 -16l-16 16l-32 -8q-36 16 -40 32zM792 396q0 18 40 24l8 -8v-8l-24 -24h-8z" />
<glyph unicode="5" horiz-adv-x="976" d="M80 420l32 24l8 -8l8 8h16v-16q-32 0 -32 -16l176 -8h40q18 0 40 -96q50 -56 96 -56h8l96 16l24 -8l72 8h8l40 -8q0 30 88 48l-16 16l8 8v16q-112 32 -112 64v16h8l8 -8l48 8v8q-120 0 -120 32l16 16h144l16 -16h-8l8 -8v-8l-8 -8l8 -24h24l64 72h8v-64q0 -208 -56 -208 l8 -8v-8q-44 -96 -168 -176q-50 -32 -96 -32q-16 0 -16 24h-8q0 -40 -16 -40h-48q-16 0 -16 24h-8q0 -24 -24 -24q-120 0 -232 104q32 12 32 24q-16 16 -72 16l-24 32q0 16 24 16l8 8v8q-96 0 -96 168zM112 980v8l8 8v8l8 -8h8q40 22 40 64l-64 48v592l16 16h8l16 -16 q-6 -104 -24 -104q80 -160 112 -160l48 -8h40l40 8l8 -8v-232l-16 -16l-40 8h-16v-8q40 0 40 -16q-16 -48 -80 -48v-8l8 -24l-136 -128zM184 908v16q154 166 208 200l56 -8h48l80 8v8h-160v8q14 24 104 56h56q160 0 240 -112q0 -42 -40 -64h-32l-8 8l-88 -24v-8 q144 0 144 -24v-104l-16 -16h-40l-32 8l-32 -8q-56 34 -80 88q-40 40 -104 40q-90 0 -112 -136v-48l-16 -16h-48zM216 1284q0 -16 80 -32h8v8l-72 24h-16zM256 132l16 -16l112 16v16h-80zM272 316l16 -16h16v40l-16 16h-16v-40zM280 60h16q52 20 56 40h-16q-56 -28 -56 -40z M336 204h72v16h-8l-24 -8v8l-40 -8v-8zM360 100l16 -16h48v16h-64zM392 1460v16q64 8 64 64h8l56 -8l-40 56v8l32 48l-8 8h-8q18 72 32 72h256v-8l-96 -128h8q82 118 112 136h48l16 -16q-64 -114 -64 -168h8l56 16v-80l-16 -16h-248l-8 8l-8 -8h-200zM608 1484h8l56 80h-8z M624 524v16l8 8l-8 8v72l16 16h56q0 24 24 24l-16 16h-48v-16h-16l-16 16v8q0 24 184 24v8h-176l-8 8v32l8 8l-8 8v32q0 14 24 16l136 8v-8l-16 -48l8 -8l8 8h16v-40h8q58 166 72 168h8v-80l-88 -240h-112v-8h112l8 -8v-8l-16 -72l-40 8h-104zM656 204h40v8h-40v-8zM696 940 h72v8h-72v-8zM792 204h32v8h-32v-8z" />
<glyph unicode="6" horiz-adv-x="952" d="M80 380v344l16 16l96 -8l144 8l8 -8v-8l-8 -8l8 -8v-40q0 -24 -104 -24l-8 8l-8 -8h-8l-8 8l-40 -8v-8l40 -8h88l40 8l8 -8v-200q0 -16 -48 -16q0 -14 48 -32l16 -72q-48 -16 -48 -32v-32q120 0 120 -80l-8 -24q56 10 56 24v56h16l24 -40v-8h8l8 24l-8 8v8l16 40h-16 l-24 -16h-16v16q104 22 104 152l16 16q66 -30 208 -48l48 -40v-8q0 -16 -32 -16l-8 -8v-8q24 0 24 -32q-106 -280 -368 -280h-72v56h-8v-24l-80 24q0 -18 40 -24v-16q-192 82 -192 144l8 24h-8l-8 -8h-8q-72 100 -72 224zM80 772v8q0 16 80 16v8q-80 0 -80 16v520 q0 286 288 392l40 8l-8 -56l8 8h8l24 -8v8q12 56 32 56h56q14 0 24 -72l-8 -32l8 -40q16 0 40 120h8q120 0 240 -232q0 -44 32 -144h-8l-32 24l-8 -8l-40 8h-8l-40 -16v-24l72 -8l40 8v-16l-24 -24h-160l-32 8l-32 -8q0 192 -136 192q-96 0 -128 -128l8 -8v-344q58 48 88 48 h8v-8q-106 -72 -144 -72l-8 8v8l16 16l-96 48l-8 -8v-16q0 -38 56 -96l-32 -16v-24h72q40 0 40 -16l8 8h88v-16h-40l-80 -8v-8q88 0 88 -16l-24 -16h-152l16 -16h120l-16 -48l-40 8h-120l-40 -8v8l-8 -8h-40zM144 1308l24 -24h24q32 14 32 56l-40 -16l-32 8h-8v-24z M144 1380h8l24 -16l64 128l-8 40h-24q-36 -48 -56 -48l8 -8v-8zM192 132h8l48 40h-8zM240 132q48 -8 48 -24v-8l-8 -8v-8h8l24 24l8 -8h16v8q-16 0 -16 32h-8v-16h-8l-56 16h-8v-8zM464 1060l8 8h40l-24 -24h-8zM544 836v16l24 24h16l16 -16q72 8 160 48v-8q32 0 32 32h8 l16 -16q-18 0 -40 -72l48 48h8l8 -40q0 -36 -80 -104q0 -24 -16 -24l-8 8l-8 -8h-120q-18 0 -24 56zM592 628v80h200v-16q-80 0 -160 -56zM600 196q14 -136 48 -136h16q24 8 24 48v16q0 120 -64 120zM648 1508l32 -8l24 8v24h-40l-16 -16v-8zM784 732v8l64 72h8l8 -80 l-24 -8zM792 1500h8l8 32v8h-8l-8 -32v-8zM816 692v16h40v-16h-40z" />
<glyph unicode="7" horiz-adv-x="944" d="M80 1476v232l16 16h120q0 -16 24 -16q0 -70 144 -240l-8 -8h-104l-24 16h-40l-24 -16h-88zM88 1668q20 -48 72 -48q32 8 32 48q-30 24 -56 24q-24 0 -48 -24zM248 -4v8q8 88 32 88q52 -24 152 -40h8v8q-168 40 -168 64l32 120h8q10 0 32 -80q80 0 80 -48l8 -40h48l24 24 v8l-40 40q16 36 32 40l40 -16q-22 -176 -48 -176l-8 8l-56 -8h-176zM384 1716l8 8h280v-16h-16v-8q34 0 56 -48v-8q-48 0 -48 -16v-16h8l8 8h8l8 -8v-8l-32 -8l16 -16l40 40h8l8 -8q40 -18 40 -56l8 8q48 -6 48 -16l8 8h8l16 -16v-56q0 -46 -64 -288h-16q-108 164 -176 224 l-8 32l8 8q-40 2 -136 144v16h16v8l-80 56zM400 628q0 96 64 96v24q-32 0 -32 24l8 8h8q88 0 88 -120q24 -18 24 -40h8q0 24 16 24q24 0 24 -32l8 8h8l24 -40q-26 -128 -56 -128q-72 32 -88 56l24 24l48 -8h32v8q-72 0 -72 24v8q0 16 32 16v8q-22 0 -56 40l-48 8h-8z M440 804l48 144l-8 8v8q14 56 32 56l64 -88q-24 -18 -24 -56q-40 -24 -40 -56l8 -8l-8 -8h-8v8l-56 -16zM496 1644h56l16 16v8h-16l-56 -8v-16zM504 1052q16 120 56 120l56 8l136 -192l-8 -8q-48 32 -80 32v-8q0 -22 -72 -48zM544 1212v8l24 24l16 -48h-24zM568 1140l40 -8 h16l-16 16h-40v-8z" />
<glyph unicode="8" horiz-adv-x="1008" d="M80 396v8l16 16l8 -8v-8h-8q12 -32 40 -48l120 48l48 -64q-98 -54 -104 -80h8q42 0 112 56q104 -108 104 -136q-28 -64 -40 -64l-72 8h-16v-8l80 -16l-8 -56v-16h-24l-120 160l8 8l24 -8l40 8l56 -8v16q-64 0 -88 24l-8 -8h-8l-32 16l-8 -8h-8q-120 126 -120 168zM80 556 v56h8q30 -18 56 -64v-8h-48zM88 300l8 8h8l216 -280v-8h-8q-106 48 -168 160q-26 0 -56 120zM96 1204h8l-8 8v112q0 266 208 384h24q0 -52 72 -152h16v24q0 78 -40 112l-8 -8h-8l-24 24q8 24 48 24q64 -40 256 -216l-40 -48q-42 32 -72 32h-48q-58 0 -112 -56l-8 8h-8 l-24 -8v-24l16 -16l-8 -96v-24q0 -240 160 -240l104 24v-208q0 -16 -24 -16l-8 -8v-8q32 0 32 -16v-8l-48 -48l-24 48h-16l-16 -16l8 -40q-138 0 -160 -176v-8h-16l-176 224q10 26 128 128l8 40l-48 48h-16v-8l24 -56h-8q-86 72 -88 112h8l32 -8q0 32 48 32q80 42 80 64 l-32 -8l-72 8q-72 -12 -72 -72q-24 0 -48 136zM160 1388l56 -8l40 8v8h-96v-8zM184 1316q0 -24 72 -24h8v8l-72 16h-8zM240 1348h88l-16 16h-72v-16zM344 796l8 -8h8q34 80 80 80l32 -8l8 8v8q0 18 -64 40v8l16 88l-8 32h-16v-8l8 -56q-72 -86 -72 -184zM392 -12 q26 96 48 96q12 0 40 -80l-24 -24zM432 100v24h16v-24h-16zM432 764h8l40 8v16h-48v-24zM440 1740l8 8h72q170 0 256 -104v-8l-8 -8l8 -32h48q72 -98 72 -168l-8 -8l16 -16v-48h-8q-16 0 -192 160q48 34 48 72l-8 8l-72 -48h-8zM520 932l16 -16h32v24l-16 16q0 -24 -16 -24 l-8 8h-8v-8zM552 1652h64v16l-40 8h-8l-16 -16v-8zM560 748l32 32l8 -8v-32l-16 -16zM576 244v24l16 16h16l8 -8l8 8h8q102 -80 128 -80h8v16q-16 0 -104 80l80 16l56 -72h8q42 0 48 24v24q0 12 -64 40v-16h-16q8 72 24 72h104q-12 96 -40 96l-16 -16l16 -56h-72l-16 16v16 l88 88l8 -8h8v32h8l40 -48v-88q-24 -264 -96 -264q0 -50 -96 -112q-34 26 -160 200zM592 1708l16 -16h48v16l-24 8zM608 700q8 136 48 136l8 -8v-8l-8 -8v-8q24 0 24 -16q56 8 56 24v32q-32 0 -32 24l-8 -8h-16l40 40h16q56 -30 56 -72v-64h32l24 16q24 0 56 -104v-8h-16 l16 -24q-138 -160 -184 -160l-8 -8q0 -24 -16 -24h-8q-36 0 -40 184zM616 828v208h16l104 -104l-104 -104h-16zM624 1084v16q52 80 48 168t-48 192l48 32l232 -200l-16 -16h-24q0 22 -48 32l-32 -8v-16q120 -20 120 -32q0 -98 -32 -184h-16l-8 8l-8 -8h-8l-136 56h-8v-8 q12 -36 104 -104v-32h-16l-8 8l-40 -16zM744 636h40v8h-40v-8z" />
<glyph unicode="9" horiz-adv-x="952" d="M80 356l8 8h8l8 -8h8q64 8 64 24q0 18 -96 32v8l16 16h72l96 -64q-20 0 -40 -24q-40 0 -40 -48h-40v-8q28 0 32 -56l-16 -16l24 -24l-8 -8v-8l8 -48v-16q-14 0 -48 56l16 16q-56 0 -72 168zM80 996q34 32 80 32l208 -176v-8l-40 -80v-104h-8q-128 0 -216 216l-8 40v16 l88 -16l32 8q-8 24 -48 24h-80zM80 1156v24q6 24 64 24h32q0 18 56 64v16q-72 12 -72 24l-8 -8h-8l-8 8l-8 -8h-24v8q86 112 160 112h16v16l-8 40l80 80h-8l-120 -120l-112 -104l-24 -16l-8 8v56l40 56v8q-24 0 -24 16l8 8h8l-8 8v8q114 264 368 264h48l16 -16l-40 -40v-8h8 l48 56q104 0 232 -152l-16 -24q56 0 56 -48q24 0 48 -184h-8l8 -8v-16l-8 -32l8 -24l-8 -8h-24q-110 32 -160 32h-48q-20 0 -24 32l8 8v8l-32 104q-48 48 -104 48h-16q-112 0 -112 -176v-40q-20 -32 -168 -64l-24 -32l72 -8q64 14 64 32q56 -8 56 -24v-72h-16l8 8v8h-8 l-104 -8l-72 8l-32 -8zM88 1164q0 -24 80 -24q-4 24 -64 24h-16zM184 108v8l40 -32l8 8h16l16 -16v-32h-8zM224 804l16 -16h40v16h-56zM232 836l8 -8h24v32l-16 16v-8l8 -24l-8 -8h-8v16h-8v-16zM272 28v8q6 40 24 40h8l16 -16q-16 -32 -48 -32zM272 1260l40 -8l8 8v8h-48 v-8zM280 980v8h48l8 8h8q40 -112 112 -136v-24h-8zM344 -4v48h16v-24h8l8 48l56 -16q0 64 72 64q8 -40 72 -40l40 -56v-16l-120 -24h-32zM360 1676l16 -16h56l16 16l-24 16h-64v-16zM368 1564l120 104v16l-120 -104v-16zM376 740l24 72q42 0 96 -72v-8l-8 -32l16 -32 l-48 -16zM496 236v8q48 0 104 72h16l-16 24q0 48 64 48q32 0 32 16v8l-40 48v8l96 8h40v-8q-160 -182 -160 -232l-8 -32l-88 16v-16h-24zM584 76l40 32l16 -80l-8 -8h-8zM608 1060q0 16 64 24l32 -8h24v-16l80 8l16 -16l-8 -8v-8q36 0 56 -32v-48l-8 -8l8 -8v-16l-8 -8l8 -8 v-104l-8 -8l8 -8v-104l-8 -48l8 -40q0 -62 -40 -80q-36 14 -64 56q0 16 24 16l-8 8v24l16 24l-8 8l24 8l-16 32q0 32 48 32q0 12 -64 40v8l8 8v8q0 40 -32 40q-18 74 -112 168zM608 1108v16q0 18 72 24q50 -16 56 -40l-96 -16v8l-8 -8h-8zM616 1540h8l8 24h-8l-8 -8v-16z M704 508v24l16 16h8l40 -32v-8h-64zM712 252v32q0 42 128 160h8l24 -24q-8 -176 -48 -192h-8l-8 8l-8 -8h-64zM720 212h104q0 -44 -80 -120h-8v8zM784 1284l48 -16q0 16 24 16v16l-24 8q-48 -10 -48 -24zM816 1148v8l32 32v8h24v-8l-8 -8l8 -40v-8l-16 -16h-8q0 24 -24 24z " />
<glyph unicode=":" horiz-adv-x="432" d="M80 732l8 8v8l-8 8v8l8 8l-8 40v96l16 16h136l16 -16h-8l8 -8v-48l-16 -16l-16 48h-16l-24 -48l8 -8v-32q0 -16 -88 -16v-8h88l8 -8v-8l-40 -40h-56zM80 940v24l16 16h136l16 -16v-8l-16 -16h-24l-120 -8zM112 236l16 16l16 -16l-16 -16zM120 4v40q24 0 24 32v8h-8v-16 h-16v80l16 16l8 -32h8q0 32 16 32l-8 8v8l16 16h56l8 -8h8l-8 -8v-8l8 -48q0 -16 -72 -16v-8q72 0 72 -16l8 8h16l8 -8h8l-8 -40v-40q16 0 24 88h16v8q-64 8 -64 24v56l24 24h48q18 0 24 -56h-8l8 -8v-8l-8 -48l8 -24l-40 8v-8l40 -56l-16 -16h-200zM120 180v8l8 8h8l8 -8 v-8l-8 -8h-8zM160 236l16 16h56l16 -16v-8l-40 8h-32v-16zM224 804v8l8 8h8l8 -8v-8l-8 -8h-8zM248 716v8l24 24h8l8 -24l-8 -8h-32zM256 228v8l16 16h16l16 -32v-8h-8l-8 8l-8 -8h-8zM256 852v40l8 8l-8 8v8l8 8l-8 8v24l24 24h56l16 -16v-24q0 -42 -80 -104zM296 724v48 l48 48l8 -24l-8 -8v-8l8 -24h-8l8 -8v-8l-16 -16h-40z" />
<glyph unicode=";" horiz-adv-x="424" d="M80 740v168l16 16h128l16 -16v-16l-152 -152h-8zM80 948v16l16 16h40l16 -16v-8l-24 -24h-32zM112 4q50 80 152 80v-16h48l32 -32l-8 -8h-8l-32 8l-24 -8v-8h16v-8l-8 -8v-8q64 0 64 -16l-24 -24h-8l8 -8v-8l-24 -56h-8l-8 8h-8v-16h-16v88h8l24 -8v8q0 30 -120 64 q0 -12 64 -48l8 -8v-56l-8 -8l8 -8q-6 -112 -24 -112h-8l-8 8h-8l8 40v56h-8l-16 -64h-8q-16 0 -16 24l40 136h-64zM112 212v16l16 16l8 -8v-16l-16 -16zM120 716v8l88 88h24l8 -8h8l16 16h8v-8l-8 -8v-8l8 -8h8l-8 -8v-32l16 -16q0 64 24 64h24v8h-40v8l8 8v8q-48 8 -48 24 v8l80 88l8 -8v-208l-16 -16h-160l-24 16l-16 -16h-8zM136 -196l16 16l24 -24l-8 -8h-16zM160 956v8l16 16h64v-40h-64zM200 108q22 72 32 72q16 -6 72 -96l-8 -8h-16v16q-80 0 -80 16zM240 244l8 8h40l16 -16v-16l-8 -40h-8q-14 2 -48 64zM248 916q8 64 24 64h48v-8l-64 -64 zM312 188l24 24l8 -8v-32l-16 -16zM320 132l16 16l8 -8v-24h-8zM320 228v8l16 16l8 -8v-8l-16 -16z" />
<glyph unicode="&#x3c;" horiz-adv-x="1032" d="M80 776v168q50 48 112 48l16 -24l48 8l-16 40q62 40 248 112l8 -8v-8l-40 -128q24 0 24 32h16v-96q0 -12 -128 -56q0 -14 72 -40v-8l-8 -8l8 -8h-16l-8 8h-8v-8l16 -24l-64 -64v-8h8l56 40l56 -136v-16h-8q-382 164 -392 184zM328 888h64v16l-56 8l-8 -8v-16zM432 1008h8 v32h-8v-32zM480 768q12 32 24 32q24 0 24 -32h32q216 -72 216 -96l-144 -136l-16 16v8q40 0 40 56v16h-8q-44 0 -72 -48v-8l8 -8v-8l-8 -8h-8l-16 16l24 136h-8l-24 -16h-8l-16 16v64h-16l-8 -8h-8zM520 944v88h16l24 -64q-10 -40 -24 -40zM520 1136q0 14 352 152h8v-8 q-188 -312 -248 -312l-24 -8q0 92 -88 176zM688 512l152 144h8l24 -24q-30 -32 -64 -32l8 -40q-42 -88 -64 -88q-64 28 -64 40zM720 1016v8q96 116 96 144q94 152 128 152l8 -8v-8l-16 -48l16 -16v-8l-128 -184h-8l-8 8h-8q-10 -26 -72 -48zM824 1096h8l16 16v16l-16 16v-8 l8 -8v-8l-16 -16v-8zM856 456v40h8l24 -24l-24 -24zM856 1064v8l88 128l8 -8v-8q0 -88 -16 -88zM880 432q28 118 64 176h8v-144l-8 -8l8 -8v-8l-8 -8l8 -8v-24h-16q-42 0 -56 32z" />
<glyph unicode="=" horiz-adv-x="1048" d="M80 616l8 8h8l16 -16q0 22 96 104l16 -88l24 16l-8 8l8 40l-8 8v8l8 8v8l-8 8v8q14 36 56 64h136l16 -16l-8 -8v-8l8 -40h8l8 56l-8 8l8 8h488l16 -16v-24l-16 -24l16 -16v-24l-8 -8v-8l-64 16h-16q-16 0 -16 -24q-16 0 -16 24h-8q0 -32 -16 -32h-56l-16 16q6 48 24 48 h136l16 16q-176 14 -176 32v16h-8q0 -48 -88 -48v-8q64 -8 64 -24v-32l-16 -24q24 0 24 -32h16l8 24q72 -32 208 -32v-16h-400q-16 0 -32 136h-8l-8 -56v-64l-16 -16h-400zM80 664v120l16 16h104q0 -44 -112 -136h-8zM80 992l8 8h8l16 -16l96 104l16 -104l-8 -8h-120z M80 1040v120l16 16h120v-8l-128 -128h-8zM240 1000l8 8v8l-8 8v8l8 32l-8 24h8l-8 8v16l64 64h16l8 -8h8l-8 -96v-40l-8 -8l8 -8v-24l-16 -16h-56q-16 0 -16 24zM360 1024h8l-8 24l8 48l-8 64l16 16h216v-8q0 -20 -104 -24v-8l56 -8v-16q-24 0 -24 -24l-104 -96h-8v64h-8 q0 -80 -16 -80q-24 8 -24 48zM416 632h8l8 40v24h-16v-64zM480 992l24 16l8 -8v-8l-16 -16zM488 760l40 -8h72l56 8v8l-72 8l-96 -8v-8zM544 992v56q68 88 112 88l-8 8v8l24 24h64v-16q-20 -40 -80 -40v-8q24 0 24 -16v-8q-24 -30 -24 -56l56 48h8v-24l-16 -24v-8 q24 0 24 -24h16l8 24l80 -24v-8l-16 -16h-256zM752 1056v16q0 16 48 32q40 -4 40 -48l-24 -16h-48zM752 1136v8q12 32 24 32h176l16 -16v-88l-8 -8v-8l-72 16l-24 -8l-8 24l72 24v8q-70 8 -88 24l-16 -16q-32 8 -32 32h-8q0 -24 -16 -24h-16zM848 992h112v-16h-96z" />
<glyph unicode="&#x3e;" horiz-adv-x="1024" d="M80 400v24h8l16 -16l-16 -16zM80 464v136q48 44 192 88q24 -24 24 -56h24v-128q0 -24 -120 -56h-16l-72 16l-24 -8zM80 1112v40h16l8 -56h-8zM80 1264v40l16 16q126 -50 192 -96q-80 -80 -104 -80q-48 78 -48 120l-8 -8h-8zM144 560l16 -16h32l8 56l-40 8zM232 1064v24 l80 80l8 -8v-136q0 -16 -24 -16q-46 16 -64 56zM288 680v24h32v-8l-16 -16h-16zM328 504v120l16 16q82 -72 112 -72v-8q-78 -56 -120 -56h-8zM328 1008v176l24 24q220 -88 272 -128q-72 -68 -72 -144l8 -24q38 12 88 136l24 16q160 -54 160 -72q-48 0 -80 -104l-72 -104h8 l96 16h16q46 0 88 -32q24 30 24 56q-80 100 -80 160v8h8q104 -28 104 -48v-48l-8 -88l8 -48l-464 -200q-72 32 -72 88h16l24 -16v32l-16 16q-24 0 -24 -24l-32 40q14 0 72 72l208 80v16q-136 44 -136 66t-16 22l-16 -16l-136 56q-24 0 -24 16zM336 648v56l56 -72v-8h-8z M536 704l40 -88h8q0 30 24 64q0 64 -64 104l-8 -8v-16l8 -56h-8z" />
<glyph unicode="?" horiz-adv-x="984" d="M80 1376q0 184 192 328q66 38 192 56l8 -8l32 8q180 -18 200 -56v-8q-76 0 -96 -104v-48l16 -24q176 36 176 96h8q96 -116 96 -296q0 -262 -256 -512l-88 232h8q50 -36 160 -64l24 32l-8 8v8l8 24q-98 144 -136 144v40q18 48 96 48v8q-88 8 -88 32v56q-22 144 -136 144 q-124 0 -160 -208h-8q-144 22 -144 40l-16 32q10 88 24 88l-8 8v8l8 8v8l-24 24q-30 0 -48 -80v-80l-16 -16q-16 0 -16 24zM304 16v176l16 16h128l16 -16v-56q0 -16 -40 -16l-8 -8v-8l48 -8l72 8v8q-56 6 -56 24v64l8 8l-8 8v32l16 16h56l16 -16v-232l-16 -16h-232zM304 232 v16l16 16h24l24 -16l16 16h72l16 -16v-8l-24 -24l-8 8l-8 -8h-24l-8 8l-8 -8h-72zM304 456v104q0 226 96 304q0 28 104 128h8v-112l-8 -8l8 -8v-8l-8 -48l8 -32h-8l8 -8v-8l-8 -8l8 -24l-8 -8q16 -72 16 -192v-72l-16 -16h-8l-24 16l-16 -16h-72v8l24 32v8q-16 16 -16 64h-8 q0 -48 -32 -48l-32 -8v-16q24 0 40 -32v-8h-40zM352 1632l8 -48h32v40l8 8q-10 48 -24 48q-16 0 -16 -48h-8zM416 680h8v56h-8v-56zM472 856h8v80h-8v-80zM496 32l8 -24h8l8 32l-8 24l8 24h-16v-24zM536 448v80h16v-80h-16zM560 1064l8 40h16l8 -40h-32zM832 1256l32 -8v32 h-32v-24z" />
<glyph unicode="@" horiz-adv-x="1912" d="M80 724l24 16l-8 8v8l32 32l-8 8v48h-16l8 80q-24 0 -24 48q0 86 64 136l24 -24l8 8h8l24 -8q120 96 120 176l-24 16l-64 -16v8l72 104v16l-8 -8h-16v8l16 40q-104 -88 -104 -112h-16v8q2 18 48 56q36 128 104 128l16 -16q60 84 304 272l56 8h8l-8 -24l24 -32h32v16 l-8 56l40 8h8l24 -16h16q0 32 48 32h192q62 0 160 -120l-16 -24v-32l24 -80q-124 40 -224 40h-24l-8 8l-8 -8h-32q-456 0 -648 -512q-12 -88 -32 -88l8 -8l-8 -256l8 -56l-48 -16v-8q60 0 88 -160q-64 -16 -168 -16v-8l80 -8h88l104 -160q212 -256 560 -256q252 0 512 184 l72 -96l-24 -8l-224 -16v-8l128 -16l24 8l24 -8l8 8h8l24 -8l8 8v-8q-20 -40 -56 -40l8 -8v-8l-24 -16h-24l-80 8v-16h40l96 -8q24 40 72 40l-16 24l32 24h8l16 -16v-16q-156 -124 -240 -128q-46 80 -152 80l-8 -8v-8l88 -88v-16l-184 -40v8q-36 -16 -104 -16 q-436 0 -672 248v8h32v8q-64 0 -64 16h96v8l-56 16l-64 -8l-64 96l24 8v8q-68 0 -96 104q-88 188 -88 376zM168 572l16 -16q56 18 56 40h-8l-64 -16v-8zM216 1020h72v8h-72v-8zM392 652v40l272 64l8 -8v-16l-8 -8l8 -8v-8l-8 -8q0 -272 184 -272q40 -56 40 -96l-56 -16 l-40 8l-64 -16q0 -18 112 -24l32 8l56 -8l40 8v-16l-88 -40l-8 8h-8l-48 -16h-64q-164 0 -280 168q30 16 40 48h-16l-40 -8l-32 56l216 56l-16 24q0 16 24 16v8q-48 0 -48 16l-8 -8h-8l-8 8l-8 -8h-152q-24 8 -24 48zM392 804v8q0 252 232 544q112 92 216 104l-24 -96 q56 -20 56 -40v-8q-74 -62 -112 -216l-24 -24q0 40 -88 40v-8q0 -20 64 -32h24v-8q-56 -248 -80 -248l-88 -16v-8l88 -8v-16l-8 8h-8q-8 -24 -48 -24q-88 0 -88 24v8q46 6 88 56l-16 16h-8zM408 540v16l16 16h48l80 8v-16l-136 -32zM448 212l24 -8v16h-24v-8zM480 140 l16 -16l16 16v16h-16zM584 996h64v8h-64v-8zM632 468l96 -32v16q-56 12 -56 32l-40 -8v-8zM640 44h72v8h-72v-8zM664 4h40v8h-40v-8zM856 1444v16h56q118 0 176 -88l16 -16l40 -8v8l16 16h32l24 -32l72 16l24 -8l80 64h8l8 -8h8q-48 -336 -64 -336l-32 -8l-16 16l-56 -8v-8 l24 -32l-48 -40v-16h8l112 24l8 -8q0 -64 -56 -64v-8l24 -8l8 8l8 -8v-8q0 -96 -48 -96l16 -40h-8q-40 14 -40 40l8 56l-32 32q0 16 40 16l8 8v8q-56 6 -56 40l-64 -16l-24 8l-24 -8v8l-40 -8v-16l64 -8l-8 8v16q96 -12 96 -40v-8l-144 -32l-24 8q2 40 16 40l-8 8v120 q0 16 48 16q24 30 24 56v8q0 24 -80 24q-44 96 -144 96v24l64 72v40l-40 40l-40 -8q-16 32 -40 32zM880 436v8l40 40l136 -8l8 -8l8 8q128 0 128 -64v-8l-24 -64l160 128l32 -40v-16h-16v-8q94 -64 104 -96v-16q-82 -64 -208 -64h-56q-80 0 -128 64l8 8h8q8 -24 48 -24v40 l-8 32l8 32l-168 32l-32 -32zM944 500v16q32 40 72 176h8q56 -6 56 -16l8 8h16l16 -16l-8 -40l48 -16l56 16l40 -48v-16q-34 -46 -72 -64h-8l-8 8l-8 -8l-48 8zM1024 708v8q12 104 32 104l64 -72v-8h-8l-8 8l-24 -8v-16h56v-16h-112zM1176 732v16l56 8v-40zM1200 52h104v8 h-104v-8zM1264 668h32v-24l-16 -16zM1296 364l40 -8h8v8l-32 8h-16v-8zM1312 1740v8l16 16q280 -122 416 -392q64 -188 64 -256l-200 -56q-46 254 -144 352l-48 48l8 8v8q-20 0 -24 32l8 24h8l240 -232v8l-8 32l24 8q0 46 -208 232l-16 32v8h16q-56 46 -56 80h-56zM1392 500 q18 0 120 120h168v16h-120l-16 16q36 32 72 32v-8l24 8v8h-32v8q136 136 176 136l16 -24q-34 -192 -88 -192h-8v-8q24 0 24 -16q-44 -112 -96 -112h-32v-8l40 -8v-16q-34 -72 -128 -72v-8q32 -4 32 -24q0 -18 -40 -24v8q0 26 -56 72q-56 66 -56 96zM1560 252l8 8l80 -24h8v8 h-24v16h96v-8l-72 -72h-40zM1592 860q0 80 64 80q32 0 32 16q-80 0 -80 16v8q0 26 200 64v-8l-208 -184zM1656 132q50 72 104 72v8h-16v8l40 40h32l16 -16q-26 -24 -48 -24l8 -8v-8q-56 -78 -80 -88h-40z" />
<glyph unicode="A" horiz-adv-x="1096" d="M80 12l16 96h8l96 -104l-8 -8h-96zM104 164l128 736l192 -24v8q-70 24 -160 24h-16l-16 16q84 104 128 104v-8l40 8v8l-24 8l-8 -8h-16v8l40 48q74 0 120 -48q-14 -148 -48 -224l16 -16q-6 -88 -24 -88h-16q-36 32 -112 32h-40v-8q128 -22 128 -40l-8 -8v-8l48 -16v-16 h152l16 -16v-80h16q0 52 48 72l16 32q-64 0 -64 24l-40 256h8q312 -294 312 -328l96 -608l-8 -8h-248q-24 0 -80 400h-264q-58 -390 -72 -400h-88l-16 16l48 32v8l-24 24h-16l-48 -16zM240 956v8q0 72 64 72v8l-48 8q0 64 40 104l-16 24q80 544 104 544h336q20 0 56 -248 l-216 -208l-16 16l-8 -8v8l-48 -8v-8h56v-16q-66 -96 -152 -96v-16q24 0 24 -16l-16 -16h-8l-40 8v-16q24 0 24 -16l-128 -128h-8zM456 892l16 -16v104h-16v-88zM472 1172l56 48h8v-8q0 -96 -24 -96zM488 548l8 -8v-8l32 8v8h-40zM520 412h24l56 8l-16 16h-16q-48 0 -48 -24 zM560 1260l208 200h8l32 -200l-8 -8q14 0 32 -112l-40 -8v-8q56 0 56 -104l8 -56l-184 24v16h32v16l-48 -16v-8h-16l-48 48v8h8l96 -8l24 8v8q-144 10 -144 56zM680 956l8 8q144 -16 144 -32h-8q12 -32 24 -32h8v16h16v-8l-8 -8q16 -18 32 -152h-8l-168 168v8h16v8 q-56 0 -56 24zM704 1140h32v8h-32v-8zM720 1276h56v8h-16v8l-8 -8h-8l-8 8h-8l-8 -8v-8zM736 1060l40 -40l8 24l-24 32h-8z" />
<glyph unicode="B" horiz-adv-x="1040" d="M80 20v136h8l40 -40q48 62 48 88h16l176 -176v-16l-16 -16h-72q-18 0 -24 104h-8q-4 -104 -24 -104h-120zM80 676v8q0 14 40 24l8 -8v-16l-24 -24h-8zM80 748v344q0 16 40 16l-8 8v8l-8 -8h-8l-16 16v208q0 16 32 16v8q-32 0 -32 16v16q0 16 40 16v8q-40 0 -40 16v272 l16 16h240l8 -8h8l-8 -8v-152h16v144l24 24h152q48 0 48 -24l-32 -88h-16v32h-8q0 -62 -40 -160l8 -24h-96q-16 0 -16 48h-8l-8 -120v-160q0 -16 -40 -16l-8 -8v-8l32 -8l8 8l8 -8v-64q-64 -48 -64 -96l8 8h8q48 -32 96 -32l144 40q68 -152 104 -152v24l-72 120h80l16 16 q-6 26 -72 32v8q32 100 40 184h24v8q-48 0 -48 72l-40 64v24q0 68 72 176l8 24h-8l-56 -88v16q0 72 32 128q126 -50 160 -96l-136 -152h16v-8q24 0 112 56q56 12 56 32h-40l24 24h16q80 -142 80 -288v-48l-8 -8l8 -8v-16l-8 -8v-8l-96 32l-104 -8v-16l128 -24l8 8h8l8 -8 l8 8h24l16 -16q0 -118 -160 -240h-8v-8q68 0 88 -104l8 8h8q68 0 104 -296v-40q0 -316 -248 -432q-64 -40 -216 -40q-22 0 -88 80v8l8 32l-8 32h8q-16 32 -16 88v16l16 16q24 0 24 -104h8q0 88 32 100l104 28q54 -102 104 -136h8l8 32q-64 48 -64 88q20 0 24 32l-24 64 q32 120 48 120l8 -8v16q-40 0 -40 144q-38 128 -240 128h-48q0 -34 -32 -48l-16 24l8 48v8h-8q-6 -40 -24 -40h-24v16h-8q-44 -32 -80 -32l-8 8v96q0 16 24 16v8q-32 0 -32 24v192l-8 -8l-8 -24h-8l8 -8l-24 -304h-48zM192 1220q14 -64 24 -64l-8 -40v-144l-8 -8l8 -8v-80 h16v192l8 8l-8 8v40q30 20 48 168h8v16q-40 0 -40 72l8 8l-8 8h-16l-16 -72l16 -16q-26 0 -32 -88zM200 284q2 40 16 40l-8 8l32 88h24l96 -32v-16l-8 -8l8 -8v-8l-16 -48l8 -48l-8 -40l16 -16l-8 -40h16v-32h-8zM232 796q80 76 80 120v16q-80 -88 -80 -136zM344 956h32v8 h-32v-8zM352 812h56v16l-56 -8v-8zM456 1636h8v72h-8v-72zM496 780h16l16 88h-16l-16 -72v-16zM624 836h40l56 8v8h-40l-56 -8v-8zM672 1348l16 -16h8q112 0 112 32v8l-8 -8h-8l-8 8zM680 628l40 -8q112 18 112 40h-16l-56 -8l-8 8v8l8 24h-8l-24 8l-32 -24v-40h-16v-8z M704 404l16 -16h48v24l-24 8l-40 -8v-8zM728 468q70 -24 160 -24h48l16 16l-72 16h-152v-8zM792 1292l16 -16l32 8v16zM864 724h16l8 24h-24v-24z" />
<glyph unicode="C" horiz-adv-x="984" d="M80 332v16l16 16h8l16 -16l-32 -24zM80 428v8q0 16 64 16v8q-64 8 -64 24v24l8 8v8l64 -24h80l16 -16l-112 -112zM80 596v176l8 8v8l56 -8h48l40 8q84 -70 112 -120l-8 -8l8 -40v-40l-32 -32h-8q-98 84 -144 96q-26 -4 -72 -56zM80 900v8l8 8v8l56 -24v-16h-48zM80 964 l16 16v8l-16 24v160q8 24 48 24l8 -8v16h-40l-16 16v136q0 218 232 344l24 -8v-56l16 -16h24l32 32v16l-32 40q0 40 128 40q110 0 176 -56l-224 -216l-24 16q0 -24 -88 -80l8 -8q-4 -72 -16 -72l8 -8v-16l-8 -8l8 -8v-64l-32 -32h-8l-8 40l32 24v8l-72 16l-48 -32l-8 8h-8 q0 -22 -40 -40q18 -48 56 -48v-16h-24l-32 24h-8l32 -40q0 -16 -32 -16l8 -8v-8l-8 -8l-40 8h-8q0 -12 56 -40v-8l-24 -8v-8l16 -16l-16 -32l8 -24l-16 -16h16v-16h-8q-48 8 -48 24zM96 276l208 200h24l16 -16l-8 -8v-8l8 -32l-8 -8l8 -40v-24l-8 -8v-8q24 0 80 -64l40 -8 h56q84 0 120 128v232h8q18 0 24 -56l-8 -56q0 -30 48 -56l16 16l184 -40v-48q0 -16 -24 -16l-40 8q0 -16 -64 -40l-40 -56l16 -16q-24 -24 -24 -56l-16 -16l16 -32l-8 -24q16 0 16 -40h16v-8q-94 -96 -224 -96h-56q-162 0 -256 120l24 8v8h-32v24l16 24q-128 30 -128 112z M352 140h8v32h-8v-32zM536 1468v16q170 184 192 184q20 0 72 -64q0 -16 -24 -16v-16l88 -48q40 -100 40 -160v-152h-16q0 24 -16 24l-48 -16h-32l-8 8l-88 -16l-24 8v-16h-24l-16 16v48l16 16l8 -8l16 16h16l8 -8h8q0 24 32 24l8 8v16l-40 8h-32v-24h16v-16l-40 8l-8 -8 l-16 96l40 48l-40 32l-64 -16zM672 1468h8l8 8h8l16 -16l8 8v8l-16 16zM728 1244h32v8h-32v-8zM736 628v8h40q16 0 16 -24q26 0 56 24h40l16 -16v-24q0 -26 -144 -40h-8zM760 1260h32l-8 24h-24l8 -8v-8z" />
<glyph unicode="D" horiz-adv-x="984" d="M80 36v16l8 8l-8 8v192l32 32l-8 8v8q0 24 64 24l-16 40q18 56 56 56v8q-32 0 -32 16v8q24 40 48 40l88 -16l16 24v8q-92 32 -176 40q-8 56 -48 56l-24 48v16h88l48 -8l32 8l8 -8v-8l-8 -32l32 -24l24 16q40 -10 40 -24v-168l-24 -32l24 -32v-72l-256 -256h-8zM80 756 v112h16v-48l240 232h8v-264l-16 -24l16 -48v-40l-24 -24l-8 8l16 56l-24 64h-32q0 -32 -24 -32h-8l8 8v8h-56q0 -24 -64 -24v8l-8 -8h-24zM80 884v16l16 16l8 -8v-8l-16 -16h-8zM80 956v8q0 16 24 16l64 -8v-8l-32 -32h-8q-42 0 -48 24zM80 1060v56q0 16 24 16v16 q-24 0 -24 16v104q0 16 80 16l-8 8v8l-8 -8h-24l-16 16l144 152h-48l-112 -104l-8 8v344l16 16h40l-8 -88q22 -72 48 -88l24 32l8 8h8q0 -14 48 -24l48 -168l24 16h8v-88q0 -16 -40 -16v-16q32 0 32 -16v-8h-16l-32 8l-32 -8v-8q88 0 88 -16v-104q0 -16 -40 -16 q0 -46 -48 -72h-32q-30 0 -64 40h-8q-28 0 -64 -32h-8zM152 1700v24h48q12 0 40 -104l-24 -16l-32 88l-8 -8h-8zM168 1292h96l-24 24l-8 -8h-16l-8 8l-40 -8v-16zM184 4l160 160h8v-8l-152 -152h-16zM184 404q0 -16 24 -16h16v8zM232 12l272 256q108 0 120 80q16 0 16 72 q42 40 72 40h16l8 -8q88 14 88 32l-16 16l-8 -8l-40 8h-24v8l112 120h-24l-96 -88v8q78 96 104 96l-32 24q-48 -8 -48 -24v-8h24v-16h-16v-8l-80 16l-32 -32h-8v16l8 8l-8 8v64q0 14 56 24v8q-52 0 -56 24v336l8 8v8l40 -8h16l24 24l-72 16l-8 -8l-8 8v120l16 16l8 -8h8v8 q0 16 -24 16l-8 8v56q0 20 184 192h16q64 -114 64 -256v-56l-40 -32h-120l-80 -24v-8l72 -32h56l8 -8l96 24l8 -8v-232l-16 -16h-8l-24 8l-152 -24q0 -24 88 -24h48l56 8l8 -8v-408q0 -326 -312 -432q-68 -16 -176 -16h-168zM272 1716l8 8h232q168 0 280 -136l-176 -176h-8 q-56 34 -56 48l72 144q-10 40 -24 40q-64 -122 -64 -184l-8 -8h-168l-16 16v16l16 16q-8 38 -48 72v16l24 24zM280 1204h32v8h-32v-8zM392 204v8l40 40h8zM400 1476l8 -8h24l16 56v16l-16 16q-22 0 -32 -80zM664 996h40v8h-40v-8zM688 500v8l16 16h8zM768 1436l32 -24l8 8h8 l8 -8h8q0 24 24 24v8l-40 8h-32zM832 340l16 -16h24v16h-40z" />
<glyph unicode="E" horiz-adv-x="904" d="M80 12v32l256 256h16v-32h456l16 -16v-240l-16 -16h-712zM80 284v248l8 8l-8 8v72l16 16l40 -8q0 16 24 16l24 -8q0 32 -40 32l-64 16v704q0 12 104 48q0 20 32 56v32q0 28 -88 40l-48 -16v160l16 16h80q12 0 40 -64h40l24 16l-8 8v24l16 16h344l192 -192v-56l-16 -16 h-456v-104l-8 -8v-8l8 -8l-8 -8l-8 8l-64 -8v-8q80 0 80 -48l-8 -32l8 -40h-8l8 -8v-32l-8 -8l8 -8v-144h328l16 -16v-232l-16 -16h-336l8 -8v-8l-8 -8l8 -8v-80q0 -16 -80 -16v-8q80 0 80 -24v-24l-264 -264h-8zM184 932l40 -16q64 14 64 32q-4 24 -64 24l-40 -8v-32z M248 556h80v8l-24 8l-56 -8v-8zM296 1404h24l8 40l-24 24h-8v-64zM368 140h8v32h-8v-32zM504 1572h96v8h-96v-8zM624 908l40 -8l8 8v8h-48v-8zM776 1716v8h32l16 -16v-8l-16 -16z" />
<glyph unicode="F" horiz-adv-x="904" d="M80 12v776l16 16h24v-16l-8 -8v-8h16l24 8l16 -32l80 40v40l16 16h16q56 0 56 -40l-8 -56l16 -16v-584l-120 -152h-128zM80 892v456h8l256 -256v-96h72q16 0 16 -24h8v16h8l32 -24l16 16l56 -56l-24 -8q24 -30 24 -56v-8q0 -16 -24 -16l-8 -8v-24q0 -40 32 -40v-8 l-24 -24h-128v8l8 8v8q-16 48 -32 48l-8 -8v16l32 16h24l72 -32v8l-72 64v8l16 24q-32 0 -32 16v8l8 8v8h-8l-32 -8l-16 32l-8 -8h-24l-8 8h-8l-24 -24h-8l-8 8h-8l-8 -56l8 -24l-8 -8h-8q-8 24 -48 24l-40 -16q-80 8 -80 24zM80 1492v216l16 16h560v-24l40 8h56v-16 l-80 -80h-8v80h-8v-104l-120 -120l-32 -8h-120l-8 8l-32 -8v-216h-16zM96 508q24 -48 48 -48l-16 -24q24 -28 32 -152q54 -122 104 -152l40 32l-8 40v16l8 8l-8 8l16 192l-72 48l-8 -8h-16l-120 48v-8zM168 1148l8 -8v-8l24 8v8h-32zM168 1580l24 -32q32 8 32 48v8 q0 18 -40 24v-8zM216 500l8 -8v-8q72 20 72 72q0 12 -32 24q-48 -16 -48 -64v-16zM248 644h40v8h-40v-8zM408 1484h8l8 32l-8 8h-8v-40zM568 748v8l8 72l-8 24l8 8h8l112 -120l-8 -8h-104zM576 1460v8l240 240h8v-232l-16 -16h-24l-16 16v96q0 16 48 16v8q-48 0 -48 32v8h-8 q0 -40 -24 -40v-8q24 0 24 -16v-96l-16 -16h-168zM600 964v16l16 16h16q14 0 32 -48l8 8h8l16 -16v-32l-16 -16z" />
<glyph unicode="G" horiz-adv-x="992" d="M80 420l8 32l-8 24h8q282 -266 488 -488l-8 -8h-104q-256 0 -368 312q-16 34 -16 128zM80 860v48l16 16q16 0 16 -24l-8 -24l16 -16l-8 -8v-8h8l24 8l16 -24v-8l-32 -32q-48 28 -48 72zM80 1028v8l8 8h8l8 -8v-8l-8 -8h-8zM80 1092h8l-8 8v16l8 56l-8 72v56 q0 328 312 432l112 16q232 0 360 -232l-8 -8q32 0 48 -112l-264 -264l-8 8v104h16q6 -40 24 -40l64 72v24q0 26 -24 56l8 8v8h-8l-64 -64h-8q-10 134 -72 144v24l8 8v8h-8l-24 -16l-40 8l-56 -8l-24 8l-64 -80l-16 -72v-88l-56 -56h-24q-30 24 -56 24q0 -80 -64 -80l-40 24 h-8l32 -40v-8q-24 -18 -24 -56h-16zM136 780l24 24h8q24 0 24 -32q24 0 24 -24h24v-16l-24 -24h-8zM168 1292l16 -16q56 8 56 24l-8 8h-48zM224 684v8l32 32h8q24 -8 24 -48h-8l-8 8h-8l-32 -8zM272 204h16l16 16v8zM304 612v8l16 16h24v-40l-16 -16zM488 740v216l16 16 q60 -72 120 -72l8 -8l8 8l8 32q-64 8 -64 24l8 8h8l8 -8q68 10 96 40h120q0 -24 24 -24l8 -8v-16q0 -16 -48 -24l-8 8h-16v-8q22 0 40 -40q24 0 24 -24h8q0 104 48 104l8 -8v-136l-8 -8l8 -8v-192l-80 8q-48 -8 -48 -24l16 -16h72l24 16h16v-72l-16 -16q-42 32 -88 32h-24 q-62 0 -88 -48v-16q60 -64 144 -64l72 32v-32q0 -198 -112 -296q-184 170 -184 192l24 104h8q110 -80 144 -80l-8 8v24h40q0 16 -80 32l-112 96v32l8 8l-8 8v184h-128zM592 1524q0 -16 24 -16l56 16v16l-48 8zM664 284l16 -16h16l8 40v24l-16 16h-24v-64zM672 708h16v-8 l24 8v16h-40v-16zM672 1132v8l72 72h144v-8l-72 -72h-40l8 40h-8l-24 -8v8l8 8v8l-24 -16l8 -40h-72zM768 1228v8l136 136l8 -8v-120l-16 -16h-128zM768 1412h8l8 24h-8l-8 -8v-16z" />
<glyph unicode="H" horiz-adv-x="1000" d="M80 12v288h32v8q-32 0 -32 16v56l16 16h144q0 24 -88 24v8l-48 -16h-24v576q0 16 24 16v8q-24 0 -24 16v32l16 24l-16 16l8 8l56 -8h88l48 16q0 48 -120 48v8l-72 -16l-8 8v216q0 16 24 16v8q-24 0 -24 16v176l96 96h8l160 -160v-24q-14 -32 -72 -32v-8q72 -2 72 -24v-16 l-16 -16h-8l-32 8l-32 -8h-16l-24 16q0 -18 -40 -24v-8l40 -8h112l16 -16v-248l-112 -120q48 0 48 -16l-24 -24h8l72 72h8v-40h208v-24l-8 -8l16 -64h16v16l-8 80h80v40l8 8l-8 8v40l8 8l-8 8v32h16l8 -80v-80l-8 -96l40 32h8q0 -52 -40 -128q32 0 32 -16v-72l8 -32l-8 -8 v-8l24 -184h8q16 144 32 144q0 -24 24 -24l8 -8v-48q22 0 80 -40l24 8l8 -8v-8l-8 -8l8 -8v-24h-16v-8q24 0 24 -16v-408l-16 -16h-240l-16 16v368l8 8l-8 8v144q0 16 24 16v8l-24 32v88l8 8l-8 8v8l8 8v8h-96l-32 32v16l8 8v8q-103 40 -185 40h-15q-136 -6 -136 -48 q18 -26 144 -56v-712l-16 -16h-232zM80 1628v80l16 16h56l16 -16v-16q-16 0 -80 -64h-8zM120 1484l8 -24h16l16 16v40l-8 8v8l64 64v32q0 16 -48 24q-48 -16 -48 -40l8 -56l-8 -8h16zM232 1716v8h96l16 -16v-96h-8zM648 1212l8 8h8l24 -32v-8l-32 -24zM648 1332h8l-8 8v8 l8 32l-8 24l8 8v8l-8 48l8 8l-8 8v16l8 8l-8 8v16q6 24 64 24h120l80 8l8 -8v-24l-48 -32v-8l48 -40v-24h-40l-8 8l-40 -16l24 -64v-8h-8l-136 -8v-8q112 -6 112 -24l-56 -16l16 -24l-56 -48q-80 58 -80 112zM648 1684v24l16 16h24l24 -16h24l64 16h104l16 -16v-40l-16 -16 l-80 24v8l-40 -8h-16l-48 8l-48 -16h-8zM664 340h32v16h-32v-16zM688 324l24 -8h8v8l-24 8h-8v-8zM720 388h56v8h-56v-8zM752 620v16l8 48l-8 32l32 16q0 24 -24 24v8l16 48q-24 8 -24 48v104l56 56h24q88 0 88 -24v-288l-112 -40l-32 -48h-24zM760 244h48v8h-48v-8z M848 708h40l-16 16h-24v-16zM872 852l8 -8v-8l24 8v8h-32z" />
<glyph unicode="I" horiz-adv-x="424" d="M80 12v64q0 16 24 16v24l-24 120v152l16 16l8 -8l8 8h32l8 -8l184 32l8 -8v-408l-16 -16h-232zM80 572v312l8 8v8l88 -8l80 8v8l-16 16h-40l-72 8l-8 -8h-8l-32 16l8 8l-8 40v48l32 56q-32 0 -32 24v24q0 16 40 16v8q-40 0 -40 16v80l16 16l8 -8q56 20 56 32h-8l-8 -8 q-64 8 -64 24v40q74 104 160 104h16v16l-40 8v8l120 120h8v-216l-8 -48l8 -40v-40l-16 -16h-120l-56 -8l-8 24h-16q0 -32 -24 -32h-8l8 -8v-8l8 8l136 -8h32l56 8l8 -8v-160q0 -16 -64 -16v-8q64 -8 64 -24v-304l-16 -16l-8 8q-80 -14 -80 -40q0 -16 104 -40v-88l-8 -8v-8 q-64 0 -64 64q-16 0 -16 -40l-8 -8h-8l-8 8h-8l-8 -8q-56 6 -56 16l-8 -8h-40zM80 1652v32l16 16h40v-8l-48 -48zM208 1124h40v8h-40v-8zM232 1708v16h104v-16h-104zM272 828l8 -40h16l16 40q-16 0 -16 40q-16 0 -16 -40h-8z" />
<glyph unicode="J" horiz-adv-x="736" d="M80 12q18 184 40 184l8 -8l24 24h24q136 0 192 88q24 38 24 80v152l8 8v8l184 -16l8 8h8l24 -8l24 8v-16l-24 -32v-16l32 -40v-80l-216 -312h-8l-8 8l-96 -64l-104 -8l-16 16h-8l-16 -16q-104 14 -104 32zM392 604v8q48 64 96 64v8l-16 16l56 48h8v-16h8v8l-8 24l112 104 h8v-248l-32 -8l-16 16q0 -16 -80 -24l-8 8l-40 -8h-88zM392 700v56h16v-56h-16zM392 772v176h8l8 -8h8l-8 -56v-8l16 -16q42 0 72 48v8q0 16 -64 16l16 16h16l8 -8l8 8h8l8 -8l8 8h56q0 18 32 32h8v-16l-112 -112q-16 0 -72 -72l-8 -8h-16zM392 1300v24l16 16l168 -8l72 8 l8 -8v-88l-8 -8v-8l-96 8h-40v8l8 32l-8 24h-40l-8 8l-56 -24zM392 1380v32q0 16 80 16v8q-80 0 -80 16v80l24 24l88 -16v-8q-8 -24 -48 -24v-8q132 0 168 -56v-24h-40v-16q72 -6 72 -24v-8h-8l-224 8l-24 -8zM392 1596v40l16 16l32 -32v-16h-16l8 -8v-16h-24zM392 1716l8 8 h240l16 -16v-264l-16 -16l-80 104q80 20 80 32l-80 16l16 24q-28 24 -96 24l-32 -8l-8 8v16h96l56 16v24l-96 24h-32l-40 -8v8l-8 -8h-8zM400 196l16 -24q48 16 48 64l-8 8h-32l-24 -24v-24zM528 380l16 -32q56 6 56 56v8l-32 8q-32 0 -32 -40h-8zM560 692q18 0 24 -40h8v8 l-24 48h-8v-16z" />
<glyph unicode="K" horiz-adv-x="1064" d="M80 60v96h16v8l-16 24v208h16l32 -8l24 8v16h-16v8l-8 -8h-48v104q0 46 136 208h8l-8 8v8q134 216 168 216v-16h16v16h80l8 -8l8 8q136 0 136 -56l16 -32q0 -16 -56 -16v-8q72 0 72 -16q-30 -60 -48 -64h-72l-24 16h-32l-40 -8v-8l24 -40h40l8 -8l8 8l56 -16 q-88 -146 -104 -152q-20 0 -56 136q-16 0 -80 -152h-16l-8 8l-8 -8h-8l-8 8q-32 -12 -32 -24l8 -8l8 8h16l8 -8l8 8h16l16 -16v-144q0 -22 -176 -288h-24v16h-8v-16l16 -16l-48 -64h-16v8l16 24v16q-24 0 -24 16zM80 708v160q0 12 96 32v16q-96 8 -96 32v8l16 16h32l32 -8 l8 8q88 -8 88 -24l-160 -240h-16zM80 1364v40q0 16 32 16v16q-32 0 -32 16v200l16 16h24l-8 -40v-16q8 -24 48 -24l32 24l24 -32v-8l-8 -8v-8l32 -16h16v-16h-24v-8q80 0 80 -32l-136 -136h-80zM144 1716v8h184l16 -16v-136l-16 -16h-24l-96 96q0 16 88 16l8 8v8 q-160 12 -160 32zM168 268l32 -8l16 48l-8 8h-8l-32 -32v-16zM184 220l16 -16h24v16h-16v8zM224 1236v8l112 112h8v-72l-16 -16h-40q0 -32 -16 -32h-48zM352 836q8 -48 96 -48q78 0 128 88q0 36 -96 48q-32 -24 -72 -24zM400 1236l48 96h16q24 0 24 -32q-18 -46 -72 -96h-8z M480 1380q8 24 48 24l8 -8l8 8l8 -8v-8l-24 -32l-8 -8h-8zM536 1196v24l16 16h8l32 -32v-8h-56zM544 1508l64 8v8l-48 16q52 136 144 136l8 8h8l-16 40h56q0 -44 -40 -64v8l-24 -8v-32q0 -38 -104 -168h-16q-14 0 -32 48zM560 340v16q164 254 184 264h8l176 -440l-40 -72 l-184 120l-8 -40l168 -112l32 8l8 -32h8q24 0 24 32l8 8h24l16 -48l-32 -48h-8l-40 40q0 -24 -32 -40h-168q-26 0 -144 344zM584 1284q12 32 24 32h16l56 -112l-8 -8h-8q-80 64 -80 88zM632 1684q16 36 32 40h24v-8l-40 -40l-8 8h-8zM640 1348v24q94 112 192 240h40 l-160 -344h-16zM840 1668q34 56 48 56h16l24 -24q-28 -56 -40 -56h-24z" />
<glyph unicode="L" horiz-adv-x="872" d="M80 12v432l16 24l-16 64v80l112 80l8 32q-8 48 -80 48l-32 -8l-8 8v160l8 8v8l8 -8q98 18 152 48l24 -8l16 16l8 -8v16h16q0 -24 24 -24l8 -8v-576l-8 -216l8 -8h8q16 0 48 96h376l16 -16v-240l-16 -16h-536l-24 16l-16 -16h-104zM80 1180v16l8 8v8l56 -8h72l40 8v8h-96 l-16 16l8 8v8q0 24 -72 48v32l8 8l-8 8v248l8 32l-8 32l16 16h48v16h-48l-16 16l16 16h232l16 -16v-264l-16 -16h-96l-32 8l-48 -16v-8h176l16 -16v-128l-8 -96l8 -8l-8 -8l-40 8l-24 -8l-56 8h-120zM120 1564l88 -24h24l24 24l-136 16v-16zM152 1652l8 -24h8l8 56v32 q-16 0 -24 -64zM192 500l16 16v56h-16v-72zM208 780l64 -24l8 8v24q-64 0 -64 48v32h-8v-88z" />
<glyph unicode="M" horiz-adv-x="1368" d="M80 12v936l16 16l32 -8l24 8l8 -8v-8l-64 -64v-24q0 -56 104 -56v-8l136 40l8 -8v-96q0 -16 -48 -16l-8 -40q0 -20 56 -40v-256l-8 -8v-8l-72 24h-64l-40 -24q12 -56 136 -56l48 16v-312l-16 -16h-232zM80 1156v280q0 16 64 24v32q-64 8 -64 24v56q0 12 56 40h48v16h-48 l-8 8l-8 -8h-8l-32 8v40h56q0 14 -56 24v8l16 16h216v-8l-8 -8v-8l40 -8l8 32h24q0 -44 30 -50q50 -14 52 -16q30 -22 30 -102l24 -136l-8 -8h-88l-32 -16v-8l96 -8h32q20 0 40 -152l-8 -8l-336 32l8 -8v-8q0 -16 -32 -16q0 -24 168 -24v-8l8 8h32l8 -8l72 16q96 0 96 -56 l16 -88l-48 -16v-24l40 -32l16 16q40 -142 96 -488h8q116 648 136 648q296 0 296 -40h-128l-176 -8v-16l192 -8l32 8l16 -16q0 18 80 24l-8 8v16q152 0 152 -32v-1088l-16 -16h-232l-16 16v472q24 0 24 24l40 8l8 -8h8l24 8v-24q-24 0 -24 -16q0 -22 72 -40l80 32l-16 24 l40 16q0 10 -72 32q-20 48 -88 48q-44 0 -88 -24l-8 8v472h-8q-82 -462 -104 -464q-96 -6 -96 -40q0 -12 80 -64v-8q0 -78 -40 -168l-64 8q-110 0 -152 -56v-8q0 -24 56 -24l16 -16l8 8h8l8 -8l8 8h48q48 0 48 -24q0 -64 -48 -64q-32 0 -32 -16q56 -18 56 -32 q-6 -80 -24 -80h-192q-16 0 -160 640l24 48q-46 0 -80 192q20 0 40 56l-8 8l8 8q-32 0 -32 16h8l-8 8v16h24q16 0 24 -48l8 8h8l8 -8h8q0 16 24 16v16q-34 24 -120 56l-216 80q0 16 -32 16l-8 8v8l-8 -8h-8zM136 1524h168v16h-48l-120 -8v-8zM168 1340l96 -24v16l8 8l-8 8 l-72 8h-8zM168 1380h72v8l-56 8h-16v-16zM200 1436l80 -8l48 8v8l-56 8h-56zM336 1532q8 -32 48 -32q42 0 48 24q0 18 -72 24q0 -16 -24 -16zM384 1580h32v8h-32v-8zM432 1324h88v8h-88v-8zM504 644h40v16l-40 -8v-8zM520 900l8 -8h56l16 16l-32 32l-24 -8l-8 8l-16 -24 l8 -8zM808 916h8l8 32q-16 0 -16 -24v-8zM824 1004h8v32h-8v-32zM824 1204l80 440l16 48h40v8q-40 0 -40 16l8 8h344l16 -16v-328h-16q0 24 -40 24v8l8 40l-16 16v56q-40 0 -40 24l8 24q-96 -72 -96 -152h-8l8 -8l-16 -96l8 -56l-16 -16v-16q32 0 56 -48q42 44 152 48l8 -8 v-56l-16 -16l-224 16v24l-8 40h-24v-40l-16 -16q-176 14 -176 32zM912 892h8v32h-8v-32zM952 1268h32v8h-32v-8zM1128 276l24 -16h8l8 48l-8 8h-8zM1152 1652q0 -28 56 -40q48 16 48 32q-40 24 -80 24zM1176 996l8 -8v-8l24 8v48l-32 24v-64zM1184 148q10 -88 56 -88 q32 88 32 128l-24 96h-16q-40 -16 -48 -136zM1208 1244v16l16 24l-8 8v8q56 20 56 48h16v-96l-16 -16zM1216 732h48v8l-24 8l-24 -8v-8z" />
<glyph unicode="N" horiz-adv-x="1056" d="M80 16v96q0 14 48 32v8q-48 8 -48 24v1288q0 20 352 72q80 -238 80 -280l-16 -48h8l8 8h8l40 -104l-8 -8l16 -16q0 -16 -24 -16l-8 8l-40 -8h-16l-8 8h-8l-16 -16l-48 8h-8v-8q24 0 24 -32q36 -26 184 -48l16 -64q-86 -18 -136 -72h-16q-64 0 -80 128q-12 2 -32 96h-8 v-208q0 -30 -96 -40l-32 8l-24 -8l-8 8q0 -24 -32 -24q0 -28 88 -40l96 16l8 -8v-352q0 -42 -24 -48h-16l-16 16v8l-8 -8h-48v-16l64 -8q-56 -48 -56 -104v-16q18 -48 104 -64v-40q-4 -16 -40 -32v-8q0 -16 32 -16l8 -8v-64l-16 -16h-232zM80 1496v216l16 16h272 q12 0 64 -176l-344 -64zM104 640h40v8l-32 8l-8 -8v-8zM104 976h24q80 16 80 40h-16q-88 -12 -88 -32v-8zM216 624q0 -16 40 -16v-8l8 8h48v16l-40 8zM424 1264l40 -8l8 8v8l-24 8l-24 -8v-8zM448 768q104 18 104 40l-16 16v8l96 16q24 -36 64 -200q-56 -10 -56 -32v-8 l48 -8l56 16q0 16 -24 16l-8 8v136l8 8v8l8 -8h8l56 8l152 -120l-128 -112l-16 16q-8 -40 -72 -96h-24l-8 8q-96 -18 -96 -56l8 -8l-8 -8q-60 0 -88 160zM480 744q0 -16 24 -16l24 8v8h-48zM512 648l16 -16h40l40 8v8l-56 8zM576 392l8 -8l88 16v-8q-18 -56 -64 -104 q-32 50 -32 104zM712 864v152l16 24l-16 24v112l16 16h8l8 -8l24 8v8q-56 0 -56 16v352q0 20 200 40l64 -72v-440q0 -20 -112 -32q0 -16 -48 -24v-16q0 -20 88 -32l64 8l8 -8v-48q0 -24 -32 -24v-16q32 -4 32 -24v-176l-24 -24q-234 168 -240 184zM712 1600v48h24v8l-24 32 v24l16 16h56l104 -104v-8l-168 -24zM720 0v8l248 256h8v-160q-32 0 -32 -16v-8l8 8h24v-72l-16 -16h-16q-86 0 -136 56l-24 -24l8 -24l-8 -8h-64zM720 840l40 -32l-8 -8h-8q-18 0 -24 40zM784 1072l40 -8l40 8v16h-16v8l-8 -8h-8l-24 8l-24 -8v-16zM824 1720v8h136l16 -16 v-24h-16v-16h16v-24l-24 -24h-32zM896 872h72l-16 16l-56 -8v-8zM928 48l32 -16v8l-24 16h-8v-8zM936 1608l8 8h16l16 -16v-24h-8z" />
<glyph unicode="O" horiz-adv-x="984" d="M80 328v128l16 16l56 -56l-16 -16v-8h40l16 -16l-48 -16q8 -32 48 -32h32v-16l-72 -56l8 -24l-8 -8h-24v8l8 8l-16 112h-16q0 -24 -16 -24h-8zM80 864v16q24 28 24 120l-8 24l8 8l-24 112v32q0 16 24 16l8 8v8l-8 32l48 8l40 -48v-8h-40v-8q86 0 160 -104l32 -32v-40 l-8 -8l8 -8v-8l-24 -24v8l-112 -48v8l-112 -64h-16zM80 1344q42 360 312 360l8 -8v-232l-64 -80l-24 8q-32 -12 -32 -24v-16h8l56 8v-72l-8 -8l8 -8v-104l-8 -8l8 -8v-40l-16 -16q-56 42 -88 96q-24 0 -48 40v8l40 8l8 -8l16 48l-56 16h-80zM120 488l96 80q4 -40 64 -40v-16 q24 0 24 -16l8 8h16l16 -16v-32l-16 -16h-104l-56 -8zM136 200q70 24 136 88h8l288 -288v-16h-88q-190 0 -296 152q0 26 -48 64zM256 352v8l128 -88l8 8h8q42 -24 80 -24h8q144 0 144 184v40q16 0 16 40q56 24 56 40h16l-8 8v8q0 34 32 64q20 0 112 -104v-8h-16l-24 16h-24 q-16 -16 -96 -24v-16l112 -16h96v-128q0 -146 -104 -224q0 -24 -16 -24t-24 48h-8q0 -40 -16 -40t-16 24l-24 -16l-40 8v-16q0 -44 40 -56l16 56q32 -12 32 -24q-70 -96 -144 -96zM256 376v8h16l8 -8l32 16q32 0 32 -40l40 -56v-8h-8zM328 1632h40v8l-40 8v-16zM328 1704v16 l64 16l8 -8v-8zM440 1504l8 64l-8 32l8 72v32q0 24 112 24v-16h-56l-8 -120v-88l-16 -16h-24zM440 1744l8 8h16l16 -16l-8 -8h-16zM496 1736l16 16h32v-16h-48zM536 208q0 -48 80 -104h16l8 40q0 46 -64 96l-8 -8h-8l-24 16v-40zM592 1712v8l16 16q296 -126 296 -368v-16 q0 -16 -72 -16v-8q72 0 72 -16v-32q0 -24 -64 -32l8 -8v-16h-16v-8q66 -6 72 -32l-120 -32h-56v-16q32 -2 32 -32l80 -16l56 8l8 -8v-56q0 -18 -120 -40v24l8 8v8q-16 0 -160 160v48q0 16 64 24q0 20 64 32l-8 8v8q0 22 40 24v8q-50 0 -64 48l-8 -8h-8l-56 16v16l40 -8 l-8 24l32 40l-8 24h8l24 -8h8v8q-40 4 -40 88q-24 14 -24 56q-22 0 -48 48q-24 0 -40 24h-8zM632 1032v96h16q48 -72 48 -96h-40l-8 -8h-8zM656 1176h32v8h-32v-8zM784 640v8q0 16 40 16l-8 8v8l16 16h8v-40q26 0 56 24h8v-152h-8zM808 872v24q4 16 40 32l48 -16v-16 l-56 -56zM872 736l24 32h8v-40l-16 -16zM872 968v24h16l16 -16v-16l-16 -16z" />
<glyph unicode="P" horiz-adv-x="976" d="M80 24v224q30 0 80 -64l-72 -80q24 0 40 -96l-8 -8h-16zM80 296v136q64 46 64 88l-40 32l-8 -8h-8l-8 8v208l16 16h80v-8q0 -16 -32 -16v-16l48 -40l24 8q0 -20 120 -64l16 -80h-8l8 -8v-80l-8 -8l8 -24l-8 -8v-8l8 -8v-8q0 -64 -96 -120l-56 24l-8 -8h-24l-24 16 q0 -24 -32 -24l16 -32l-8 -8h-8zM80 904v152l96 96h8l-32 -144h-24v-8q24 0 40 -32v-8l-8 -8l24 -64v-8h-8q-96 0 -96 24zM80 1168v8l24 24h8l16 -16v-8l-24 -24h-8zM80 1320v8l40 24h128l16 32q0 18 -72 40l-104 -24l-8 24l8 8l-8 40v136h8q184 -166 184 -200q0 -24 48 -24 v-16q-18 -34 -64 -48l-40 8q-82 0 -128 -16zM80 1704v8l16 16h32q16 0 40 -104h-8zM88 624q0 -16 48 -16v-8l8 8h48v16l-40 8zM96 376l8 -40h8v32l-16 16v-8zM136 384h40v32q-40 -10 -40 -24v-8zM160 216v8l48 24h8v-8l-40 -40zM192 480q0 -16 24 -16h16v8zM200 776v8 l112 24v8h-32l-8 80h-8v-40l-56 8v8q24 36 24 72h8l-8 8v8l8 8v8l-8 40l8 24l-24 96l8 8h8l48 -8l64 8l8 -8v-40q0 -16 -40 -16v-8q32 0 32 -24h8l-8 -40l8 -56q-88 -8 -88 -24v-8l56 -8h24l-16 -80l8 -24q0 -34 -80 -40l-24 8l-24 -8zM216 1192v8q18 18 120 48l16 -48 l-16 -16h-8l-8 8l-8 -8h-8l-32 8l-48 -8zM240 1544v8h8l24 -24l8 8h8l8 -8h8l24 8l40 -8q18 48 32 48h16l8 -8h8v16l-8 40l24 8l8 -8h16v8l-32 8v16l8 8v8q-24 0 -24 16v8l40 32h56q224 -28 224 -88l-8 -8v-16h8v16h8q16 0 16 -32l24 16l8 -24l-8 -24h8l24 8q48 -60 48 -96 l-24 -16l-56 8h-8l-40 -8v-16q0 -44 64 -80l80 32l8 -8v-32l-208 -24v8q32 42 32 72v56l8 8l-8 8v16l8 8v8h-8l-32 -8q-10 40 -24 40q-40 -72 -72 -72v-24l8 -8v-8l-8 -8l-64 24h-168l-24 -16zM248 616l16 -16h32l16 16v8l-40 8h-8zM288 992h32v8h-32v-8zM472 896v8l8 8h48 v-16h8q0 20 64 56q0 16 88 16v8l-56 16l8 48h16l64 -56q6 64 24 64l24 -56q0 -68 -184 -80l-16 -24l16 -16l8 8h8l112 -24l8 -8h24l24 16h64v-8l-160 -168l-40 8l-32 -8q-36 26 -72 168h-8q0 -48 -16 -48l8 -8v-24l-16 -16l-16 16l8 8l-8 40v64zM592 792l40 -8l32 8v8h-72 v-8zM656 1224v16h72v-16h-16l-8 8l-8 -8h-40zM672 1112l8 8l40 -8h24v-8l-32 -32zM808 1256v8l80 24v-8l-48 -56h-24l8 8v8zM816 936q0 22 72 80h8q0 -96 -32 -96z" />
<glyph unicode="Q" horiz-adv-x="1032" d="M80 736v16l192 192l32 -8l24 8l-8 56l8 8h8l8 -8v-128l-16 -24l-40 8h-32l16 -16l-8 -8v-24l40 -40q0 -22 -168 -32v8l-48 -16zM80 1112v16l16 16l8 -8v-16l-16 -16zM96 296h8l24 -8v8q0 56 48 56l24 -8v8l16 16v8l-16 24v8l8 8l-8 8v8q0 16 24 16l-8 8v8q0 30 72 40 q0 48 56 48v-160l8 -56l-24 -8v-8q88 -20 88 -64l8 8h16q80 -24 80 -48l-8 -40l48 -16v-16q-200 -80 -200 -104v-16h64l16 -16l-8 -8l8 -8l-8 -8q-116 12 -256 144q-80 126 -80 168zM96 1168l16 16h8l-16 -16h-8zM104 1464q0 100 200 240l64 24v-8q-122 -136 -144 -136v-8 l-40 8h-8l24 -32l-88 -88h-8zM112 648l24 16h80q58 0 128 32v-64q-40 -6 -40 -24v-8q40 0 40 -16v-16h-8l-24 16q-72 -20 -72 -48h-40q-14 0 -40 80q-48 16 -48 32zM128 1184l32 8l8 -8v-8l-8 -8h-16zM128 1232v16q32 64 136 64v24h16l8 -8l8 8h16v-8l-96 -96h-88zM144 1208 v16h40v-16h-40zM208 808h8v32h-8v-32zM232 872h24v16h-8zM256 104l72 -40h16l24 56q-12 80 -56 80q-26 0 -56 -96zM272 400l16 -16l8 64l-8 24l-16 -16v-56zM328 1456l32 24h24l16 -16l-32 -32h-16zM528 0q0 72 80 72l128 56l8 -48h16l16 16v16q-24 0 -24 16q0 22 112 56 q24 -24 80 -24l8 -8v-152h-40l-8 -8l-24 24h-8q-48 0 -48 -64l-32 -16q-16 0 -120 88q-80 -40 -136 -40l-8 8v8zM584 240l40 56q-24 0 -24 16q24 0 40 112l-8 8v56l8 8l-8 8v24l8 8l-8 8v32q0 16 24 16l-24 32v64l32 40l40 -8h8l8 24l-8 32l40 32l72 -80q72 10 72 32h16 v-224l-8 -8v-8l-120 8h-32q0 24 -32 56l-8 -8h-8l-8 8h-8q0 -16 -24 -16l-8 -24q32 -4 32 -24l-8 -24l8 -8h8l24 8l88 -8h48v-16h-8l-8 8h-8l-8 -8v-16l24 -8l32 16l-8 24h8l24 8l8 -8v-48q0 -16 -32 -16v-8q32 0 32 -24q0 -128 -80 -128l-80 -40q-10 40 -24 40v-8l8 -40 l-96 -40zM624 1648v8l16 72l40 -16v-16l-48 -48h-8zM632 720v8l16 16l-8 8v16h16l-16 24v8q24 0 24 16q-32 0 -32 16t48 16l16 32h8l8 -8l8 8h16l16 -16l-80 -88h8l64 64h8v-16q-8 -28 -88 -72q0 -40 -24 -40zM632 992v8l16 16h8v-24h-24zM632 1064v24l8 8l-8 24l8 8v8 l-8 24l8 48l-8 8v8q0 40 136 40l32 -32h32q26 48 72 48l8 -8v-32q0 -22 -96 -40l-32 8l-24 -8l-8 8l-24 -32q0 -38 88 -40h6q39 0 82 24l8 -8v-8l-40 -32l8 -32h-48q-170 0 -192 -24zM640 904v32l8 8v8l80 -16v-8q0 -18 -88 -24zM648 1104l40 -8l8 8v8l-40 8l-8 -8v-8z M664 392l40 -8h40v8l-8 24h8l88 16l-24 24h-8q-26 0 -56 -24h-8l-32 24h-16zM704 1120h32v8h-32v-8zM744 1400v16l112 112q56 -74 56 -184l-16 -16l16 -16v-8l-8 -8v-8l-128 24l16 88h-8l-24 -16zM800 1368h40v8h-40v-8zM824 872v8q0 16 48 32q32 -12 32 -24q0 -16 -72 -24z M880 24l32 -16q24 36 24 72h-40z" />
<glyph unicode="R" horiz-adv-x="1032" d="M80 4v936h8l32 -24l24 24h8v-8l-16 -40h-16v16h-8l-24 -24q48 0 48 -40q40 0 40 -48l8 8h16l56 -48h8v16h16v-32l-16 -24l16 -16l-8 -8v-8l16 -16v-16l-8 -8v-8q12 0 40 -104l8 -8q0 -24 16 -24v-16h-8l8 -80v-64l-16 -16l-96 24q-96 -14 -96 -64q100 -40 152 -40l48 16 l8 -8v-152h-8l-80 16l-88 -48v-16h-8q6 -22 40 -40h48l64 16l16 -24l-8 -8h-8v8l-8 -8h-8l-8 8l-8 -8h-8l-32 8l-8 -8h-8l-40 8l-32 -8v8l-8 -8h-16l-8 8l-8 -8h-8zM80 1380v24h16v-24h-16zM80 1580v128l16 16h16l8 -8l8 8h264l8 -56h8q0 56 16 56h120v-16q-52 0 -56 -24 v-48q16 -32 40 -32v-16l-72 -72h-8q-122 56 -152 56h-48q-18 -72 -40 -72l-8 56h-8q0 -72 -16 -72l-8 8l8 8v8q0 66 -96 72zM96 1412v8l16 16h8l16 -16l-24 -24zM104 684h72v16h-56zM128 724h40l8 -8l56 16v8l-24 24h-64l-16 -16v-24zM144 468l24 -8h16v8l-32 8h-8v-8z M184 396l32 8v24l-8 8v8l-24 -8v-40zM232 388l16 -16h40v32h-40zM520 596v24h8l8 -8h8q0 24 56 56h8q16 0 16 -40q20 -24 48 -24l48 64q-24 80 -40 80h-16l-24 -16l-8 8v32l32 64l-16 16l8 8h8l24 -8l160 16v-8q-12 -42 -120 -136q6 -32 64 -80l8 -72l-80 -16q0 -16 24 -16 l8 -8v-8l-16 -16l16 -32l32 24h-8l-24 -8v8l16 16h16q64 0 64 -96l-216 -264l-40 152l96 56l-48 48l16 48v16q0 12 -32 24q-48 -14 -48 -72h-16l-32 144q80 8 80 24h-64l-8 -8h-8zM600 940v8q0 16 80 24v8h-40v8l48 32l40 -8h24q0 24 56 24l16 24q-24 0 -24 16l80 48l8 8 l16 -16l-16 -16l16 -16v-8q0 -120 -56 -120l-8 -8q0 -24 24 -24v-16q-120 10 -120 40q64 0 64 24l-8 8h-72q0 -32 -24 -32q-16 0 -16 -24h-32l-40 -8zM656 44l32 32l-32 32q14 36 48 56h32q16 0 16 -24l8 8h16v-16l40 8h16l8 -8l40 16v-8l8 8h16q24 0 48 -144l-24 -8l-64 24 l-40 -24h-24l-8 8l-8 -8h-16l-8 8l-8 -8h-16l-8 8l-8 -8h-16l-8 8l-8 -8h-8q-16 0 -24 48z" />
<glyph unicode="S" horiz-adv-x="1024" d="M80 468l8 8h72l40 8v-8l8 8h80l8 8h8l8 -8v-24q-40 -34 -64 -88l-24 -24q-144 0 -144 120zM112 1260v96q0 268 272 376l128 16q290 0 400 -272v-24l-8 -8l-96 8h-128q-16 0 -16 24l-40 -16q-42 48 -104 48q-108 0 -136 -152q-24 0 -24 -24l-40 -8l-8 8h-8l-8 -8h-8 l-32 16q-56 -14 -56 -32l16 -16l-16 -24l24 -40l-104 -24v8zM136 244q100 96 160 96q96 -32 128 -72l-8 -56v-56l16 -16q32 46 40 88h64q96 20 96 56q40 28 40 104l8 8q0 16 24 16v16q-34 0 -48 104l-184 216q-8 64 -32 64h-8l-24 -16l-88 88l40 -8h16v88l-24 24h-24 q-24 0 -24 -88q-30 16 -96 112l8 8v8l-40 40v8l136 -24l8 8h56l8 -8l8 8h8q100 -98 264 -144q0 -20 32 -24q248 -256 248 -448v-32q0 -312 -272 -416l-120 -16h-16l-24 24l8 24q-28 40 -48 40q-56 -20 -56 -72h-16q-122 0 -256 216zM352 1220v8l16 16h16l16 -16l-8 -8h-40z M416 884h16l-8 -40h8q104 0 104 -16q104 16 104 32v8l-64 8v16h24v16h-8q-40 0 -40 -32h-48v8l8 8q0 24 -32 24v8l-64 -16v-24zM416 1124v8h16l-16 24h8q32 -16 32 -48h-24zM448 1060v8h40l80 -72h-16zM584 772q6 -24 64 -24q0 24 32 24l8 8v8l-88 32zM672 828h32v8h-32v-8z M672 1340l8 8h96l96 24h48l16 -16q0 -24 -256 -48v8zM672 1396v16h32v-16l-24 -8zM704 572q8 -32 48 -32h8q36 32 56 32q0 24 -24 24l-8 8v80l16 24h-88v-8q64 0 64 -16v-64q0 -16 -56 -24zM704 812l16 -16h16v32l-32 -8v-8zM744 228l16 -16h8l-16 16h-8zM824 412h64v8h-64 v-8zM864 1388v32h48l16 -16l-16 -16h-48z" />
<glyph unicode="T" horiz-adv-x="976" d="M80 1476v232l16 16h704q16 0 16 -40l48 -32q32 0 32 -16v-160l-16 -16h-48l-8 8l-8 -8h-200v-104l-8 -8l8 -8v-8l-16 -24l16 -24h-8l8 -8v-16h-48l-200 8l-8 -8l-8 8v96l8 32l-8 32v32h-256zM128 1508h40v8l-8 24h-24zM144 1644l24 -32q64 28 64 80l-8 8h-16 q-44 0 -64 -48v-8zM160 1476h32v16h-32v-16zM352 4v240l16 24l-16 16v184q40 34 40 64v16h-16v16q44 208 72 208l16 -16l-8 -40q32 0 32 -40q24 0 24 -64h8q0 24 16 24l16 -16l-8 -40v-16h8q0 48 56 64h8v-616l-16 -16h-16l-8 8l-8 -8h-16l-8 8l-8 -8h-40l-8 8l-8 -8h-16 l-8 8l-8 -8h-32l-8 8l-8 -8h-16l-8 8h-8l-8 -8zM352 676v376l16 16l24 -24h16l32 24h24l8 -8h8l-112 -384h-16zM352 1084v40l24 24h64l56 8l8 -8q-10 -64 -32 -64h-120zM352 1204v32l16 16l232 -8l8 -8h8l-8 -8l8 -40v-168q-20 -48 -56 -56l-8 8h-8l-48 -16v8q14 112 48 112 l-16 16q16 80 72 128h-16l-8 8l-8 -8l-8 -32h-40v24l-8 -8h-8l8 -8v-16h-32q-128 0 -128 24zM456 844q20 96 40 96v-16l-24 -80h-16zM472 1340h96l-16 16l-80 -8v-8zM520 412l24 16l8 -8v-8l-8 -8h16l16 16l-8 32h-24l-24 -24v-16zM592 1540l24 -24h64l8 40l-64 16 q-32 -12 -32 -24v-8z" />
<glyph unicode="U" horiz-adv-x="984" d="M80 332v8h8l-8 8v16q0 104 16 144l104 -48v-8l-16 -24l16 -16l-8 -8h24l-8 8v16h8l8 -8h8v16l-8 8v8l8 8h8l32 -16l8 8h40l16 -16v-8l-8 -8l16 -64l-24 -8v-8q40 -2 40 -24v-8h-56v-8q52 0 152 -48h32q2 -72 24 -72q16 66 104 144q6 64 16 64l-8 8v136l8 48l-8 40h8l-8 8 v360q8 24 48 24v-16l-8 -8l8 -8v-16q0 -24 -32 -24v-24l72 -16l32 16l48 -16h32l64 16l16 -16v-152q0 -18 -120 -32l-8 -8l-40 -16l-32 -32v-8q144 -36 144 -48l-72 -72v-8q30 0 40 -32v-16l-472 -472q-256 134 -256 320zM80 572v768q0 16 32 16v8q-32 0 -32 16v40 q48 0 48 16v32h-8l-32 -24h-8v152l24 24l-24 40v48l16 16h224v-8l-224 -232l32 -8l200 200h8v-416q0 -44 -40 -64h-24q-30 24 -56 24q0 -22 -40 -40v-8l8 -8v-8l-8 -8h-24l-32 24h-8l32 -40v-8q0 -16 -32 -16l8 -8v-16q0 -16 -24 -16v-8q24 0 24 -16l-24 -8l8 -40v-8l-8 -8 l8 -8v-16l-8 -8v-8l32 -24l-16 -24q16 0 16 -32q52 0 64 -72q28 0 64 -48q18 0 80 -80v-16l-16 -16l-16 16q-56 -40 -56 -72h-24q-38 32 -64 32l-24 -8l-16 16l-24 -40h-16zM152 236h48v8h-48v-8zM272 196h8l16 16v8l-24 -8v-16zM304 516l24 32l8 -8v-48h-8zM408 -4l224 224 q0 -24 48 -24v-40q128 64 128 144q24 44 24 88v32l-160 -152h-24v8l176 176l16 -16l56 56h8v-128q0 -24 -40 -24v-8q32 0 32 -32q0 -110 -184 -256q-100 -64 -224 -64l-80 8v8zM624 1084v8l8 8l-8 8v24l8 8l-8 8v32q0 46 32 72v24h-32v40l8 8l-8 8v8l8 8v8l-8 48v16l8 8 l-8 8v272l16 16h248l16 -16l-40 -40l40 16v-648q-40 -32 -80 -32q-60 0 -96 72q-64 6 -64 16l-8 -8h-32zM632 244v8l8 8h16v-8l-16 -16zM640 412h8q120 108 120 128l-8 8q-46 -32 -80 -32q0 -26 -40 -72v-32zM648 1668q40 -54 40 -80v-32l-16 -72l168 168q-72 0 -160 56z M664 684l24 -8l24 8v8l-40 8l-8 -8v-8zM720 1348l32 -32q64 0 72 64l-24 64zM736 588h32v8h-32v-8z" />
<glyph unicode="V" horiz-adv-x="1136" d="M80 1716l8 8h256l16 -16v-16l-8 -8v-8q30 0 64 -312l8 -32q-96 -26 -96 -48v-8l40 -16l40 8v-8l8 8h8l16 -16v-16q-80 -96 -112 -96q-72 -28 -72 -64q0 -46 -40 -64q-16 30 -56 280q22 0 96 64v8q0 56 -120 72l-16 88l8 56q-26 0 -48 136zM176 1580l24 -8l-8 -8v-16 l64 -8l80 120v8l-40 8l-16 -16l-24 8zM208 1452h16v-8q80 8 80 24v16h-48q-48 0 -48 -24v-8zM240 868q178 184 216 184h8l40 -192l-56 -16v-32q14 -32 32 -32l-72 -80l-128 16l-8 -8q-20 20 -32 160zM272 700h8l128 -24l32 8q0 -28 24 -32t24 -32l24 16h8l16 -16l-8 -8v-8 q24 0 40 -184q16 0 48 224l8 8h96v8h-96l-8 8l24 64q36 -16 104 -16h64v8q-32 0 -32 24h8l8 -8h16v8l-32 8l-16 -16h-56l-56 -8v8l24 32h-8l-24 -24h-8q50 392 96 392l8 8l128 -16h16q0 32 -128 32h-32l-16 16q18 208 64 208l48 48l8 -8h8q0 24 160 184l56 56h8 q-104 -616 -120 -632h-8l8 -24q0 -88 -24 -88l8 -8v-24l-200 24q0 -18 56 -24v-8q-38 -56 -80 -56v-32l64 32l-8 8v8l40 40h8l16 -16q-32 0 -32 -16h8l96 16h8l8 -8h8q-12 -136 -64 -136l-40 -16v-32h48l16 -16v-24l-16 -16l-8 8v8l-24 -8v-16q0 -14 40 -24l-112 -584l-8 -8 h-40l-8 8l-8 -8h-16l-8 8l-8 -8h-56l-8 8l-8 -8h-16l-8 8l-8 -8h-48l-8 8l-8 -8h-16l-8 8l-8 -8h-16l-16 16l40 40h32l8 -8l24 8q0 24 -48 48q-32 -4 -32 -56h-40l-8 -8h-8q-24 54 -40 208l32 48v16q-26 0 -40 96l8 32v16l-32 -24l-16 80l8 8q-24 0 -24 80q-12 0 -16 104z M288 1508l16 -16l8 8v24h-24v-16zM376 476h8l56 64h-8zM456 388l8 -8v-8l24 8v32zM480 580h8l24 32h-8zM488 500h40v8l-8 8v8l-32 -8v-16zM592 444l40 -8h16l40 8v8l-40 8h-40zM640 540l8 -8h32v8l-16 16h-8zM744 580l56 -8l32 8v8l-32 8l-8 -8h-16l-8 8l-24 -8v-8z M776 1652q12 72 32 72h168v-16h-40l-8 8h-8l-104 -104zM840 940h8l40 48h-8zM840 1308h64l16 16v8h-40l-40 -8v-16zM1000 1708v16h24v-16h-24z" />
<glyph unicode="W" horiz-adv-x="1496" d="M80 1704l8 24h256q20 0 24 -96l-16 -16h24v-32q-40 -56 -64 -56v-56l40 -8h16l8 8h8l32 -136l-40 -24h-8q-30 0 -64 40l-32 8q-58 -10 -88 -40l8 -8v-8l-24 -24h-16l-8 40v24l16 24v8l-16 24l80 88h-8l-80 -80h-8v8q36 128 56 128l-40 120h-16q-16 0 -16 -32l-8 -8h-8z M160 1224l8 8q150 -32 240 -32v16l-56 8v16l64 16h8l56 -400l-8 -8l-80 24v-8q86 -80 168 -80h16q-8 22 -88 64q16 152 32 152l256 -56l8 8h8l64 -8v24q-170 48 -336 48h-8q20 216 56 216q68 -16 176 -16h24l8 -8l48 8v8l-16 16h-16l-184 40v8l16 24q-4 18 -64 40v8 q16 140 50 162q74 30 150 62v32l-80 16l-80 -16l-8 8l24 104h256q26 0 64 -360l-40 -16v-8h24l8 8h8q16 -26 32 -184l-168 -72v-8h16q78 16 152 56l40 -240l-8 -24q16 0 16 -48h8q0 56 32 56v16l-24 8q0 98 48 128l-32 8q22 192 48 192l8 -8h8q48 26 48 64v8q-72 8 -72 24 q22 224 48 224l40 8l24 -8l48 16q0 46 -88 56h-8l-8 -8h-8l-8 8q6 104 32 104h256v-8q0 -184 -64 -216l-32 -16v-8q24 0 24 -24q32 0 32 -16q-56 -392 -72 -408l-80 8h-56q14 -20 136 -56v-8l-152 -64v8l-24 -8v-24q152 -32 152 -48q0 -78 -24 -112l-128 16l-120 -16h-80v8 l8 8v8q-48 0 -72 40q-104 58 -104 88v48h-8q0 -58 -24 -64l8 -8v-32q0 -56 -32 -56h-16v-8q0 -16 24 -16l8 -8v-8l-8 -8h-112l-8 8l-8 -8h-328q-16 0 -56 272l40 8v8q-48 0 -48 32l-8 40q64 -6 64 -16q56 14 56 32v24l-16 16h-64l-40 -32h-8v8zM160 1256v8h72v-16h-32z M256 680l8 8h448q-36 -360 -56 -360l8 -8l-16 -96l-96 16q0 -12 32 -24l-16 -88l8 -8q0 -70 -88 -120h-112q-18 0 -32 144l48 8v16q0 14 -56 24l-8 40q0 16 24 16v8q-48 0 -64 232l-8 8v8h8l24 -24l56 40h8l32 -24l32 16l-8 40v48h-16q0 -36 -32 -56l-16 40q-50 -4 -80 -32 q-24 0 -32 128zM416 632l152 -32l8 8v16l-136 24l-24 -8v-8zM488 472l88 -16l8 8v8l-8 8h-88v-8zM504 296q8 -56 24 -56l24 32v16q0 44 -32 56zM520 16l40 32h16v-40l-40 -8zM576 744h16v8l-16 16v-24zM608 16v8l8 24h8v-32h-16zM608 112l8 8h8l-16 88l8 8h16l16 -16 l-16 -120h-16zM776 776v24l16 16q0 -16 72 -64h-8q-80 0 -80 24zM784 1296h32v8h-32v-8zM792 680l8 8h152l48 -8l40 8l8 -8l8 8h80q0 -32 32 -32l80 40l8 -8v-8l-24 -144l-56 8v96l-16 -16v-64h-8q-112 96 -176 96h-16l-16 -16q0 -54 216 -168v-8l56 40h16 q-54 -360 -72 -368h-24q0 -16 24 -16l8 -8v-8q0 -104 -56 -104h-24l-8 8l-8 -8h-40l-8 8l-8 -8h-40q-16 0 -16 24h-8q0 -24 -16 -24h-24q-2 0 -24 154q-28 220 -80 454zM856 448h8v88h8l-8 8v104h-8v-200zM880 528l16 -16h40l16 16v8l-40 32q0 -16 -32 -16v-24zM896 1032 l24 -24q48 4 48 48h-16l-56 -8v-16zM1008 208q72 6 72 24v8h-48l-24 -24v-8zM1016 64h8v64h-8v-64zM1056 976l8 -8h16q0 16 24 16v8h-32zM1192 1464h8l56 16v16l-32 8zM1216 1128h40v16h-24zM1352 1472v16h32v-8l-8 -8v-8z" />
<glyph unicode="X" horiz-adv-x="1120" d="M80 1720l8 8h104l-16 -64l8 -40q18 0 32 72l-8 32h152q28 0 104 -272h-264q-32 16 -32 48l32 24l16 -16q50 0 120 56h-16q-40 0 -152 -40q-22 22 -88 192zM200 1424l8 8h248v-8q-2 -16 -152 -88v-8h16q44 0 168 64q32 -52 56 -144q-56 -26 -56 -72v-32h8l8 8h8l8 -32h8 l80 80l-24 56q52 176 72 176h64v-16q-32 0 -32 -16v-8l8 8h8l8 -8h8q0 12 32 24v16h56v-16q-24 0 -24 -16h16q48 0 48 32h72v-8q0 -50 -64 -120l8 -32q-30 -88 -48 -88l-16 16v-80q0 -40 -184 -224l-144 -144h-8l8 48v24h-8q-6 -112 -32 -112h-8l-48 16v-16h-16l56 152 l-56 160l160 48v32h-8l-152 -48h-8q-14 0 -152 368zM312 16l80 80v-8q-20 -88 -40 -88h-24zM344 120v16q82 130 128 176v-8q0 -70 -128 -184zM464 336v8q28 56 40 56v-8q-10 -56 -32 -56h-8zM472 840h8v32h-8v-32zM488 936h8v32h-8v-32zM576 528l80 96h24v-56h8v80 q16 32 40 32v16l-24 -16l-16 16l56 48h16l32 -120v-8h-16v16h-8q0 -52 -144 -200v-8h-8q-22 0 -40 104zM616 984l48 -8q48 36 48 72v8h-40q-18 0 -40 -64h-16v-8zM632 368v8l88 96h8v-64h8v88l8 8h16v-40l8 -120q-30 -18 -120 -24zM640 640v8l24 24h8v-8l-24 -24h-8z M656 1472q82 234 104 256h264l16 -16q-76 -200 -96 -208q-40 0 -40 -48h-232zM664 272l24 8q272 0 272 -48l80 -224l-8 -8h-56l-8 8l-8 -8h-64l-8 8l-8 -8h-56l-8 8l-8 -8h-32q-26 0 -112 272zM696 736v8l40 40v-8q0 -22 -40 -40zM752 128l24 -8l24 8v8h-48v-8zM776 352l8 8 v176l16 40h24l80 -208q-28 -24 -120 -24z" />
<glyph unicode="Y" horiz-adv-x="1096" d="M80 1664q54 22 64 48h-16v16h80v-8l-8 -8v-8h8l56 8v-8l-144 -144q-18 0 -40 104zM176 1400q46 0 240 88l96 -288l-16 -16v-8q24 0 24 -80q34 -96 48 -96l32 -16l48 72l-8 8v8l24 80l-16 48h8l-48 144q0 42 56 176l160 -120v-88l-16 -16l-24 24l-64 -16v8 q-48 -10 -48 -24v-8q0 -34 80 -56h8q42 0 48 24l-8 8l8 8h8l8 -8v-40q0 -68 -160 -496l8 -8v-8l-16 -16h-48q0 100 -144 136h-8q-64 0 -64 -32h-16l-136 416l40 8v16l-48 8l8 8v56h-8l-24 -8q-32 64 -32 104zM272 1488l104 104h16l16 -64zM400 16v72l8 8l-8 8v560l16 16 l96 -16l120 16h32l8 -56v-104l-8 -8l8 -8v-24l-8 -8l8 -8v-8l-8 -8l8 -8v-64l-8 -32l8 -32l-8 -32l8 -8l-8 -24l8 -128v-48l-8 -8l8 -8v-40l-16 -16q-32 36 -40 144l8 24h-8q-24 0 -24 24q-48 -22 -48 -88l24 -96l-8 -8h-8v8l-8 -8h-80l-8 8l-8 -8h-32zM432 1008h32v16h-8 l-24 -8v-8zM672 1568l16 16h8l8 -24q88 26 88 48v24q0 16 -72 24l-16 -40h-16q30 112 48 112h264l8 -8h8q-40 -152 -112 -152l-144 -72q-50 24 -88 72zM800 1464v8l16 16l8 -8v-8l-16 -16z" />
<glyph unicode="Z" horiz-adv-x="928" d="M80 56h8l-8 8v32l8 8l-8 8v16l8 8l-8 8v32h16l168 -168l-8 -8h-24l-8 8l-8 -8h-16l-32 8l-32 -8v8l-8 -8h-40zM80 1480v16h8l-8 56v120l8 40l-8 8l8 8h80q16 0 16 -48h8q0 48 16 48h120q58 -46 152 -208h16l-24 40q52 20 56 40l-8 8v8l-40 -16l-24 8v-16q-96 102 -96 136 h472l16 -16v-232l-120 -312l-72 16l-16 -40h8l56 -32q-110 -304 -128 -304q-186 128 -208 160v16l40 -8h8v8q0 16 -32 16q0 36 176 464h-272q0 16 -40 32v-32h-152zM88 272q0 32 64 104l-8 48q38 104 56 104l24 8l8 -8h8l32 8h8l16 -16l64 24l8 -8h8l112 32l-120 -304 l88 -64v8q-36 40 -56 40v16h72q14 0 24 -56l64 -16l96 32l-8 24h8q26 -48 192 -112v-120l-16 -16h-48l-8 8l-8 -8h-104l-8 8l-8 -8h-96l-8 8l-8 -8h-88l-8 8l-8 -8h-8l-64 16l-24 -8zM264 720l88 208l104 -80v-8h-40l-24 -16q0 -38 160 -88v-16q-12 -32 -24 -32h-40 q-58 0 -64 24l-8 -8l-40 8h-72l-16 16l-8 -8h-16z" />
<glyph unicode="[" horiz-adv-x="600" d="M80 4v184l8 8v8l8 -8h8q96 20 96 32h-104l-16 16v16l8 8v8l80 -16v16h48l8 8h8l8 -8v-8l-8 -8l32 -8l72 72h8v-88q24 0 88 -80l-8 -8h-64v-16h-72v-32h96v8h-32v16h16l8 -8l8 8h40l16 -16l-16 -16l8 -24h-32v-16l40 8h24l40 -8l8 8l8 -8v-48l-16 -16q0 24 -16 24h-48 l8 -8v-8l-80 -8h-272zM80 452v32l256 256l8 -8v-224l-16 -16l-80 8l-80 -8v-8h16v-8l8 8l40 -8l32 8v-8l8 8q72 -8 72 -24v-16l-16 -16h-24l-8 8l-8 -8h-8l-8 8h-8l-24 -8l-24 8l-72 -8h-40zM80 540v376q0 24 112 24v16h-96l-16 16v72l64 64v8l-56 -16l-8 8v40q0 16 48 32 l24 -8v8l8 8v8l-8 64l-64 -48h-8v592l16 16h408l16 -16v-40l-16 -24v-40l16 -24v-104l-16 -16h-72v8l8 8v8l-8 8q-44 -32 -88 -32v-680l-16 -16h-40v-16h-72v-8q128 0 128 -24v-16q-168 -186 -256 -256h-8zM88 12h32v8h-32v-8zM144 300v16h24l8 -8l8 8h16v-16h-56zM152 132 l48 -8h8v8l-48 16l-8 -8v-8zM176 1124h8l152 32l-16 24v64h-8zM192 1604q0 -112 96 -112v64q0 66 -72 80h-8l-16 -16v-16zM200 396v8h128l16 -16v-8q0 -14 -56 -48h-8v8l8 8v8q-88 16 -88 40zM208 164l48 -16h8v8l-48 16h-8v-8zM216 52h56v8h-56v-8zM232 292v16h32l-16 -16 h-16zM344 20h72v8h-72v-8zM368 244v8h24q16 0 16 -24h16l-8 8v8l8 8h80l16 -16v-80l-16 -16h-32l-16 16v80h-8l-8 -56h-8zM384 1676h8l96 56v8h-16q-72 -34 -88 -64zM448 -12l16 16h8v-16h-24zM448 116l8 8h8l24 -24h-24z" />
<glyph unicode="\" horiz-adv-x="1088" d="M80 1812v8h200q24 -8 24 -48l-48 -104l80 16q104 -230 104 -280q-38 -38 -144 -88l-8 -32l40 -8l32 8v-8l-24 -104h-8q-4 0 -72 176l-128 336l80 40v16h-8l-40 -8l-8 8l-16 -16h-16q-20 0 -40 88zM336 1148l8 8h24v-72h8q36 28 64 88h8l8 -8h8q16 18 16 96l8 8h16 l136 -376q-28 0 -64 -64h-16q-224 226 -224 320zM392 988h8q156 -164 176 -208v-8l-88 -16q-14 0 -96 232zM560 684v8q20 40 64 40l88 -104v-8h-32l-24 24l-8 -8h-8q-16 0 -16 32l-40 -16zM592 788l72 48l16 -40l-24 -16q0 -24 32 -24l64 -136l-8 -8h-8q-122 168 -144 176z M744 84q8 32 32 32v8q-24 0 -24 16l8 8h8l-8 40l16 40l-16 16l16 24v8l-16 24l80 40v16l-88 40q12 34 40 48l-8 8v16l16 16l208 -536l-8 -8h-136l-8 8l-8 -8h-48l-16 16v8l32 -8h8v8q-32 0 -32 24l8 32q-16 0 -16 -32h-16l-8 56l8 8q-20 0 -24 32zM808 12l64 -40h8v16 q0 24 -64 32h-8v-8z" />
<glyph unicode="]" horiz-adv-x="600" d="M80 4v32l8 8l-8 8v8l8 8l-8 8v56l16 16h8l8 -8l24 8v8q-32 0 -32 16h32q0 16 -32 16v16l88 8l-16 16h-80l-16 16l8 8h168v376q74 88 96 88v8h-64l-24 -16l-8 8v136h152v16l-8 -8h-8l-32 8l-8 -8h-8l-40 8l-40 -8l-8 8v472l8 88l-8 64v64h-168v8q176 192 208 192l-8 8v8 l-8 -8h-16l-8 8h-8l-16 -16l-8 32h-8q0 -78 -72 -120l-56 -56l-8 8v192l16 16h72l16 -16l-64 -128h8q20 4 96 128l64 16h24l8 -8l8 8h24l8 -8l8 8h32l8 -8l8 8h24q32 -8 32 -88q-24 0 -24 -32l-24 -32h-16l8 -8v-8l-16 -24l8 -8v-24q0 -24 -40 -24l16 -24l-16 -24 q24 0 24 -16l-24 -32q24 0 24 -16l-8 -8v-8l16 -16v-16l-8 -8v-8q32 0 32 -64l8 8h8l8 -8l-8 -8v-24l24 16q40 -12 40 -48l-8 -8h24l-8 -952l-40 8h-72l-56 -8v-8h16v-8l8 8h104q48 0 48 -24v-40l-16 -24l16 -24v-72h-16v40h-8q0 -92 -32 -96h-72l-24 16h-40l8 -8v-16 l-40 -48h8l40 40l40 -8v16l40 -16l16 16q48 0 48 -56h8l8 40h16v-40l-16 -16l-112 16l-48 -8h-64l-8 8h-8l16 48l-16 40h-64v-8l64 -8l-16 -64l8 -8l-64 -16h-96zM104 44h136v8h-120l-8 8l-8 -8v-8zM152 1588h24q42 0 80 40v8h-16l-88 -32v-16zM176 4h32v8h-32v-8zM240 108 l88 -8l128 8v16q-24 0 -24 24h-72v-16h-8l-112 -16v-8zM240 172l40 -16h8v8l-40 16h-8v-8zM304 748h16l8 8v8l-24 -8v-8zM328 12h96v8l-40 8l-56 -8v-8zM352 1012l24 -88q26 0 40 96l-8 8v8l8 8l-24 104q-40 0 -40 -136zM376 692h8v64h-8v-64zM432 900l8 -72h16l16 16v56 l-24 80h-8z" />
<glyph unicode="^" horiz-adv-x="712" d="M80 1508q0 66 136 96l16 -32h40l16 -16q-20 -52 -40 -56h-152l-8 8h-8zM128 1612v8q18 56 56 56l-8 8v8q46 172 120 280l232 -272v-16q-34 0 -120 -48q-14 0 -48 88h-8q-6 -56 -40 -56l16 -16l-40 -72q-46 40 -80 40l-72 -16zM304 1980l8 8h104q16 0 120 -264h-8z M416 1604l24 16l40 -8l56 16v-24h-16l-8 -24l8 -8v-16h-72q-32 16 -32 48zM480 1500v16l32 16l16 -16l-16 -16h-32zM552 1556v8h24l-8 8v56h8q24 -4 24 -64v-8h-48zM608 1500v16h24v-16h-24z" />
<glyph unicode="_" horiz-adv-x="1496" d="M80 -136l8 56h264l16 -16l-184 -184h-80q-24 8 -24 48v96zM216 -272l136 136l8 -8l-8 -40q10 -80 32 -80l16 16l-8 8l8 40v16h-8q10 104 32 104h216l16 -16l-192 -184h-248v8zM664 -88l8 8h416l16 -16l-96 -80h-8l-8 8q-48 -16 -144 -16v8l64 72l-56 -8h-88 q-104 0 -104 24zM752 -272l16 16l8 -8v-8l-8 -8h-16v8zM816 -264l16 16l80 -16v-16h-80zM1080 -264h32v-16h-32v16zM1120 -160l80 80h200l16 -16v-168l-16 -16h-24v8q0 20 32 24v8q-160 56 -288 72v8zM1152 -264l160 16l32 -16v-16h-192v16z" />
<glyph unicode="`" horiz-adv-x="544" d="M80 1952l8 8h176l8 -8h8l-8 -96v-56l-40 -8h-8l-8 8h-8q0 -24 -16 -24h-8q-40 46 -104 176zM264 1768v16q40 0 40 24l-16 16v88q6 48 24 48t96 -248h-8q-42 30 -136 56zM280 1592q90 64 112 64h16v-56l-8 -8l8 -24h8l8 40v32h16l24 -72l-8 -8h-152z" />
<glyph unicode="a" horiz-adv-x="1096" d="M80 12l16 96h8l96 -104l-8 -8h-96zM104 164l128 736l192 -24v8q-70 24 -160 24h-16l-16 16q84 104 128 104v-8l40 8v8l-24 8l-8 -8h-16v8l40 48q74 0 120 -48q-14 -148 -48 -224l16 -16q-6 -88 -24 -88h-16q-36 32 -112 32h-40v-8q128 -22 128 -40l-8 -8v-8l48 -16v-16 h152l16 -16v-80h16q0 52 48 72l16 32q-64 0 -64 24l-40 256h8q312 -294 312 -328l96 -608l-8 -8h-248q-24 0 -80 400h-264q-58 -390 -72 -400h-88l-16 16l48 32v8l-24 24h-16l-48 -16zM240 956v8q0 72 64 72v8l-48 8q0 64 40 104l-16 24q80 544 104 544h336q20 0 56 -248 l-216 -208l-16 16l-8 -8v8l-48 -8v-8h56v-16q-66 -96 -152 -96v-16q24 0 24 -16l-16 -16h-8l-40 8v-16q24 0 24 -16l-128 -128h-8zM456 892l16 -16v104h-16v-88zM472 1172l56 48h8v-8q0 -96 -24 -96zM488 548l8 -8v-8l32 8v8h-40zM520 412h24l56 8l-16 16h-16q-48 0 -48 -24 zM560 1260l208 200h8l32 -200l-8 -8q14 0 32 -112l-40 -8v-8q56 0 56 -104l8 -56l-184 24v16h32v16l-48 -16v-8h-16l-48 48v8h8l96 -8l24 8v8q-144 10 -144 56zM680 956l8 8q144 -16 144 -32h-8q12 -32 24 -32h8v16h16v-8l-8 -8q16 -18 32 -152h-8l-168 168v8h16v8 q-56 0 -56 24zM704 1140h32v8h-32v-8zM720 1276h56v8h-16v8l-8 -8h-8l-8 8h-8l-8 -8v-8zM736 1060l40 -40l8 24l-24 32h-8z" />
<glyph unicode="b" horiz-adv-x="1040" d="M80 20v136h8l40 -40q48 62 48 88h16l176 -176v-16l-16 -16h-72q-18 0 -24 104h-8q-4 -104 -24 -104h-120zM80 676v8q0 14 40 24l8 -8v-16l-24 -24h-8zM80 748v344q0 16 40 16l-8 8v8l-8 -8h-8l-16 16v208q0 16 32 16v8q-32 0 -32 16v16q0 16 40 16v8q-40 0 -40 16v272 l16 16h240l8 -8h8l-8 -8v-152h16v144l24 24h152q48 0 48 -24l-32 -88h-16v32h-8q0 -62 -40 -160l8 -24h-96q-16 0 -16 48h-8l-8 -120v-160q0 -16 -40 -16l-8 -8v-8l32 -8l8 8l8 -8v-64q-64 -48 -64 -96l8 8h8q48 -32 96 -32l144 40q68 -152 104 -152v24l-72 120h80l16 16 q-6 26 -72 32v8q32 100 40 184h24v8q-48 0 -48 72l-40 64v24q0 68 72 176l8 24h-8l-56 -88v16q0 72 32 128q126 -50 160 -96l-136 -152h16v-8q24 0 112 56q56 12 56 32h-40l24 24h16q80 -142 80 -288v-48l-8 -8l8 -8v-16l-8 -8v-8l-96 32l-104 -8v-16l128 -24l8 8h8l8 -8 l8 8h24l16 -16q0 -118 -160 -240h-8v-8q68 0 88 -104l8 8h8q68 0 104 -296v-40q0 -316 -248 -432q-64 -40 -216 -40q-22 0 -88 80v8l8 32l-8 32h8q-16 32 -16 88v16l16 16q24 0 24 -104h8q0 88 32 100l104 28q54 -102 104 -136h8l8 32q-64 48 -64 88q20 0 24 32l-24 64 q32 120 48 120l8 -8v16q-40 0 -40 144q-38 128 -240 128h-48q0 -34 -32 -48l-16 24l8 48v8h-8q-6 -40 -24 -40h-24v16h-8q-44 -32 -80 -32l-8 8v96q0 16 24 16v8q-32 0 -32 24v192l-8 -8l-8 -24h-8l8 -8l-24 -304h-48zM192 1220q14 -64 24 -64l-8 -40v-144l-8 -8l8 -8v-80 h16v192l8 8l-8 8v40q30 20 48 168h8v16q-40 0 -40 72l8 8l-8 8h-16l-16 -72l16 -16q-26 0 -32 -88zM200 284q2 40 16 40l-8 8l32 88h24l96 -32v-16l-8 -8l8 -8v-8l-16 -48l8 -48l-8 -40l16 -16l-8 -40h16v-32h-8zM232 796q80 76 80 120v16q-80 -88 -80 -136zM344 956h32v8 h-32v-8zM352 812h56v16l-56 -8v-8zM456 1636h8v72h-8v-72zM496 780h16l16 88h-16l-16 -72v-16zM624 836h40l56 8v8h-40l-56 -8v-8zM672 1348l16 -16h8q112 0 112 32v8l-8 -8h-8l-8 8zM680 628l40 -8q112 18 112 40h-16l-56 -8l-8 8v8l8 24h-8l-24 8l-32 -24v-40h-16v-8z M704 404l16 -16h48v24l-24 8l-40 -8v-8zM728 468q70 -24 160 -24h48l16 16l-72 16h-152v-8zM792 1292l16 -16l32 8v16zM864 724h16l8 24h-24v-24z" />
<glyph unicode="c" horiz-adv-x="984" d="M80 332v16l16 16h8l16 -16l-32 -24zM80 428v8q0 16 64 16v8q-64 8 -64 24v24l8 8v8l64 -24h80l16 -16l-112 -112zM80 596v176l8 8v8l56 -8h48l40 8q84 -70 112 -120l-8 -8l8 -40v-40l-32 -32h-8q-98 84 -144 96q-26 -4 -72 -56zM80 900v8l8 8v8l56 -24v-16h-48zM80 964 l16 16v8l-16 24v160q8 24 48 24l8 -8v16h-40l-16 16v136q0 218 232 344l24 -8v-56l16 -16h24l32 32v16l-32 40q0 40 128 40q110 0 176 -56l-224 -216l-24 16q0 -24 -88 -80l8 -8q-4 -72 -16 -72l8 -8v-16l-8 -8l8 -8v-64l-32 -32h-8l-8 40l32 24v8l-72 16l-48 -32l-8 8h-8 q0 -22 -40 -40q18 -48 56 -48v-16h-24l-32 24h-8l32 -40q0 -16 -32 -16l8 -8v-8l-8 -8l-40 8h-8q0 -12 56 -40v-8l-24 -8v-8l16 -16l-16 -32l8 -24l-16 -16h16v-16h-8q-48 8 -48 24zM96 276l208 200h24l16 -16l-8 -8v-8l8 -32l-8 -8l8 -40v-24l-8 -8v-8q24 0 80 -64l40 -8 h56q84 0 120 128v232h8q18 0 24 -56l-8 -56q0 -30 48 -56l16 16l184 -40v-48q0 -16 -24 -16l-40 8q0 -16 -64 -40l-40 -56l16 -16q-24 -24 -24 -56l-16 -16l16 -32l-8 -24q16 0 16 -40h16v-8q-94 -96 -224 -96h-56q-162 0 -256 120l24 8v8h-32v24l16 24q-128 30 -128 112z M352 140h8v32h-8v-32zM536 1468v16q170 184 192 184q20 0 72 -64q0 -16 -24 -16v-16l88 -48q40 -100 40 -160v-152h-16q0 24 -16 24l-48 -16h-32l-8 8l-88 -16l-24 8v-16h-24l-16 16v48l16 16l8 -8l16 16h16l8 -8h8q0 24 32 24l8 8v16l-40 8h-32v-24h16v-16l-40 8l-8 -8 l-16 96l40 48l-40 32l-64 -16zM672 1468h8l8 8h8l16 -16l8 8v8l-16 16zM728 1244h32v8h-32v-8zM736 628v8h40q16 0 16 -24q26 0 56 24h40l16 -16v-24q0 -26 -144 -40h-8zM760 1260h32l-8 24h-24l8 -8v-8z" />
<glyph unicode="d" horiz-adv-x="984" d="M80 36v16l8 8l-8 8v192l32 32l-8 8v8q0 24 64 24l-16 40q18 56 56 56v8q-32 0 -32 16v8q24 40 48 40l88 -16l16 24v8q-92 32 -176 40q-8 56 -48 56l-24 48v16h88l48 -8l32 8l8 -8v-8l-8 -32l32 -24l24 16q40 -10 40 -24v-168l-24 -32l24 -32v-72l-256 -256h-8zM80 756 v112h16v-48l240 232h8v-264l-16 -24l16 -48v-40l-24 -24l-8 8l16 56l-24 64h-32q0 -32 -24 -32h-8l8 8v8h-56q0 -24 -64 -24v8l-8 -8h-24zM80 884v16l16 16l8 -8v-8l-16 -16h-8zM80 956v8q0 16 24 16l64 -8v-8l-32 -32h-8q-42 0 -48 24zM80 1060v56q0 16 24 16v16 q-24 0 -24 16v104q0 16 80 16l-8 8v8l-8 -8h-24l-16 16l144 152h-48l-112 -104l-8 8v344l16 16h40l-8 -88q22 -72 48 -88l24 32l8 8h8q0 -14 48 -24l48 -168l24 16h8v-88q0 -16 -40 -16v-16q32 0 32 -16v-8h-16l-32 8l-32 -8v-8q88 0 88 -16v-104q0 -16 -40 -16 q0 -46 -48 -72h-32q-30 0 -64 40h-8q-28 0 -64 -32h-8zM152 1700v24h48q12 0 40 -104l-24 -16l-32 88l-8 -8h-8zM168 1292h96l-24 24l-8 -8h-16l-8 8l-40 -8v-16zM184 4l160 160h8v-8l-152 -152h-16zM184 404q0 -16 24 -16h16v8zM232 12l272 256q108 0 120 80q16 0 16 72 q42 40 72 40h16l8 -8q88 14 88 32l-16 16l-8 -8l-40 8h-24v8l112 120h-24l-96 -88v8q78 96 104 96l-32 24q-48 -8 -48 -24v-8h24v-16h-16v-8l-80 16l-32 -32h-8v16l8 8l-8 8v64q0 14 56 24v8q-52 0 -56 24v336l8 8v8l40 -8h16l24 24l-72 16l-8 -8l-8 8v120l16 16l8 -8h8v8 q0 16 -24 16l-8 8v56q0 20 184 192h16q64 -114 64 -256v-56l-40 -32h-120l-80 -24v-8l72 -32h56l8 -8l96 24l8 -8v-232l-16 -16h-8l-24 8l-152 -24q0 -24 88 -24h48l56 8l8 -8v-408q0 -326 -312 -432q-68 -16 -176 -16h-168zM272 1716l8 8h232q168 0 280 -136l-176 -176h-8 q-56 34 -56 48l72 144q-10 40 -24 40q-64 -122 -64 -184l-8 -8h-168l-16 16v16l16 16q-8 38 -48 72v16l24 24zM280 1204h32v8h-32v-8zM392 204v8l40 40h8zM400 1476l8 -8h24l16 56v16l-16 16q-22 0 -32 -80zM664 996h40v8h-40v-8zM688 500v8l16 16h8zM768 1436l32 -24l8 8h8 l8 -8h8q0 24 24 24v8l-40 8h-32zM832 340l16 -16h24v16h-40z" />
<glyph unicode="e" horiz-adv-x="904" d="M80 12v32l256 256h16v-32h456l16 -16v-240l-16 -16h-712zM80 284v248l8 8l-8 8v72l16 16l40 -8q0 16 24 16l24 -8q0 32 -40 32l-64 16v704q0 12 104 48q0 20 32 56v32q0 28 -88 40l-48 -16v160l16 16h80q12 0 40 -64h40l24 16l-8 8v24l16 16h344l192 -192v-56l-16 -16 h-456v-104l-8 -8v-8l8 -8l-8 -8l-8 8l-64 -8v-8q80 0 80 -48l-8 -32l8 -40h-8l8 -8v-32l-8 -8l8 -8v-144h328l16 -16v-232l-16 -16h-336l8 -8v-8l-8 -8l8 -8v-80q0 -16 -80 -16v-8q80 0 80 -24v-24l-264 -264h-8zM184 932l40 -16q64 14 64 32q-4 24 -64 24l-40 -8v-32z M248 556h80v8l-24 8l-56 -8v-8zM296 1404h24l8 40l-24 24h-8v-64zM368 140h8v32h-8v-32zM504 1572h96v8h-96v-8zM624 908l40 -8l8 8v8h-48v-8zM776 1716v8h32l16 -16v-8l-16 -16z" />
<glyph unicode="f" horiz-adv-x="904" d="M80 12v776l16 16h24v-16l-8 -8v-8h16l24 8l16 -32l80 40v40l16 16h16q56 0 56 -40l-8 -56l16 -16v-584l-120 -152h-128zM80 892v456h8l256 -256v-96h72q16 0 16 -24h8v16h8l32 -24l16 16l56 -56l-24 -8q24 -30 24 -56v-8q0 -16 -24 -16l-8 -8v-24q0 -40 32 -40v-8 l-24 -24h-128v8l8 8v8q-16 48 -32 48l-8 -8v16l32 16h24l72 -32v8l-72 64v8l16 24q-32 0 -32 16v8l8 8v8h-8l-32 -8l-16 32l-8 -8h-24l-8 8h-8l-24 -24h-8l-8 8h-8l-8 -56l8 -24l-8 -8h-8q-8 24 -48 24l-40 -16q-80 8 -80 24zM80 1492v216l16 16h560v-24l40 8h56v-16 l-80 -80h-8v80h-8v-104l-120 -120l-32 -8h-120l-8 8l-32 -8v-216h-16zM96 508q24 -48 48 -48l-16 -24q24 -28 32 -152q54 -122 104 -152l40 32l-8 40v16l8 8l-8 8l16 192l-72 48l-8 -8h-16l-120 48v-8zM168 1148l8 -8v-8l24 8v8h-32zM168 1580l24 -32q32 8 32 48v8 q0 18 -40 24v-8zM216 500l8 -8v-8q72 20 72 72q0 12 -32 24q-48 -16 -48 -64v-16zM248 644h40v8h-40v-8zM408 1484h8l8 32l-8 8h-8v-40zM568 748v8l8 72l-8 24l8 8h8l112 -120l-8 -8h-104zM576 1460v8l240 240h8v-232l-16 -16h-24l-16 16v96q0 16 48 16v8q-48 0 -48 32v8h-8 q0 -40 -24 -40v-8q24 0 24 -16v-96l-16 -16h-168zM600 964v16l16 16h16q14 0 32 -48l8 8h8l16 -16v-32l-16 -16z" />
<glyph unicode="g" horiz-adv-x="992" d="M80 420l8 32l-8 24h8q282 -266 488 -488l-8 -8h-104q-256 0 -368 312q-16 34 -16 128zM80 860v48l16 16q16 0 16 -24l-8 -24l16 -16l-8 -8v-8h8l24 8l16 -24v-8l-32 -32q-48 28 -48 72zM80 1028v8l8 8h8l8 -8v-8l-8 -8h-8zM80 1092h8l-8 8v16l8 56l-8 72v56 q0 328 312 432l112 16q232 0 360 -232l-8 -8q32 0 48 -112l-264 -264l-8 8v104h16q6 -40 24 -40l64 72v24q0 26 -24 56l8 8v8h-8l-64 -64h-8q-10 134 -72 144v24l8 8v8h-8l-24 -16l-40 8l-56 -8l-24 8l-64 -80l-16 -72v-88l-56 -56h-24q-30 24 -56 24q0 -80 -64 -80l-40 24 h-8l32 -40v-8q-24 -18 -24 -56h-16zM136 780l24 24h8q24 0 24 -32q24 0 24 -24h24v-16l-24 -24h-8zM168 1292l16 -16q56 8 56 24l-8 8h-48zM224 684v8l32 32h8q24 -8 24 -48h-8l-8 8h-8l-32 -8zM272 204h16l16 16v8zM304 612v8l16 16h24v-40l-16 -16zM488 740v216l16 16 q60 -72 120 -72l8 -8l8 8l8 32q-64 8 -64 24l8 8h8l8 -8q68 10 96 40h120q0 -24 24 -24l8 -8v-16q0 -16 -48 -24l-8 8h-16v-8q22 0 40 -40q24 0 24 -24h8q0 104 48 104l8 -8v-136l-8 -8l8 -8v-192l-80 8q-48 -8 -48 -24l16 -16h72l24 16h16v-72l-16 -16q-42 32 -88 32h-24 q-62 0 -88 -48v-16q60 -64 144 -64l72 32v-32q0 -198 -112 -296q-184 170 -184 192l24 104h8q110 -80 144 -80l-8 8v24h40q0 16 -80 32l-112 96v32l8 8l-8 8v184h-128zM592 1524q0 -16 24 -16l56 16v16l-48 8zM664 284l16 -16h16l8 40v24l-16 16h-24v-64zM672 708h16v-8 l24 8v16h-40v-16zM672 1132v8l72 72h144v-8l-72 -72h-40l8 40h-8l-24 -8v8l8 8v8l-24 -16l8 -40h-72zM768 1228v8l136 136l8 -8v-120l-16 -16h-128zM768 1412h8l8 24h-8l-8 -8v-16z" />
<glyph unicode="h" horiz-adv-x="1000" d="M80 12v288h32v8q-32 0 -32 16v56l16 16h144q0 24 -88 24v8l-48 -16h-24v576q0 16 24 16v8q-24 0 -24 16v32l16 24l-16 16l8 8l56 -8h88l48 16q0 48 -120 48v8l-72 -16l-8 8v216q0 16 24 16v8q-24 0 -24 16v176l96 96h8l160 -160v-24q-14 -32 -72 -32v-8q72 -2 72 -24v-16 l-16 -16h-8l-32 8l-32 -8h-16l-24 16q0 -18 -40 -24v-8l40 -8h112l16 -16v-248l-112 -120q48 0 48 -16l-24 -24h8l72 72h8v-40h208v-24l-8 -8l16 -64h16v16l-8 80h80v40l8 8l-8 8v40l8 8l-8 8v32h16l8 -80v-80l-8 -96l40 32h8q0 -52 -40 -128q32 0 32 -16v-72l8 -32l-8 -8 v-8l24 -184h8q16 144 32 144q0 -24 24 -24l8 -8v-48q22 0 80 -40l24 8l8 -8v-8l-8 -8l8 -8v-24h-16v-8q24 0 24 -16v-408l-16 -16h-240l-16 16v368l8 8l-8 8v144q0 16 24 16v8l-24 32v88l8 8l-8 8v8l8 8v8h-96l-32 32v16l8 8v8q-103 40 -185 40h-15q-136 -6 -136 -48 q18 -26 144 -56v-712l-16 -16h-232zM80 1628v80l16 16h56l16 -16v-16q-16 0 -80 -64h-8zM120 1484l8 -24h16l16 16v40l-8 8v8l64 64v32q0 16 -48 24q-48 -16 -48 -40l8 -56l-8 -8h16zM232 1716v8h96l16 -16v-96h-8zM648 1212l8 8h8l24 -32v-8l-32 -24zM648 1332h8l-8 8v8 l8 32l-8 24l8 8v8l-8 48l8 8l-8 8v16l8 8l-8 8v16q6 24 64 24h120l80 8l8 -8v-24l-48 -32v-8l48 -40v-24h-40l-8 8l-40 -16l24 -64v-8h-8l-136 -8v-8q112 -6 112 -24l-56 -16l16 -24l-56 -48q-80 58 -80 112zM648 1684v24l16 16h24l24 -16h24l64 16h104l16 -16v-40l-16 -16 l-80 24v8l-40 -8h-16l-48 8l-48 -16h-8zM664 340h32v16h-32v-16zM688 324l24 -8h8v8l-24 8h-8v-8zM720 388h56v8h-56v-8zM752 620v16l8 48l-8 32l32 16q0 24 -24 24v8l16 48q-24 8 -24 48v104l56 56h24q88 0 88 -24v-288l-112 -40l-32 -48h-24zM760 244h48v8h-48v-8z M848 708h40l-16 16h-24v-16zM872 852l8 -8v-8l24 8v8h-32z" />
<glyph unicode="i" horiz-adv-x="424" d="M80 12v64q0 16 24 16v24l-24 120v152l16 16l8 -8l8 8h32l8 -8l184 32l8 -8v-408l-16 -16h-232zM80 572v312l8 8v8l88 -8l80 8v8l-16 16h-40l-72 8l-8 -8h-8l-32 16l8 8l-8 40v48l32 56q-32 0 -32 24v24q0 16 40 16v8q-40 0 -40 16v80l16 16l8 -8q56 20 56 32h-8l-8 -8 q-64 8 -64 24v40q74 104 160 104h16v16l-40 8v8l120 120h8v-216l-8 -48l8 -40v-40l-16 -16h-120l-56 -8l-8 24h-16q0 -32 -24 -32h-8l8 -8v-8l8 8l136 -8h32l56 8l8 -8v-160q0 -16 -64 -16v-8q64 -8 64 -24v-304l-16 -16l-8 8q-80 -14 -80 -40q0 -16 104 -40v-88l-8 -8v-8 q-64 0 -64 64q-16 0 -16 -40l-8 -8h-8l-8 8h-8l-8 -8q-56 6 -56 16l-8 -8h-40zM80 1652v32l16 16h40v-8l-48 -48zM208 1124h40v8h-40v-8zM232 1708v16h104v-16h-104zM272 828l8 -40h16l16 40q-16 0 -16 40q-16 0 -16 -40h-8z" />
<glyph unicode="j" horiz-adv-x="736" d="M80 12q18 184 40 184l8 -8l24 24h24q136 0 192 88q24 38 24 80v152l8 8v8l184 -16l8 8h8l24 -8l24 8v-16l-24 -32v-16l32 -40v-80l-216 -312h-8l-8 8l-96 -64l-104 -8l-16 16h-8l-16 -16q-104 14 -104 32zM392 604v8q48 64 96 64v8l-16 16l56 48h8v-16h8v8l-8 24l112 104 h8v-248l-32 -8l-16 16q0 -16 -80 -24l-8 8l-40 -8h-88zM392 700v56h16v-56h-16zM392 772v176h8l8 -8h8l-8 -56v-8l16 -16q42 0 72 48v8q0 16 -64 16l16 16h16l8 -8l8 8h8l8 -8l8 8h56q0 18 32 32h8v-16l-112 -112q-16 0 -72 -72l-8 -8h-16zM392 1300v24l16 16l168 -8l72 8 l8 -8v-88l-8 -8v-8l-96 8h-40v8l8 32l-8 24h-40l-8 8l-56 -24zM392 1380v32q0 16 80 16v8q-80 0 -80 16v80l24 24l88 -16v-8q-8 -24 -48 -24v-8q132 0 168 -56v-24h-40v-16q72 -6 72 -24v-8h-8l-224 8l-24 -8zM392 1596v40l16 16l32 -32v-16h-16l8 -8v-16h-24zM392 1716l8 8 h240l16 -16v-264l-16 -16l-80 104q80 20 80 32l-80 16l16 24q-28 24 -96 24l-32 -8l-8 8v16h96l56 16v24l-96 24h-32l-40 -8v8l-8 -8h-8zM400 196l16 -24q48 16 48 64l-8 8h-32l-24 -24v-24zM528 380l16 -32q56 6 56 56v8l-32 8q-32 0 -32 -40h-8zM560 692q18 0 24 -40h8v8 l-24 48h-8v-16z" />
<glyph unicode="k" horiz-adv-x="1064" d="M80 60v96h16v8l-16 24v208h16l32 -8l24 8v16h-16v8l-8 -8h-48v104q0 46 136 208h8l-8 8v8q134 216 168 216v-16h16v16h80l8 -8l8 8q136 0 136 -56l16 -32q0 -16 -56 -16v-8q72 0 72 -16q-30 -60 -48 -64h-72l-24 16h-32l-40 -8v-8l24 -40h40l8 -8l8 8l56 -16 q-88 -146 -104 -152q-20 0 -56 136q-16 0 -80 -152h-16l-8 8l-8 -8h-8l-8 8q-32 -12 -32 -24l8 -8l8 8h16l8 -8l8 8h16l16 -16v-144q0 -22 -176 -288h-24v16h-8v-16l16 -16l-48 -64h-16v8l16 24v16q-24 0 -24 16zM80 708v160q0 12 96 32v16q-96 8 -96 32v8l16 16h32l32 -8 l8 8q88 -8 88 -24l-160 -240h-16zM80 1364v40q0 16 32 16v16q-32 0 -32 16v200l16 16h24l-8 -40v-16q8 -24 48 -24l32 24l24 -32v-8l-8 -8v-8l32 -16h16v-16h-24v-8q80 0 80 -32l-136 -136h-80zM144 1716v8h184l16 -16v-136l-16 -16h-24l-96 96q0 16 88 16l8 8v8 q-160 12 -160 32zM168 268l32 -8l16 48l-8 8h-8l-32 -32v-16zM184 220l16 -16h24v16h-16v8zM224 1236v8l112 112h8v-72l-16 -16h-40q0 -32 -16 -32h-48zM352 836q8 -48 96 -48q78 0 128 88q0 36 -96 48q-32 -24 -72 -24zM400 1236l48 96h16q24 0 24 -32q-18 -46 -72 -96h-8z M480 1380q8 24 48 24l8 -8l8 8l8 -8v-8l-24 -32l-8 -8h-8zM536 1196v24l16 16h8l32 -32v-8h-56zM544 1508l64 8v8l-48 16q52 136 144 136l8 8h8l-16 40h56q0 -44 -40 -64v8l-24 -8v-32q0 -38 -104 -168h-16q-14 0 -32 48zM560 340v16q164 254 184 264h8l176 -440l-40 -72 l-184 120l-8 -40l168 -112l32 8l8 -32h8q24 0 24 32l8 8h24l16 -48l-32 -48h-8l-40 40q0 -24 -32 -40h-168q-26 0 -144 344zM584 1284q12 32 24 32h16l56 -112l-8 -8h-8q-80 64 -80 88zM632 1684q16 36 32 40h24v-8l-40 -40l-8 8h-8zM640 1348v24q94 112 192 240h40 l-160 -344h-16zM840 1668q34 56 48 56h16l24 -24q-28 -56 -40 -56h-24z" />
<glyph unicode="l" horiz-adv-x="872" d="M80 12v432l16 24l-16 64v80l112 80l8 32q-8 48 -80 48l-32 -8l-8 8v160l8 8v8l8 -8q98 18 152 48l24 -8l16 16l8 -8v16h16q0 -24 24 -24l8 -8v-576l-8 -216l8 -8h8q16 0 48 96h376l16 -16v-240l-16 -16h-536l-24 16l-16 -16h-104zM80 1180v16l8 8v8l56 -8h72l40 8v8h-96 l-16 16l8 8v8q0 24 -72 48v32l8 8l-8 8v248l8 32l-8 32l16 16h48v16h-48l-16 16l16 16h232l16 -16v-264l-16 -16h-96l-32 8l-48 -16v-8h176l16 -16v-128l-8 -96l8 -8l-8 -8l-40 8l-24 -8l-56 8h-120zM120 1564l88 -24h24l24 24l-136 16v-16zM152 1652l8 -24h8l8 56v32 q-16 0 -24 -64zM192 500l16 16v56h-16v-72zM208 780l64 -24l8 8v24q-64 0 -64 48v32h-8v-88z" />
<glyph unicode="m" horiz-adv-x="1368" d="M80 12v936l16 16l32 -8l24 8l8 -8v-8l-64 -64v-24q0 -56 104 -56v-8l136 40l8 -8v-96q0 -16 -48 -16l-8 -40q0 -20 56 -40v-256l-8 -8v-8l-72 24h-64l-40 -24q12 -56 136 -56l48 16v-312l-16 -16h-232zM80 1156v280q0 16 64 24v32q-64 8 -64 24v56q0 12 56 40h48v16h-48 l-8 8l-8 -8h-8l-32 8v40h56q0 14 -56 24v8l16 16h216v-8l-8 -8v-8l40 -8l8 32h24q0 -44 30 -50q50 -14 52 -16q30 -22 30 -102l24 -136l-8 -8h-88l-32 -16v-8l96 -8h32q20 0 40 -152l-8 -8l-336 32l8 -8v-8q0 -16 -32 -16q0 -24 168 -24v-8l8 8h32l8 -8l72 16q96 0 96 -56 l16 -88l-48 -16v-24l40 -32l16 16q40 -142 96 -488h8q116 648 136 648q296 0 296 -40h-128l-176 -8v-16l192 -8l32 8l16 -16q0 18 80 24l-8 8v16q152 0 152 -32v-1088l-16 -16h-232l-16 16v472q24 0 24 24l40 8l8 -8h8l24 8v-24q-24 0 -24 -16q0 -22 72 -40l80 32l-16 24 l40 16q0 10 -72 32q-20 48 -88 48q-44 0 -88 -24l-8 8v472h-8q-82 -462 -104 -464q-96 -6 -96 -40q0 -12 80 -64v-8q0 -78 -40 -168l-64 8q-110 0 -152 -56v-8q0 -24 56 -24l16 -16l8 8h8l8 -8l8 8h48q48 0 48 -24q0 -64 -48 -64q-32 0 -32 -16q56 -18 56 -32 q-6 -80 -24 -80h-192q-16 0 -160 640l24 48q-46 0 -80 192q20 0 40 56l-8 8l8 8q-32 0 -32 16h8l-8 8v16h24q16 0 24 -48l8 8h8l8 -8h8q0 16 24 16v16q-34 24 -120 56l-216 80q0 16 -32 16l-8 8v8l-8 -8h-8zM136 1524h168v16h-48l-120 -8v-8zM168 1340l96 -24v16l8 8l-8 8 l-72 8h-8zM168 1380h72v8l-56 8h-16v-16zM200 1436l80 -8l48 8v8l-56 8h-56zM336 1532q8 -32 48 -32q42 0 48 24q0 18 -72 24q0 -16 -24 -16zM384 1580h32v8h-32v-8zM432 1324h88v8h-88v-8zM504 644h40v16l-40 -8v-8zM520 900l8 -8h56l16 16l-32 32l-24 -8l-8 8l-16 -24 l8 -8zM808 916h8l8 32q-16 0 -16 -24v-8zM824 1004h8v32h-8v-32zM824 1204l80 440l16 48h40v8q-40 0 -40 16l8 8h344l16 -16v-328h-16q0 24 -40 24v8l8 40l-16 16v56q-40 0 -40 24l8 24q-96 -72 -96 -152h-8l8 -8l-16 -96l8 -56l-16 -16v-16q32 0 56 -48q42 44 152 48l8 -8 v-56l-16 -16l-224 16v24l-8 40h-24v-40l-16 -16q-176 14 -176 32zM912 892h8v32h-8v-32zM952 1268h32v8h-32v-8zM1128 276l24 -16h8l8 48l-8 8h-8zM1152 1652q0 -28 56 -40q48 16 48 32q-40 24 -80 24zM1176 996l8 -8v-8l24 8v48l-32 24v-64zM1184 148q10 -88 56 -88 q32 88 32 128l-24 96h-16q-40 -16 -48 -136zM1208 1244v16l16 24l-8 8v8q56 20 56 48h16v-96l-16 -16zM1216 732h48v8l-24 8l-24 -8v-8z" />
<glyph unicode="n" horiz-adv-x="1056" d="M80 16v96q0 14 48 32v8q-48 8 -48 24v1288q0 20 352 72q80 -238 80 -280l-16 -48h8l8 8h8l40 -104l-8 -8l16 -16q0 -16 -24 -16l-8 8l-40 -8h-16l-8 8h-8l-16 -16l-48 8h-8v-8q24 0 24 -32q36 -26 184 -48l16 -64q-86 -18 -136 -72h-16q-64 0 -80 128q-12 2 -32 96h-8 v-208q0 -30 -96 -40l-32 8l-24 -8l-8 8q0 -24 -32 -24q0 -28 88 -40l96 16l8 -8v-352q0 -42 -24 -48h-16l-16 16v8l-8 -8h-48v-16l64 -8q-56 -48 -56 -104v-16q18 -48 104 -64v-40q-4 -16 -40 -32v-8q0 -16 32 -16l8 -8v-64l-16 -16h-232zM80 1496v216l16 16h272 q12 0 64 -176l-344 -64zM104 640h40v8l-32 8l-8 -8v-8zM104 976h24q80 16 80 40h-16q-88 -12 -88 -32v-8zM216 624q0 -16 40 -16v-8l8 8h48v16l-40 8zM424 1264l40 -8l8 8v8l-24 8l-24 -8v-8zM448 768q104 18 104 40l-16 16v8l96 16q24 -36 64 -200q-56 -10 -56 -32v-8 l48 -8l56 16q0 16 -24 16l-8 8v136l8 8v8l8 -8h8l56 8l152 -120l-128 -112l-16 16q-8 -40 -72 -96h-24l-8 8q-96 -18 -96 -56l8 -8l-8 -8q-60 0 -88 160zM480 744q0 -16 24 -16l24 8v8h-48zM512 648l16 -16h40l40 8v8l-56 8zM576 392l8 -8l88 16v-8q-18 -56 -64 -104 q-32 50 -32 104zM712 864v152l16 24l-16 24v112l16 16h8l8 -8l24 8v8q-56 0 -56 16v352q0 20 200 40l64 -72v-440q0 -20 -112 -32q0 -16 -48 -24v-16q0 -20 88 -32l64 8l8 -8v-48q0 -24 -32 -24v-16q32 -4 32 -24v-176l-24 -24q-234 168 -240 184zM712 1600v48h24v8l-24 32 v24l16 16h56l104 -104v-8l-168 -24zM720 0v8l248 256h8v-160q-32 0 -32 -16v-8l8 8h24v-72l-16 -16h-16q-86 0 -136 56l-24 -24l8 -24l-8 -8h-64zM720 840l40 -32l-8 -8h-8q-18 0 -24 40zM784 1072l40 -8l40 8v16h-16v8l-8 -8h-8l-24 8l-24 -8v-16zM824 1720v8h136l16 -16 v-24h-16v-16h16v-24l-24 -24h-32zM896 872h72l-16 16l-56 -8v-8zM928 48l32 -16v8l-24 16h-8v-8zM936 1608l8 8h16l16 -16v-24h-8z" />
<glyph unicode="o" horiz-adv-x="984" d="M80 328v128l16 16l56 -56l-16 -16v-8h40l16 -16l-48 -16q8 -32 48 -32h32v-16l-72 -56l8 -24l-8 -8h-24v8l8 8l-16 112h-16q0 -24 -16 -24h-8zM80 864v16q24 28 24 120l-8 24l8 8l-24 112v32q0 16 24 16l8 8v8l-8 32l48 8l40 -48v-8h-40v-8q86 0 160 -104l32 -32v-40 l-8 -8l8 -8v-8l-24 -24v8l-112 -48v8l-112 -64h-16zM80 1344q42 360 312 360l8 -8v-232l-64 -80l-24 8q-32 -12 -32 -24v-16h8l56 8v-72l-8 -8l8 -8v-104l-8 -8l8 -8v-40l-16 -16q-56 42 -88 96q-24 0 -48 40v8l40 8l8 -8l16 48l-56 16h-80zM120 488l96 80q4 -40 64 -40v-16 q24 0 24 -16l8 8h16l16 -16v-32l-16 -16h-104l-56 -8zM136 200q70 24 136 88h8l288 -288v-16h-88q-190 0 -296 152q0 26 -48 64zM256 352v8l128 -88l8 8h8q42 -24 80 -24h8q144 0 144 184v40q16 0 16 40q56 24 56 40h16l-8 8v8q0 34 32 64q20 0 112 -104v-8h-16l-24 16h-24 q-16 -16 -96 -24v-16l112 -16h96v-128q0 -146 -104 -224q0 -24 -16 -24t-24 48h-8q0 -40 -16 -40t-16 24l-24 -16l-40 8v-16q0 -44 40 -56l16 56q32 -12 32 -24q-70 -96 -144 -96zM256 376v8h16l8 -8l32 16q32 0 32 -40l40 -56v-8h-8zM328 1632h40v8l-40 8v-16zM328 1704v16 l64 16l8 -8v-8zM440 1504l8 64l-8 32l8 72v32q0 24 112 24v-16h-56l-8 -120v-88l-16 -16h-24zM440 1744l8 8h16l16 -16l-8 -8h-16zM496 1736l16 16h32v-16h-48zM536 208q0 -48 80 -104h16l8 40q0 46 -64 96l-8 -8h-8l-24 16v-40zM592 1712v8l16 16q296 -126 296 -368v-16 q0 -16 -72 -16v-8q72 0 72 -16v-32q0 -24 -64 -32l8 -8v-16h-16v-8q66 -6 72 -32l-120 -32h-56v-16q32 -2 32 -32l80 -16l56 8l8 -8v-56q0 -18 -120 -40v24l8 8v8q-16 0 -160 160v48q0 16 64 24q0 20 64 32l-8 8v8q0 22 40 24v8q-50 0 -64 48l-8 -8h-8l-56 16v16l40 -8 l-8 24l32 40l-8 24h8l24 -8h8v8q-40 4 -40 88q-24 14 -24 56q-22 0 -48 48q-24 0 -40 24h-8zM632 1032v96h16q48 -72 48 -96h-40l-8 -8h-8zM656 1176h32v8h-32v-8zM784 640v8q0 16 40 16l-8 8v8l16 16h8v-40q26 0 56 24h8v-152h-8zM808 872v24q4 16 40 32l48 -16v-16 l-56 -56zM872 736l24 32h8v-40l-16 -16zM872 968v24h16l16 -16v-16l-16 -16z" />
<glyph unicode="p" horiz-adv-x="976" d="M80 24v224q30 0 80 -64l-72 -80q24 0 40 -96l-8 -8h-16zM80 296v136q64 46 64 88l-40 32l-8 -8h-8l-8 8v208l16 16h80v-8q0 -16 -32 -16v-16l48 -40l24 8q0 -20 120 -64l16 -80h-8l8 -8v-80l-8 -8l8 -24l-8 -8v-8l8 -8v-8q0 -64 -96 -120l-56 24l-8 -8h-24l-24 16 q0 -24 -32 -24l16 -32l-8 -8h-8zM80 904v152l96 96h8l-32 -144h-24v-8q24 0 40 -32v-8l-8 -8l24 -64v-8h-8q-96 0 -96 24zM80 1168v8l24 24h8l16 -16v-8l-24 -24h-8zM80 1320v8l40 24h128l16 32q0 18 -72 40l-104 -24l-8 24l8 8l-8 40v136h8q184 -166 184 -200q0 -24 48 -24 v-16q-18 -34 -64 -48l-40 8q-82 0 -128 -16zM80 1704v8l16 16h32q16 0 40 -104h-8zM88 624q0 -16 48 -16v-8l8 8h48v16l-40 8zM96 376l8 -40h8v32l-16 16v-8zM136 384h40v32q-40 -10 -40 -24v-8zM160 216v8l48 24h8v-8l-40 -40zM192 480q0 -16 24 -16h16v8zM200 776v8 l112 24v8h-32l-8 80h-8v-40l-56 8v8q24 36 24 72h8l-8 8v8l8 8v8l-8 40l8 24l-24 96l8 8h8l48 -8l64 8l8 -8v-40q0 -16 -40 -16v-8q32 0 32 -24h8l-8 -40l8 -56q-88 -8 -88 -24v-8l56 -8h24l-16 -80l8 -24q0 -34 -80 -40l-24 8l-24 -8zM216 1192v8q18 18 120 48l16 -48 l-16 -16h-8l-8 8l-8 -8h-8l-32 8l-48 -8zM240 1544v8h8l24 -24l8 8h8l8 -8h8l24 8l40 -8q18 48 32 48h16l8 -8h8v16l-8 40l24 8l8 -8h16v8l-32 8v16l8 8v8q-24 0 -24 16v8l40 32h56q224 -28 224 -88l-8 -8v-16h8v16h8q16 0 16 -32l24 16l8 -24l-8 -24h8l24 8q48 -60 48 -96 l-24 -16l-56 8h-8l-40 -8v-16q0 -44 64 -80l80 32l8 -8v-32l-208 -24v8q32 42 32 72v56l8 8l-8 8v16l8 8v8h-8l-32 -8q-10 40 -24 40q-40 -72 -72 -72v-24l8 -8v-8l-8 -8l-64 24h-168l-24 -16zM248 616l16 -16h32l16 16v8l-40 8h-8zM288 992h32v8h-32v-8zM472 896v8l8 8h48 v-16h8q0 20 64 56q0 16 88 16v8l-56 16l8 48h16l64 -56q6 64 24 64l24 -56q0 -68 -184 -80l-16 -24l16 -16l8 8h8l112 -24l8 -8h24l24 16h64v-8l-160 -168l-40 8l-32 -8q-36 26 -72 168h-8q0 -48 -16 -48l8 -8v-24l-16 -16l-16 16l8 8l-8 40v64zM592 792l40 -8l32 8v8h-72 v-8zM656 1224v16h72v-16h-16l-8 8l-8 -8h-40zM672 1112l8 8l40 -8h24v-8l-32 -32zM808 1256v8l80 24v-8l-48 -56h-24l8 8v8zM816 936q0 22 72 80h8q0 -96 -32 -96z" />
<glyph unicode="q" horiz-adv-x="1032" d="M80 736v16l192 192l32 -8l24 8l-8 56l8 8h8l8 -8v-128l-16 -24l-40 8h-32l16 -16l-8 -8v-24l40 -40q0 -22 -168 -32v8l-48 -16zM80 1112v16l16 16l8 -8v-16l-16 -16zM96 296h8l24 -8v8q0 56 48 56l24 -8v8l16 16v8l-16 24v8l8 8l-8 8v8q0 16 24 16l-8 8v8q0 30 72 40 q0 48 56 48v-160l8 -56l-24 -8v-8q88 -20 88 -64l8 8h16q80 -24 80 -48l-8 -40l48 -16v-16q-200 -80 -200 -104v-16h64l16 -16l-8 -8l8 -8l-8 -8q-116 12 -256 144q-80 126 -80 168zM96 1168l16 16h8l-16 -16h-8zM104 1464q0 100 200 240l64 24v-8q-122 -136 -144 -136v-8 l-40 8h-8l24 -32l-88 -88h-8zM112 648l24 16h80q58 0 128 32v-64q-40 -6 -40 -24v-8q40 0 40 -16v-16h-8l-24 16q-72 -20 -72 -48h-40q-14 0 -40 80q-48 16 -48 32zM128 1184l32 8l8 -8v-8l-8 -8h-16zM128 1232v16q32 64 136 64v24h16l8 -8l8 8h16v-8l-96 -96h-88zM144 1208 v16h40v-16h-40zM208 808h8v32h-8v-32zM232 872h24v16h-8zM256 104l72 -40h16l24 56q-12 80 -56 80q-26 0 -56 -96zM272 400l16 -16l8 64l-8 24l-16 -16v-56zM328 1456l32 24h24l16 -16l-32 -32h-16zM528 0q0 72 80 72l128 56l8 -48h16l16 16v16q-24 0 -24 16q0 22 112 56 q24 -24 80 -24l8 -8v-152h-40l-8 -8l-24 24h-8q-48 0 -48 -64l-32 -16q-16 0 -120 88q-80 -40 -136 -40l-8 8v8zM584 240l40 56q-24 0 -24 16q24 0 40 112l-8 8v56l8 8l-8 8v24l8 8l-8 8v32q0 16 24 16l-24 32v64l32 40l40 -8h8l8 24l-8 32l40 32l72 -80q72 10 72 32h16 v-224l-8 -8v-8l-120 8h-32q0 24 -32 56l-8 -8h-8l-8 8h-8q0 -16 -24 -16l-8 -24q32 -4 32 -24l-8 -24l8 -8h8l24 8l88 -8h48v-16h-8l-8 8h-8l-8 -8v-16l24 -8l32 16l-8 24h8l24 8l8 -8v-48q0 -16 -32 -16v-8q32 0 32 -24q0 -128 -80 -128l-80 -40q-10 40 -24 40v-8l8 -40 l-96 -40zM624 1648v8l16 72l40 -16v-16l-48 -48h-8zM632 720v8l16 16l-8 8v16h16l-16 24v8q24 0 24 16q-32 0 -32 16t48 16l16 32h8l8 -8l8 8h16l16 -16l-80 -88h8l64 64h8v-16q-8 -28 -88 -72q0 -40 -24 -40zM632 992v8l16 16h8v-24h-24zM632 1064v24l8 8l-8 24l8 8v8 l-8 24l8 48l-8 8v8q0 40 136 40l32 -32h32q26 48 72 48l8 -8v-32q0 -22 -96 -40l-32 8l-24 -8l-8 8l-24 -32q0 -38 88 -40h6q39 0 82 24l8 -8v-8l-40 -32l8 -32h-48q-170 0 -192 -24zM640 904v32l8 8v8l80 -16v-8q0 -18 -88 -24zM648 1104l40 -8l8 8v8l-40 8l-8 -8v-8z M664 392l40 -8h40v8l-8 24h8l88 16l-24 24h-8q-26 0 -56 -24h-8l-32 24h-16zM704 1120h32v8h-32v-8zM744 1400v16l112 112q56 -74 56 -184l-16 -16l16 -16v-8l-8 -8v-8l-128 24l16 88h-8l-24 -16zM800 1368h40v8h-40v-8zM824 872v8q0 16 48 32q32 -12 32 -24q0 -16 -72 -24z M880 24l32 -16q24 36 24 72h-40z" />
<glyph unicode="r" horiz-adv-x="1032" d="M80 4v936h8l32 -24l24 24h8v-8l-16 -40h-16v16h-8l-24 -24q48 0 48 -40q40 0 40 -48l8 8h16l56 -48h8v16h16v-32l-16 -24l16 -16l-8 -8v-8l16 -16v-16l-8 -8v-8q12 0 40 -104l8 -8q0 -24 16 -24v-16h-8l8 -80v-64l-16 -16l-96 24q-96 -14 -96 -64q100 -40 152 -40l48 16 l8 -8v-152h-8l-80 16l-88 -48v-16h-8q6 -22 40 -40h48l64 16l16 -24l-8 -8h-8v8l-8 -8h-8l-8 8l-8 -8h-8l-32 8l-8 -8h-8l-40 8l-32 -8v8l-8 -8h-16l-8 8l-8 -8h-8zM80 1380v24h16v-24h-16zM80 1580v128l16 16h16l8 -8l8 8h264l8 -56h8q0 56 16 56h120v-16q-52 0 -56 -24 v-48q16 -32 40 -32v-16l-72 -72h-8q-122 56 -152 56h-48q-18 -72 -40 -72l-8 56h-8q0 -72 -16 -72l-8 8l8 8v8q0 66 -96 72zM96 1412v8l16 16h8l16 -16l-24 -24zM104 684h72v16h-56zM128 724h40l8 -8l56 16v8l-24 24h-64l-16 -16v-24zM144 468l24 -8h16v8l-32 8h-8v-8z M184 396l32 8v24l-8 8v8l-24 -8v-40zM232 388l16 -16h40v32h-40zM520 596v24h8l8 -8h8q0 24 56 56h8q16 0 16 -40q20 -24 48 -24l48 64q-24 80 -40 80h-16l-24 -16l-8 8v32l32 64l-16 16l8 8h8l24 -8l160 16v-8q-12 -42 -120 -136q6 -32 64 -80l8 -72l-80 -16q0 -16 24 -16 l8 -8v-8l-16 -16l16 -32l32 24h-8l-24 -8v8l16 16h16q64 0 64 -96l-216 -264l-40 152l96 56l-48 48l16 48v16q0 12 -32 24q-48 -14 -48 -72h-16l-32 144q80 8 80 24h-64l-8 -8h-8zM600 940v8q0 16 80 24v8h-40v8l48 32l40 -8h24q0 24 56 24l16 24q-24 0 -24 16l80 48l8 8 l16 -16l-16 -16l16 -16v-8q0 -120 -56 -120l-8 -8q0 -24 24 -24v-16q-120 10 -120 40q64 0 64 24l-8 8h-72q0 -32 -24 -32q-16 0 -16 -24h-32l-40 -8zM656 44l32 32l-32 32q14 36 48 56h32q16 0 16 -24l8 8h16v-16l40 8h16l8 -8l40 16v-8l8 8h16q24 0 48 -144l-24 -8l-64 24 l-40 -24h-24l-8 8l-8 -8h-16l-8 8l-8 -8h-16l-8 8l-8 -8h-16l-8 8l-8 -8h-8q-16 0 -24 48z" />
<glyph unicode="s" horiz-adv-x="1024" d="M80 468l8 8h72l40 8v-8l8 8h80l8 8h8l8 -8v-24q-40 -34 -64 -88l-24 -24q-144 0 -144 120zM112 1260v96q0 268 272 376l128 16q290 0 400 -272v-24l-8 -8l-96 8h-128q-16 0 -16 24l-40 -16q-42 48 -104 48q-108 0 -136 -152q-24 0 -24 -24l-40 -8l-8 8h-8l-8 -8h-8 l-32 16q-56 -14 -56 -32l16 -16l-16 -24l24 -40l-104 -24v8zM136 244q100 96 160 96q96 -32 128 -72l-8 -56v-56l16 -16q32 46 40 88h64q96 20 96 56q40 28 40 104l8 8q0 16 24 16v16q-34 0 -48 104l-184 216q-8 64 -32 64h-8l-24 -16l-88 88l40 -8h16v88l-24 24h-24 q-24 0 -24 -88q-30 16 -96 112l8 8v8l-40 40v8l136 -24l8 8h56l8 -8l8 8h8q100 -98 264 -144q0 -20 32 -24q248 -256 248 -448v-32q0 -312 -272 -416l-120 -16h-16l-24 24l8 24q-28 40 -48 40q-56 -20 -56 -72h-16q-122 0 -256 216zM352 1220v8l16 16h16l16 -16l-8 -8h-40z M416 884h16l-8 -40h8q104 0 104 -16q104 16 104 32v8l-64 8v16h24v16h-8q-40 0 -40 -32h-48v8l8 8q0 24 -32 24v8l-64 -16v-24zM416 1124v8h16l-16 24h8q32 -16 32 -48h-24zM448 1060v8h40l80 -72h-16zM584 772q6 -24 64 -24q0 24 32 24l8 8v8l-88 32zM672 828h32v8h-32v-8z M672 1340l8 8h96l96 24h48l16 -16q0 -24 -256 -48v8zM672 1396v16h32v-16l-24 -8zM704 572q8 -32 48 -32h8q36 32 56 32q0 24 -24 24l-8 8v80l16 24h-88v-8q64 0 64 -16v-64q0 -16 -56 -24zM704 812l16 -16h16v32l-32 -8v-8zM744 228l16 -16h8l-16 16h-8zM824 412h64v8h-64 v-8zM864 1388v32h48l16 -16l-16 -16h-48z" />
<glyph unicode="t" horiz-adv-x="976" d="M80 1476v232l16 16h704q16 0 16 -40l48 -32q32 0 32 -16v-160l-16 -16h-48l-8 8l-8 -8h-200v-104l-8 -8l8 -8v-8l-16 -24l16 -24h-8l8 -8v-16h-48l-200 8l-8 -8l-8 8v96l8 32l-8 32v32h-256zM128 1508h40v8l-8 24h-24zM144 1644l24 -32q64 28 64 80l-8 8h-16 q-44 0 -64 -48v-8zM160 1476h32v16h-32v-16zM352 4v240l16 24l-16 16v184q40 34 40 64v16h-16v16q44 208 72 208l16 -16l-8 -40q32 0 32 -40q24 0 24 -64h8q0 24 16 24l16 -16l-8 -40v-16h8q0 48 56 64h8v-616l-16 -16h-16l-8 8l-8 -8h-16l-8 8l-8 -8h-40l-8 8l-8 -8h-16 l-8 8l-8 -8h-32l-8 8l-8 -8h-16l-8 8h-8l-8 -8zM352 676v376l16 16l24 -24h16l32 24h24l8 -8h8l-112 -384h-16zM352 1084v40l24 24h64l56 8l8 -8q-10 -64 -32 -64h-120zM352 1204v32l16 16l232 -8l8 -8h8l-8 -8l8 -40v-168q-20 -48 -56 -56l-8 8h-8l-48 -16v8q14 112 48 112 l-16 16q16 80 72 128h-16l-8 8l-8 -8l-8 -32h-40v24l-8 -8h-8l8 -8v-16h-32q-128 0 -128 24zM456 844q20 96 40 96v-16l-24 -80h-16zM472 1340h96l-16 16l-80 -8v-8zM520 412l24 16l8 -8v-8l-8 -8h16l16 16l-8 32h-24l-24 -24v-16zM592 1540l24 -24h64l8 40l-64 16 q-32 -12 -32 -24v-8z" />
<glyph unicode="u" horiz-adv-x="984" d="M80 332v8h8l-8 8v16q0 104 16 144l104 -48v-8l-16 -24l16 -16l-8 -8h24l-8 8v16h8l8 -8h8v16l-8 8v8l8 8h8l32 -16l8 8h40l16 -16v-8l-8 -8l16 -64l-24 -8v-8q40 -2 40 -24v-8h-56v-8q52 0 152 -48h32q2 -72 24 -72q16 66 104 144q6 64 16 64l-8 8v136l8 48l-8 40h8l-8 8 v360q8 24 48 24v-16l-8 -8l8 -8v-16q0 -24 -32 -24v-24l72 -16l32 16l48 -16h32l64 16l16 -16v-152q0 -18 -120 -32l-8 -8l-40 -16l-32 -32v-8q144 -36 144 -48l-72 -72v-8q30 0 40 -32v-16l-472 -472q-256 134 -256 320zM80 572v768q0 16 32 16v8q-32 0 -32 16v40 q48 0 48 16v32h-8l-32 -24h-8v152l24 24l-24 40v48l16 16h224v-8l-224 -232l32 -8l200 200h8v-416q0 -44 -40 -64h-24q-30 24 -56 24q0 -22 -40 -40v-8l8 -8v-8l-8 -8h-24l-32 24h-8l32 -40v-8q0 -16 -32 -16l8 -8v-16q0 -16 -24 -16v-8q24 0 24 -16l-24 -8l8 -40v-8l-8 -8 l8 -8v-16l-8 -8v-8l32 -24l-16 -24q16 0 16 -32q52 0 64 -72q28 0 64 -48q18 0 80 -80v-16l-16 -16l-16 16q-56 -40 -56 -72h-24q-38 32 -64 32l-24 -8l-16 16l-24 -40h-16zM152 236h48v8h-48v-8zM272 196h8l16 16v8l-24 -8v-16zM304 516l24 32l8 -8v-48h-8zM408 -4l224 224 q0 -24 48 -24v-40q128 64 128 144q24 44 24 88v32l-160 -152h-24v8l176 176l16 -16l56 56h8v-128q0 -24 -40 -24v-8q32 0 32 -32q0 -110 -184 -256q-100 -64 -224 -64l-80 8v8zM624 1084v8l8 8l-8 8v24l8 8l-8 8v32q0 46 32 72v24h-32v40l8 8l-8 8v8l8 8v8l-8 48v16l8 8 l-8 8v272l16 16h248l16 -16l-40 -40l40 16v-648q-40 -32 -80 -32q-60 0 -96 72q-64 6 -64 16l-8 -8h-32zM632 244v8l8 8h16v-8l-16 -16zM640 412h8q120 108 120 128l-8 8q-46 -32 -80 -32q0 -26 -40 -72v-32zM648 1668q40 -54 40 -80v-32l-16 -72l168 168q-72 0 -160 56z M664 684l24 -8l24 8v8l-40 8l-8 -8v-8zM720 1348l32 -32q64 0 72 64l-24 64zM736 588h32v8h-32v-8z" />
<glyph unicode="v" horiz-adv-x="1136" d="M80 1716l8 8h256l16 -16v-16l-8 -8v-8q30 0 64 -312l8 -32q-96 -26 -96 -48v-8l40 -16l40 8v-8l8 8h8l16 -16v-16q-80 -96 -112 -96q-72 -28 -72 -64q0 -46 -40 -64q-16 30 -56 280q22 0 96 64v8q0 56 -120 72l-16 88l8 56q-26 0 -48 136zM176 1580l24 -8l-8 -8v-16 l64 -8l80 120v8l-40 8l-16 -16l-24 8zM208 1452h16v-8q80 8 80 24v16h-48q-48 0 -48 -24v-8zM240 868q178 184 216 184h8l40 -192l-56 -16v-32q14 -32 32 -32l-72 -80l-128 16l-8 -8q-20 20 -32 160zM272 700h8l128 -24l32 8q0 -28 24 -32t24 -32l24 16h8l16 -16l-8 -8v-8 q24 0 40 -184q16 0 48 224l8 8h96v8h-96l-8 8l24 64q36 -16 104 -16h64v8q-32 0 -32 24h8l8 -8h16v8l-32 8l-16 -16h-56l-56 -8v8l24 32h-8l-24 -24h-8q50 392 96 392l8 8l128 -16h16q0 32 -128 32h-32l-16 16q18 208 64 208l48 48l8 -8h8q0 24 160 184l56 56h8 q-104 -616 -120 -632h-8l8 -24q0 -88 -24 -88l8 -8v-24l-200 24q0 -18 56 -24v-8q-38 -56 -80 -56v-32l64 32l-8 8v8l40 40h8l16 -16q-32 0 -32 -16h8l96 16h8l8 -8h8q-12 -136 -64 -136l-40 -16v-32h48l16 -16v-24l-16 -16l-8 8v8l-24 -8v-16q0 -14 40 -24l-112 -584l-8 -8 h-40l-8 8l-8 -8h-16l-8 8l-8 -8h-56l-8 8l-8 -8h-16l-8 8l-8 -8h-48l-8 8l-8 -8h-16l-8 8l-8 -8h-16l-16 16l40 40h32l8 -8l24 8q0 24 -48 48q-32 -4 -32 -56h-40l-8 -8h-8q-24 54 -40 208l32 48v16q-26 0 -40 96l8 32v16l-32 -24l-16 80l8 8q-24 0 -24 80q-12 0 -16 104z M288 1508l16 -16l8 8v24h-24v-16zM376 476h8l56 64h-8zM456 388l8 -8v-8l24 8v32zM480 580h8l24 32h-8zM488 500h40v8l-8 8v8l-32 -8v-16zM592 444l40 -8h16l40 8v8l-40 8h-40zM640 540l8 -8h32v8l-16 16h-8zM744 580l56 -8l32 8v8l-32 8l-8 -8h-16l-8 8l-24 -8v-8z M776 1652q12 72 32 72h168v-16h-40l-8 8h-8l-104 -104zM840 940h8l40 48h-8zM840 1308h64l16 16v8h-40l-40 -8v-16zM1000 1708v16h24v-16h-24z" />
<glyph unicode="w" horiz-adv-x="1496" d="M80 1704l8 24h256q20 0 24 -96l-16 -16h24v-32q-40 -56 -64 -56v-56l40 -8h16l8 8h8l32 -136l-40 -24h-8q-30 0 -64 40l-32 8q-58 -10 -88 -40l8 -8v-8l-24 -24h-16l-8 40v24l16 24v8l-16 24l80 88h-8l-80 -80h-8v8q36 128 56 128l-40 120h-16q-16 0 -16 -32l-8 -8h-8z M160 1224l8 8q150 -32 240 -32v16l-56 8v16l64 16h8l56 -400l-8 -8l-80 24v-8q86 -80 168 -80h16q-8 22 -88 64q16 152 32 152l256 -56l8 8h8l64 -8v24q-170 48 -336 48h-8q20 216 56 216q68 -16 176 -16h24l8 -8l48 8v8l-16 16h-16l-184 40v8l16 24q-4 18 -64 40v8 q16 140 50 162q74 30 150 62v32l-80 16l-80 -16l-8 8l24 104h256q26 0 64 -360l-40 -16v-8h24l8 8h8q16 -26 32 -184l-168 -72v-8h16q78 16 152 56l40 -240l-8 -24q16 0 16 -48h8q0 56 32 56v16l-24 8q0 98 48 128l-32 8q22 192 48 192l8 -8h8q48 26 48 64v8q-72 8 -72 24 q22 224 48 224l40 8l24 -8l48 16q0 46 -88 56h-8l-8 -8h-8l-8 8q6 104 32 104h256v-8q0 -184 -64 -216l-32 -16v-8q24 0 24 -24q32 0 32 -16q-56 -392 -72 -408l-80 8h-56q14 -20 136 -56v-8l-152 -64v8l-24 -8v-24q152 -32 152 -48q0 -78 -24 -112l-128 16l-120 -16h-80v8 l8 8v8q-48 0 -72 40q-104 58 -104 88v48h-8q0 -58 -24 -64l8 -8v-32q0 -56 -32 -56h-16v-8q0 -16 24 -16l8 -8v-8l-8 -8h-112l-8 8l-8 -8h-328q-16 0 -56 272l40 8v8q-48 0 -48 32l-8 40q64 -6 64 -16q56 14 56 32v24l-16 16h-64l-40 -32h-8v8zM160 1256v8h72v-16h-32z M256 680l8 8h448q-36 -360 -56 -360l8 -8l-16 -96l-96 16q0 -12 32 -24l-16 -88l8 -8q0 -70 -88 -120h-112q-18 0 -32 144l48 8v16q0 14 -56 24l-8 40q0 16 24 16v8q-48 0 -64 232l-8 8v8h8l24 -24l56 40h8l32 -24l32 16l-8 40v48h-16q0 -36 -32 -56l-16 40q-50 -4 -80 -32 q-24 0 -32 128zM416 632l152 -32l8 8v16l-136 24l-24 -8v-8zM488 472l88 -16l8 8v8l-8 8h-88v-8zM504 296q8 -56 24 -56l24 32v16q0 44 -32 56zM520 16l40 32h16v-40l-40 -8zM576 744h16v8l-16 16v-24zM608 16v8l8 24h8v-32h-16zM608 112l8 8h8l-16 88l8 8h16l16 -16 l-16 -120h-16zM776 776v24l16 16q0 -16 72 -64h-8q-80 0 -80 24zM784 1296h32v8h-32v-8zM792 680l8 8h152l48 -8l40 8l8 -8l8 8h80q0 -32 32 -32l80 40l8 -8v-8l-24 -144l-56 8v96l-16 -16v-64h-8q-112 96 -176 96h-16l-16 -16q0 -54 216 -168v-8l56 40h16 q-54 -360 -72 -368h-24q0 -16 24 -16l8 -8v-8q0 -104 -56 -104h-24l-8 8l-8 -8h-40l-8 8l-8 -8h-40q-16 0 -16 24h-8q0 -24 -16 -24h-24q-2 0 -24 154q-28 220 -80 454zM856 448h8v88h8l-8 8v104h-8v-200zM880 528l16 -16h40l16 16v8l-40 32q0 -16 -32 -16v-24zM896 1032 l24 -24q48 4 48 48h-16l-56 -8v-16zM1008 208q72 6 72 24v8h-48l-24 -24v-8zM1016 64h8v64h-8v-64zM1056 976l8 -8h16q0 16 24 16v8h-32zM1192 1464h8l56 16v16l-32 8zM1216 1128h40v16h-24zM1352 1472v16h32v-8l-8 -8v-8z" />
<glyph unicode="x" horiz-adv-x="1120" d="M80 1720l8 8h104l-16 -64l8 -40q18 0 32 72l-8 32h152q28 0 104 -272h-264q-32 16 -32 48l32 24l16 -16q50 0 120 56h-16q-40 0 -152 -40q-22 22 -88 192zM200 1424l8 8h248v-8q-2 -16 -152 -88v-8h16q44 0 168 64q32 -52 56 -144q-56 -26 -56 -72v-32h8l8 8h8l8 -32h8 l80 80l-24 56q52 176 72 176h64v-16q-32 0 -32 -16v-8l8 8h8l8 -8h8q0 12 32 24v16h56v-16q-24 0 -24 -16h16q48 0 48 32h72v-8q0 -50 -64 -120l8 -32q-30 -88 -48 -88l-16 16v-80q0 -40 -184 -224l-144 -144h-8l8 48v24h-8q-6 -112 -32 -112h-8l-48 16v-16h-16l56 152 l-56 160l160 48v32h-8l-152 -48h-8q-14 0 -152 368zM312 16l80 80v-8q-20 -88 -40 -88h-24zM344 120v16q82 130 128 176v-8q0 -70 -128 -184zM464 336v8q28 56 40 56v-8q-10 -56 -32 -56h-8zM472 840h8v32h-8v-32zM488 936h8v32h-8v-32zM576 528l80 96h24v-56h8v80 q16 32 40 32v16l-24 -16l-16 16l56 48h16l32 -120v-8h-16v16h-8q0 -52 -144 -200v-8h-8q-22 0 -40 104zM616 984l48 -8q48 36 48 72v8h-40q-18 0 -40 -64h-16v-8zM632 368v8l88 96h8v-64h8v88l8 8h16v-40l8 -120q-30 -18 -120 -24zM640 640v8l24 24h8v-8l-24 -24h-8z M656 1472q82 234 104 256h264l16 -16q-76 -200 -96 -208q-40 0 -40 -48h-232zM664 272l24 8q272 0 272 -48l80 -224l-8 -8h-56l-8 8l-8 -8h-64l-8 8l-8 -8h-56l-8 8l-8 -8h-32q-26 0 -112 272zM696 736v8l40 40v-8q0 -22 -40 -40zM752 128l24 -8l24 8v8h-48v-8zM776 352l8 8 v176l16 40h24l80 -208q-28 -24 -120 -24z" />
<glyph unicode="y" horiz-adv-x="1096" d="M80 1664q54 22 64 48h-16v16h80v-8l-8 -8v-8h8l56 8v-8l-144 -144q-18 0 -40 104zM176 1400q46 0 240 88l96 -288l-16 -16v-8q24 0 24 -80q34 -96 48 -96l32 -16l48 72l-8 8v8l24 80l-16 48h8l-48 144q0 42 56 176l160 -120v-88l-16 -16l-24 24l-64 -16v8 q-48 -10 -48 -24v-8q0 -34 80 -56h8q42 0 48 24l-8 8l8 8h8l8 -8v-40q0 -68 -160 -496l8 -8v-8l-16 -16h-48q0 100 -144 136h-8q-64 0 -64 -32h-16l-136 416l40 8v16l-48 8l8 8v56h-8l-24 -8q-32 64 -32 104zM272 1488l104 104h16l16 -64zM400 16v72l8 8l-8 8v560l16 16 l96 -16l120 16h32l8 -56v-104l-8 -8l8 -8v-24l-8 -8l8 -8v-8l-8 -8l8 -8v-64l-8 -32l8 -32l-8 -32l8 -8l-8 -24l8 -128v-48l-8 -8l8 -8v-40l-16 -16q-32 36 -40 144l8 24h-8q-24 0 -24 24q-48 -22 -48 -88l24 -96l-8 -8h-8v8l-8 -8h-80l-8 8l-8 -8h-32zM432 1008h32v16h-8 l-24 -8v-8zM672 1568l16 16h8l8 -24q88 26 88 48v24q0 16 -72 24l-16 -40h-16q30 112 48 112h264l8 -8h8q-40 -152 -112 -152l-144 -72q-50 24 -88 72zM800 1464v8l16 16l8 -8v-8l-16 -16z" />
<glyph unicode="z" horiz-adv-x="928" d="M80 56h8l-8 8v32l8 8l-8 8v16l8 8l-8 8v32h16l168 -168l-8 -8h-24l-8 8l-8 -8h-16l-32 8l-32 -8v8l-8 -8h-40zM80 1480v16h8l-8 56v120l8 40l-8 8l8 8h80q16 0 16 -48h8q0 48 16 48h120q58 -46 152 -208h16l-24 40q52 20 56 40l-8 8v8l-40 -16l-24 8v-16q-96 102 -96 136 h472l16 -16v-232l-120 -312l-72 16l-16 -40h8l56 -32q-110 -304 -128 -304q-186 128 -208 160v16l40 -8h8v8q0 16 -32 16q0 36 176 464h-272q0 16 -40 32v-32h-152zM88 272q0 32 64 104l-8 48q38 104 56 104l24 8l8 -8h8l32 8h8l16 -16l64 24l8 -8h8l112 32l-120 -304 l88 -64v8q-36 40 -56 40v16h72q14 0 24 -56l64 -16l96 32l-8 24h8q26 -48 192 -112v-120l-16 -16h-48l-8 8l-8 -8h-104l-8 8l-8 -8h-96l-8 8l-8 -8h-88l-8 8l-8 -8h-8l-64 16l-24 -8zM264 720l88 208l104 -80v-8h-40l-24 -16q0 -38 160 -88v-16q-12 -32 -24 -32h-40 q-58 0 -64 24l-8 -8l-40 8h-72l-16 16l-8 -8h-16z" />
<glyph unicode="{" horiz-adv-x="728" d="M80 864v128h8l96 -96l-8 -8l32 -16h8q0 16 96 112v8h-32l-88 -88h-8v8l40 80q-24 0 -48 32v8q40 38 40 120v224l8 8l-8 8v96l8 32l-8 8q0 192 80 192l152 -160l-8 -56v-112l-40 8q-40 -82 -40 -152v-32q0 -26 80 -48v-48q0 -100 -112 -192v-8q112 -76 112 -176v-144h-16 l-8 24q-72 -24 -72 -72l16 -16h16q28 0 56 32h8v-224l8 -40l-160 -40v-24h72l88 16h8q18 -72 128 -72v-16l-40 -80l-8 8h-8q-48 -8 -48 -24q0 -40 32 -48l48 24q56 -4 56 -48h8l8 64h16v-56l-16 -16h-48l-8 8l-8 -8q-256 0 -328 200l-24 128l8 8l-8 40v264l8 32 q0 104 -48 168l24 32l-32 8l-8 -8h-8l-56 48v-8l8 -40l-8 -8h-8zM280 1096q40 -32 80 -32h40q12 0 24 32q-56 0 -88 16l-16 -16l-32 8h-8v-8zM376 1816q0 24 112 32l64 -80q-168 12 -176 48zM408 1200l16 104v8h16v-112h-32zM608 176l8 8h8l24 -24v-72h-16zM616 1736l16 16 l16 -16v-24h-8z" />
<glyph unicode="|" horiz-adv-x="416" d="M80 8v48l16 16l8 -8l8 8h8l80 -80l-16 -24q88 0 88 -96h8v24h16l24 -24v-8h-224l-16 16v8l8 8l-8 8v40l8 32zM80 96v208l8 8l-8 8v32l8 8l-8 8v8l8 8l-8 8v64l8 8l-8 8v184l8 8l-8 8v248l8 8l-8 8v8l8 8v8q100 -72 176 -72h24q-44 80 -72 88q0 32 -40 32q0 18 -88 72 l-8 32v680l8 8l-8 8v32l8 8l-8 8v8l8 24l-8 40v328l16 16h224l16 -16v-2032h-176v-8l40 -8l8 8h40q88 0 88 -24v-256h-8l-32 40q-22 0 -96 88l80 8v8l-64 8l-32 -8q-48 22 -48 88h-8v-24h-8l-24 16v-40l8 -40h-8zM152 304l40 -8h16l32 32v32l-24 8q-64 -10 -64 -32v-32z M208 800h8v40h-8v-40zM248 1608h8v48h-8v-48z" />
<glyph unicode="}" horiz-adv-x="728" d="M80 0v152l16 16h40l152 -152v-16l-192 -16zM88 1712v72l64 64h64l8 -8h8l-8 -40v-32l8 -40q-52 -64 -80 -64q-60 30 -64 48zM88 1816v24l16 16h8l16 -16l-32 -24h-8zM224 184q64 26 64 144v160h8q44 0 128 -160q24 -12 80 -112q-52 -176 -136 -176zM232 1656l48 48h8 l-48 -48h-8zM288 656v40q0 152 120 216q-120 96 -120 224v24h8q128 0 128 -24l32 8v8q-24 0 -24 16t32 16l8 24l-16 16h32l24 -24v-8q0 -146 64 -200q-38 -90 -56 -208l8 -8l-16 -112v-352h-16l-112 192l8 40q-72 0 -104 112zM288 1208v232l16 16h24l56 -40q0 32 56 32v8 q-18 0 -80 56v8l128 136q24 -36 24 -160v-80h-8l-24 8q0 -16 24 -16l8 -8v-96q0 -16 -80 -24l8 -8v-8l-8 -8v-8l16 -16h-24l-32 8l-8 -8h-8l-40 8q-8 -32 -48 -32zM360 1024l24 -24v-8q26 0 64 64l-8 8h-32q-48 0 -48 -40zM488 880h40v8h-40v-8zM608 864l24 24v8h-16v80 l16 16l16 -16v-112l-16 -16h-8z" />
<glyph unicode="~" horiz-adv-x="992" d="M80 1872v8l80 80h8l8 -56v-40l-40 -8h-40zM136 1832h16l32 -32v-8zM200 1992l96 32l16 -64v-40l-32 -40l48 -8v136l16 16q52 0 312 -128h16q28 4 104 80l136 -104v-16q-114 -144 -248 -144q-86 0 -176 64q40 4 40 88h-8q-20 0 -32 -64v-24l-176 64l-72 -40v8q0 26 24 56 v8h-40q-24 0 -24 120zM736 1792l8 -24h8v24h-16z" />
<glyph unicode="&#xa0;" />
<glyph unicode="&#xa1;" />
<glyph unicode="&#xa2;" />
<glyph unicode="&#xa3;" />
<glyph unicode="&#xa4;" />
<glyph unicode="&#xa5;" />
<glyph unicode="&#xa6;" />
<glyph unicode="&#xa7;" />
<glyph unicode="&#xa8;" />
<glyph unicode="&#xa9;" />
<glyph unicode="&#xaa;" />
<glyph unicode="&#xab;" />
<glyph unicode="&#xac;" />
<glyph unicode="&#xad;" horiz-adv-x="936" d="M80 812v96q16 32 48 32v8h-8l-32 -16l-8 8v32l16 16h136v-16h-16v-24l8 -8l24 -8v-8q88 8 152 40v-112l8 -40l8 8l8 24h8l-8 8v8l8 8l-8 8v56q0 40 16 40l24 -8v8l16 16h360l16 -16v-240l-16 -16h-120l-8 8h-8l8 40v24l-16 136h-8l-8 -80l8 -120l-8 -8h-496q-16 0 -24 56 l8 8q-88 0 -88 32zM328 836h32v8h-32v-8zM680 932h8q56 0 88 -16l64 8v8l-88 24l-72 -8v-16zM720 756q12 -32 24 -32l16 72l-8 24q-24 -4 -24 -64h-8z" />
<glyph unicode="&#xae;" />
<glyph unicode="&#xaf;" />
<glyph unicode="&#xb0;" />
<glyph unicode="&#xb1;" />
<glyph unicode="&#xb2;" />
<glyph unicode="&#xb3;" />
<glyph unicode="&#xb4;" />
<glyph unicode="&#xb6;" />
<glyph unicode="&#xb7;" />
<glyph unicode="&#xb8;" />
<glyph unicode="&#xb9;" />
<glyph unicode="&#xba;" />
<glyph unicode="&#xbb;" />
<glyph unicode="&#xbc;" />
<glyph unicode="&#xbd;" />
<glyph unicode="&#xbe;" />
<glyph unicode="&#xbf;" />
<glyph unicode="&#xc0;" />
<glyph unicode="&#xc1;" />
<glyph unicode="&#xc2;" />
<glyph unicode="&#xc3;" />
<glyph unicode="&#xc4;" />
<glyph unicode="&#xc5;" />
<glyph unicode="&#xc6;" />
<glyph unicode="&#xc7;" />
<glyph unicode="&#xc8;" />
<glyph unicode="&#xc9;" />
<glyph unicode="&#xca;" />
<glyph unicode="&#xcb;" />
<glyph unicode="&#xcc;" />
<glyph unicode="&#xcd;" />
<glyph unicode="&#xce;" />
<glyph unicode="&#xcf;" />
<glyph unicode="&#xd0;" />
<glyph unicode="&#xd1;" />
<glyph unicode="&#xd2;" />
<glyph unicode="&#xd3;" />
<glyph unicode="&#xd4;" />
<glyph unicode="&#xd5;" />
<glyph unicode="&#xd6;" />
<glyph unicode="&#xd7;" />
<glyph unicode="&#xd8;" />
<glyph unicode="&#xd9;" />
<glyph unicode="&#xda;" />
<glyph unicode="&#xdb;" />
<glyph unicode="&#xdc;" />
<glyph unicode="&#xdd;" />
<glyph unicode="&#xde;" />
<glyph unicode="&#xdf;" />
<glyph unicode="&#xe0;" />
<glyph unicode="&#xe1;" />
<glyph unicode="&#xe2;" />
<glyph unicode="&#xe3;" />
<glyph unicode="&#xe4;" />
<glyph unicode="&#xe5;" />
<glyph unicode="&#xe6;" />
<glyph unicode="&#xe7;" />
<glyph unicode="&#xe8;" />
<glyph unicode="&#xe9;" />
<glyph unicode="&#xea;" />
<glyph unicode="&#xeb;" />
<glyph unicode="&#xec;" />
<glyph unicode="&#xed;" />
<glyph unicode="&#xee;" />
<glyph unicode="&#xef;" />
<glyph unicode="&#xf0;" />
<glyph unicode="&#xf1;" />
<glyph unicode="&#xf2;" />
<glyph unicode="&#xf3;" />
<glyph unicode="&#xf4;" />
<glyph unicode="&#xf5;" />
<glyph unicode="&#xf6;" />
<glyph unicode="&#xf7;" />
<glyph unicode="&#xf8;" />
<glyph unicode="&#xf9;" />
<glyph unicode="&#xfa;" />
<glyph unicode="&#xfb;" />
<glyph unicode="&#xfc;" />
<glyph unicode="&#xfd;" />
<glyph unicode="&#xfe;" />
<glyph unicode="&#xff;" />
<glyph unicode="&#x152;" />
<glyph unicode="&#x153;" />
<glyph unicode="&#x178;" />
<glyph unicode="&#x2c6;" />
<glyph unicode="&#x2dc;" />
<glyph unicode="&#x2000;" horiz-adv-x="1136" />
<glyph unicode="&#x2001;" horiz-adv-x="2272" />
<glyph unicode="&#x2002;" horiz-adv-x="1136" />
<glyph unicode="&#x2003;" horiz-adv-x="2272" />
<glyph unicode="&#x2004;" horiz-adv-x="757" />
<glyph unicode="&#x2005;" horiz-adv-x="568" />
<glyph unicode="&#x2006;" horiz-adv-x="378" />
<glyph unicode="&#x2007;" horiz-adv-x="378" />
<glyph unicode="&#x2008;" horiz-adv-x="284" />
<glyph unicode="&#x2009;" horiz-adv-x="454" />
<glyph unicode="&#x200a;" horiz-adv-x="126" />
<glyph unicode="&#x2010;" horiz-adv-x="936" d="M80 812v96q16 32 48 32v8h-8l-32 -16l-8 8v32l16 16h136v-16h-16v-24l8 -8l24 -8v-8q88 8 152 40v-112l8 -40l8 8l8 24h8l-8 8v8l8 8l-8 8v56q0 40 16 40l24 -8v8l16 16h360l16 -16v-240l-16 -16h-120l-8 8h-8l8 40v24l-16 136h-8l-8 -80l8 -120l-8 -8h-496q-16 0 -24 56 l8 8q-88 0 -88 32zM328 836h32v8h-32v-8zM680 932h8q56 0 88 -16l64 8v8l-88 24l-72 -8v-16zM720 756q12 -32 24 -32l16 72l-8 24q-24 -4 -24 -64h-8z" />
<glyph unicode="&#x2011;" horiz-adv-x="936" d="M80 812v96q16 32 48 32v8h-8l-32 -16l-8 8v32l16 16h136v-16h-16v-24l8 -8l24 -8v-8q88 8 152 40v-112l8 -40l8 8l8 24h8l-8 8v8l8 8l-8 8v56q0 40 16 40l24 -8v8l16 16h360l16 -16v-240l-16 -16h-120l-8 8h-8l8 40v24l-16 136h-8l-8 -80l8 -120l-8 -8h-496q-16 0 -24 56 l8 8q-88 0 -88 32zM328 836h32v8h-32v-8zM680 932h8q56 0 88 -16l64 8v8l-88 24l-72 -8v-16zM720 756q12 -32 24 -32l16 72l-8 24q-24 -4 -24 -64h-8z" />
<glyph unicode="&#x2012;" horiz-adv-x="936" d="M80 812v96q16 32 48 32v8h-8l-32 -16l-8 8v32l16 16h136v-16h-16v-24l8 -8l24 -8v-8q88 8 152 40v-112l8 -40l8 8l8 24h8l-8 8v8l8 8l-8 8v56q0 40 16 40l24 -8v8l16 16h360l16 -16v-240l-16 -16h-120l-8 8h-8l8 40v24l-16 136h-8l-8 -80l8 -120l-8 -8h-496q-16 0 -24 56 l8 8q-88 0 -88 32zM328 836h32v8h-32v-8zM680 932h8q56 0 88 -16l64 8v8l-88 24l-72 -8v-16zM720 756q12 -32 24 -32l16 72l-8 24q-24 -4 -24 -64h-8z" />
<glyph unicode="&#x2013;" />
<glyph unicode="&#x2014;" />
<glyph unicode="&#x2018;" />
<glyph unicode="&#x2019;" />
<glyph unicode="&#x201a;" />
<glyph unicode="&#x201c;" />
<glyph unicode="&#x201d;" />
<glyph unicode="&#x201e;" />
<glyph unicode="&#x2022;" />
<glyph unicode="&#x2026;" />
<glyph unicode="&#x202f;" horiz-adv-x="454" />
<glyph unicode="&#x2039;" />
<glyph unicode="&#x203a;" />
<glyph unicode="&#x205f;" horiz-adv-x="568" />
<glyph unicode="&#x20ac;" />
<glyph unicode="&#x2122;" />
<glyph unicode="&#x25fc;" horiz-adv-x="1730" d="M0 0v1730h1730v-1730h-1730z" />
</font>
</defs>
</svg>
